<svg width="188" height="147" viewBox="0 0 188 147" fill="none" xmlns="http://www.w3.org/2000/svg">
<g opacity="0.61">
<g opacity="0.61">
<g opacity="0.61">
<g opacity="0.41">
<path opacity="0.41" d="M0.958412 106.639C-0.267432 105.181 -0.323153 102.978 0.824683 101.698C1.97252 100.419 4.70281 99.6842 5.91751 101.131C7.14335 102.589 5.40489 104.658 4.98141 106.483C4.41307 109.021 2.18426 108.097 0.958412 106.639Z" fill="#FFD555"/>
</g>
<g opacity="0.41">
<path opacity="0.41" d="M181.826 85.1953C183.353 86.5417 183.665 89.1123 182.528 90.9261C181.391 92.74 178.427 94.3758 176.9 93.0182C175.374 91.6717 177.079 88.7562 177.335 86.5195C177.703 83.3925 180.299 83.8377 181.826 85.1953Z" fill="#FFD555"/>
</g>
<g opacity="0.41">
<path opacity="0.41" d="M93.5654 18.1165C95.1925 16.0578 98.4688 15.468 100.887 16.8034C103.305 18.1387 105.612 21.811 103.985 23.8696C102.358 25.9283 98.4911 23.9475 95.5937 23.7806C91.5372 23.5358 91.9384 20.1751 93.5654 18.1165Z" fill="#FFD555"/>
</g>
</g>
<g opacity="0.28">
<g opacity="0.28">
<g opacity="0.28">
<path opacity="0.28" d="M11.7906 136.662C10.0521 126.413 12.8381 117.667 13.5402 107.618C14.1977 98.1038 11.3448 90.1028 9.76238 81.0447C8.35823 72.977 8.82628 63.8409 10.587 55.9178C12.9941 45.1015 18.555 35.0752 26.5564 28.966C39.0266 19.4516 55.6647 20.5644 69.4387 27.1187C75.2113 29.8562 80.7945 33.5062 86.9794 34.4298C95.995 35.7763 104.765 31.1693 113.547 28.4096C125.504 24.6483 138.621 24.3701 149.899 30.3013C162.681 37.0337 171.774 52.2234 170.716 68.9598C170.237 76.5379 167.774 84.027 168.643 91.5606C169.523 99.1944 173.357 105.593 175.385 112.782C177.246 119.403 177.971 128.105 176.89 136.128C176.043 142.36 170.705 146.989 164.419 146.989H24.1828C18.1315 146.989 12.8381 142.716 11.8129 136.762C11.8129 136.729 11.8017 136.695 11.7906 136.662Z" fill="#FFD555"/>
</g>
</g>
</g>
<g opacity="0.66">
<g opacity="0.66">
<g opacity="0.47">
<path opacity="0.47" d="M153.108 96.7017C152.506 89.3684 149.609 82.0128 144.594 76.7605C136.782 68.5814 124.947 66.5116 114.594 68.4034C110.248 69.1935 105.947 70.5956 101.5 70.1616C95.0142 69.5162 89.3085 65.0984 83.4021 61.8602C75.3673 57.4535 66.1623 55.0832 57.6148 56.9972C47.9307 59.1672 39.9961 67.3907 39.0377 78.285C38.6031 83.2258 42.9716 91.9278 41.5897 96.6016C40.1967 101.353 29.9999 115.886 30.2451 126.947C30.4568 136.373 32.2064 140.245 34.7918 144.674C35.6276 146.11 37.1544 147 38.8148 147H138.766H141.217C143.223 147 145.006 145.72 145.63 143.817C147.057 139.466 147.726 135.349 145.775 129.34C143.847 123.386 149.096 118.479 151.124 112.937C152.963 108.008 153.554 102.076 153.108 96.7017Z" fill="#FFD555"/>
</g>
</g>
</g>
</g>
</g>
<path d="M35.3375 80.7221L36.151 80.0767C36.5411 79.7651 36.6079 79.1976 36.2959 78.8081L24.7952 64.3529C24.4832 63.9634 23.9149 63.8967 23.5248 64.2082L22.7113 64.8537C22.3213 65.1652 22.2544 65.7328 22.5664 66.1222L34.0671 80.5663C34.3791 80.9669 34.9475 81.0337 35.3375 80.7221Z" fill="#F9B361"/>
<path opacity="0.19" d="M35.9395 79.2199L24.3051 64.6089C24.1268 64.3753 24.0376 64.1193 24.0488 63.9301C24.2828 63.919 24.5503 64.0414 24.7286 64.264L36.3629 78.875C36.5413 79.1086 36.597 79.3868 36.5413 79.6094C36.3518 79.5983 36.1178 79.4536 35.9395 79.2199Z" fill="#FFF6F7"/>
<path d="M42.8819 77.328L43.818 76.8829C44.2749 76.6714 44.4643 76.1262 44.2526 75.6811L36.3292 59.0003C36.1174 58.544 35.5714 58.3549 35.1256 58.5663L34.1895 59.0114C33.7326 59.2229 33.5432 59.7681 33.7549 60.2132L41.6783 76.894C41.8901 77.3503 42.425 77.5394 42.8819 77.328Z" fill="#F9B361"/>
<path opacity="0.19" d="M43.807 76.0038L35.7944 59.1338C35.6718 58.8667 35.6384 58.5997 35.7052 58.4216C35.9393 58.4661 36.1622 58.6331 36.2959 58.9001L44.3084 75.7701C44.431 76.0372 44.431 76.3265 44.3084 76.5268C44.119 76.46 43.9295 76.2708 43.807 76.0038Z" fill="#FFF6F7"/>
<path d="M34.9476 81.501L35.6497 80.7331C35.984 80.3659 35.9617 79.7872 35.5828 79.4534L21.8979 67.0458C21.5302 66.7119 20.9507 66.7342 20.6163 67.1125L19.9143 67.8804C19.5799 68.2476 19.6022 68.8262 19.9811 69.1601L33.666 81.5677C34.0338 81.9016 34.6021 81.8682 34.9476 81.501Z" fill="#F9B361"/>
<path opacity="0.19" d="M35.2932 79.9321L21.4523 67.3798C21.2294 67.1794 21.1068 66.9458 21.0957 66.7566C21.3297 66.7121 21.6083 66.7788 21.8201 66.9791L35.661 79.5315C35.8838 79.7318 35.9841 79.9988 35.9507 80.2325C35.7613 80.2325 35.5161 80.1212 35.2932 79.9321Z" fill="#FFF6F7"/>
<path d="M39.1491 78.4407L40.0183 77.8731C40.4418 77.595 40.5532 77.0386 40.2858 76.6157L30.2115 61.1479C29.9329 60.725 29.3757 60.6137 28.9523 60.8808L28.083 61.4483C27.6596 61.7265 27.5481 62.2829 27.8156 62.7058L37.8898 78.1847C38.1684 78.5965 38.7256 78.7189 39.1491 78.4407Z" fill="#F9B361"/>
<path opacity="0.19" d="M39.8845 77.0165L29.6988 61.3595C29.5428 61.1147 29.476 60.8476 29.5094 60.6584C29.7434 60.6696 29.9886 60.8142 30.1557 61.0591L40.3525 76.7161C40.5086 76.9609 40.542 77.2502 40.4528 77.4728C40.2634 77.4282 40.0516 77.2613 39.8845 77.0165Z" fill="#FFF6F7"/>
<path d="M34.4906 85.3846L35.1927 84.6168C35.527 84.2496 35.5047 83.6709 35.1369 83.3371L21.4855 70.896C21.1177 70.5622 20.5382 70.5845 20.2039 70.9517L19.5019 71.7195C19.1675 72.0867 19.1898 72.6654 19.5576 72.9992L33.209 85.4514C33.5768 85.7852 34.1563 85.763 34.4906 85.3846Z" fill="#F9B361"/>
<path opacity="0.19" d="M34.8472 83.8159L21.0397 71.2191C20.8168 71.0188 20.6942 70.7851 20.6831 70.5959C20.9171 70.5514 21.1957 70.6182 21.4075 70.8185L35.2149 83.4153C35.4378 83.6156 35.527 83.8827 35.5047 84.1164C35.3152 84.1164 35.0589 84.0162 34.8472 83.8159Z" fill="#FFF6F7"/>
<path d="M42.0126 79.0417L42.9041 78.5076C43.3276 78.2517 43.4725 77.6953 43.205 77.2613L33.6323 61.4707C33.376 61.0479 32.8187 60.9032 32.3841 61.1703L31.4926 61.7044C31.0691 61.9604 30.9243 62.5168 31.1917 62.9508L40.7645 78.7413C41.0208 79.1642 41.578 79.2977 42.0126 79.0417Z" fill="#F9B361"/>
<path opacity="0.19" d="M42.7925 77.6286L33.1083 61.66C32.9523 61.4041 32.8966 61.1482 32.9411 60.959C33.1752 60.9812 33.4203 61.1259 33.5763 61.3818L43.2605 77.3504C43.4165 77.6064 43.4388 77.8846 43.3385 78.1071C43.1602 78.0515 42.9485 77.8846 42.7925 77.6286Z" fill="#FFF6F7"/>
<path d="M38.6697 81.0783L39.4944 80.444C39.8956 80.1435 39.9736 79.576 39.6616 79.1754L28.4618 64.5088C28.1609 64.1082 27.5926 64.0303 27.1914 64.3418L26.3667 64.9761C25.9655 65.2766 25.8875 65.8441 26.1995 66.2447L37.3993 80.9225C37.7002 81.3119 38.2685 81.3898 38.6697 81.0783Z" fill="#F9B361"/>
<path opacity="0.19" d="M39.2936 79.598L27.9601 64.7422C27.7818 64.5085 27.7038 64.2526 27.7149 64.0634C27.9489 64.0523 28.2052 64.1858 28.3835 64.4195L39.717 79.2753C39.8953 79.509 39.9511 79.7872 39.8731 80.0208C39.7059 79.9763 39.4719 79.8317 39.2936 79.598Z" fill="#FFF6F7"/>
<path d="M39.9178 62.8726C38.8257 63.5848 38.1459 64.8089 38.0902 66.1665C37.9787 69.2267 36.1288 72.298 33.0531 74.0005C30.4008 75.4583 27.4365 75.5585 25.0739 74.5236C23.9261 74.0228 22.6222 74.1452 21.5747 74.824L21.0732 75.1467C20.4714 75.5362 20.3377 76.3263 20.7946 76.8048L26.166 82.48L34.7247 91.7941C35.0701 92.1613 35.5939 92.217 35.9282 91.9165L40.4973 87.8214C40.9765 87.3875 41.5114 87.0202 42.0797 86.7087L48.2201 83.3814C48.6324 83.1588 48.7996 82.6247 48.6101 82.1239L45.0552 72.8766L41.6117 63.3511C41.3665 62.6946 40.5419 62.4609 39.9178 62.8726Z" fill="#FFBF00"/>
<path d="M29.0746 80.5773L23.7032 74.9021C23.5249 74.7129 23.4358 74.4681 23.4358 74.2122C22.7783 74.2455 22.143 74.4458 21.5747 74.8131L21.0732 75.1358C20.4714 75.5253 20.3377 76.3153 20.7946 76.7938L26.1661 82.4691L34.7247 91.7832C35.0701 92.1504 35.5939 92.206 35.9282 91.9056L37.923 90.114C37.8116 90.0583 37.7113 89.9916 37.6221 89.8914L29.0746 80.5773Z" fill="#FFD966"/>
<path d="M19.7098 36.7513C19.7098 36.7513 15.1185 36.818 14.8844 33.1347C14.7953 31.688 15.5754 30.3416 16.2663 29.251C17.3138 27.6041 18.6065 25.6678 19.8547 24.1989C24.6132 18.6016 29.0708 15.9754 35.2669 13.416C36.9051 12.7372 41.0172 11.7134 42.9897 12.7149C43.6583 13.0599 44.1933 13.683 44.5164 14.373C44.7728 14.9071 44.9176 15.508 44.8619 16.0644C44.6836 18.0675 42.3879 19.4918 41.0284 20.6046C39.1339 22.1514 37.1948 23.6537 35.2557 25.1448C30.9207 28.4832 26.5411 31.7548 22.1281 34.993C21.6934 35.3158 21.2588 35.6273 20.8242 35.95C20.5902 36.117 20.0107 36.7513 19.7098 36.7513Z" fill="#FFAC79"/>
<path opacity="0.25" d="M20.8235 35.9502C21.2582 35.6275 21.6928 35.3159 22.1274 34.9932C26.5404 31.755 30.92 28.4722 35.2551 25.145C37.1941 23.6538 39.1332 22.1516 41.0277 20.6048C42.3873 19.492 44.6829 18.0676 44.8612 16.0646C44.8947 15.6195 44.8167 15.1521 44.6495 14.707C42.5656 14.0282 38.9103 14.9629 37.3836 15.5972C31.1875 18.1566 26.7299 20.7828 21.9714 26.3802C20.7232 27.8491 19.4305 29.7853 18.383 31.4323C17.6921 32.5228 16.912 33.8693 17.0011 35.3159C17.0234 35.6609 17.0903 35.9725 17.1906 36.2507C18.4276 36.7737 19.7091 36.7625 19.7091 36.7625C20.01 36.7514 20.5895 36.1171 20.8235 35.9502Z" fill="#F97762"/>
<path d="M19.4536 36.0835C19.4424 36.4396 19.643 36.7623 19.9439 36.9292C22.8859 38.5539 40.1815 47.1558 48.0492 51.0617C49.6205 51.8406 51.4035 50.4719 51.0469 48.7471C49.1301 39.6333 44.7171 18.8241 43.7922 16.7877C42.6109 14.2171 19.8325 24.4659 19.4536 36.0835Z" fill="#FFE28B"/>
<path d="M19.5757 34.8267C19.598 34.7042 19.6203 34.5816 19.6425 34.459C19.6203 34.5704 19.598 34.7042 19.5757 34.8267Z" fill="#FFD98B"/>
<path d="M19.498 35.3721C19.5092 35.2495 19.5203 35.1157 19.5426 34.9932C19.5315 35.1157 19.5203 35.2495 19.498 35.3721Z" fill="#FFD98B"/>
<path d="M19.687 34.2812C19.7204 34.1587 19.7427 34.0361 19.7762 33.9023C19.7427 34.0361 19.7204 34.1587 19.687 34.2812Z" fill="#FFD98B"/>
<path d="M19.8208 33.7585C19.8542 33.6247 19.8877 33.5021 19.9322 33.3684C19.8988 33.5021 19.8542 33.6359 19.8208 33.7585Z" fill="#FFD98B"/>
<path d="M19.4531 36.0841C19.4643 35.9058 19.4754 35.7164 19.4866 35.5381C19.4643 35.7164 19.4531 35.9058 19.4531 36.0841Z" fill="#FFD98B"/>
<path d="M19.9766 33.2464C20.0211 33.1127 20.0657 32.9789 20.1214 32.8452C20.0657 32.9678 20.0211 33.1127 19.9766 33.2464Z" fill="#FFD98B"/>
<path d="M20.6123 31.6997C20.6903 31.5548 20.7572 31.3988 20.8352 31.2539C20.7572 31.3988 20.6903 31.5548 20.6123 31.6997Z" fill="#FFD98B"/>
<path d="M21.7935 29.6969C21.9049 29.5297 22.0163 29.3737 22.1389 29.2065C22.0163 29.3626 21.9049 29.5297 21.7935 29.6969Z" fill="#FFD98B"/>
<path d="M21.1582 30.6983C21.2474 30.5423 21.3476 30.3862 21.4479 30.2302C21.3476 30.3751 21.2474 30.5311 21.1582 30.6983Z" fill="#FFD98B"/>
<path d="M21.459 30.1865C21.5593 30.0305 21.6707 29.8633 21.771 29.7073C21.6707 29.8744 21.5593 30.0305 21.459 30.1865Z" fill="#FFD98B"/>
<path d="M20.768 34.4144C20.7569 34.7705 20.9575 35.0932 21.2584 35.2602C24.2004 36.8848 41.4959 45.4867 49.3636 49.3926C49.9431 49.6819 50.5449 49.6708 51.0687 49.4705C51.1021 49.2368 51.1021 49.0032 51.0464 48.7472C49.1296 39.6334 44.7166 18.8242 43.7916 16.7878C42.8667 14.7402 28.2902 20.7938 22.1499 29.2066C22.5176 28.7058 22.9077 28.2162 23.3311 27.7377C21.8156 29.8408 20.846 32.0998 20.768 34.4144Z" fill="#F9D361"/>
<path d="M48.4163 51.1954C48.3829 51.1842 48.3606 51.1842 48.3271 51.1731C48.3494 51.1842 48.3829 51.1842 48.4163 51.1954Z" fill="#FFD98B"/>
<path d="M20.3779 32.2117C20.4448 32.0668 20.5005 31.922 20.5785 31.7771C20.5005 31.922 20.4448 32.0668 20.3779 32.2117Z" fill="#FFD98B"/>
<path d="M20.8682 31.199C20.9462 31.043 21.0353 30.887 21.1245 30.731C21.0353 30.887 20.9573 31.043 20.8682 31.199Z" fill="#FFD98B"/>
<path d="M20.1665 32.7235C20.2222 32.5787 20.2779 32.4449 20.3337 32.3C20.2779 32.4449 20.2222 32.5898 20.1665 32.7235Z" fill="#FFD98B"/>
<path d="M50.3558 50.7612C50.3112 50.8058 50.2555 50.8392 50.2109 50.8727C50.2555 50.8392 50.3112 50.8058 50.3558 50.7612Z" fill="#FFD98B"/>
<path d="M49.5309 51.2063C49.4974 51.2174 49.4529 51.2174 49.4194 51.2286C49.4529 51.2286 49.4974 51.2174 49.5309 51.2063Z" fill="#FFD98B"/>
<path d="M50.1438 50.917C50.0992 50.9504 50.0435 50.9839 49.9878 51.0173C50.0435 50.9839 50.0992 50.9504 50.1438 50.917Z" fill="#FFD98B"/>
<path d="M49.2633 51.262C49.2299 51.262 49.1853 51.2731 49.1519 51.2731C49.1853 51.2731 49.2299 51.262 49.2633 51.262Z" fill="#FFD98B"/>
<path d="M50.5453 50.5833C50.5007 50.6278 50.4561 50.6835 50.4004 50.7281C50.4561 50.6724 50.5007 50.6278 50.5453 50.5833Z" fill="#FFD98B"/>
<path d="M51.0689 49.4705C51.0132 49.8822 50.8349 50.2605 50.5786 50.5499C50.8238 50.2494 51.0132 49.8822 51.0689 49.4705Z" fill="#FFD98B"/>
<path d="M49.921 51.0503C49.8429 51.0949 49.7649 51.1283 49.6758 51.1506C49.7538 51.1283 49.8429 51.0949 49.921 51.0503Z" fill="#FFD98B"/>
<path d="M48.7062 51.2621C48.6727 51.2621 48.6393 51.251 48.5947 51.251C48.6393 51.251 48.6727 51.251 48.7062 51.2621Z" fill="#FFD98B"/>
<path d="M19.4866 35.5382C19.4866 35.5159 19.4866 35.4937 19.4977 35.4714C19.4754 35.6717 19.4643 35.8832 19.4531 36.0835C19.4531 36.1725 19.4643 36.2615 19.4866 36.3394C19.4643 36.2615 19.4531 36.1725 19.4531 36.0835C19.4531 35.9054 19.4643 35.7162 19.4866 35.5382Z" fill="#FFD98B"/>
<path d="M20.6123 31.6997C20.6792 31.5548 20.7572 31.4099 20.8352 31.2539C20.7572 31.3988 20.6903 31.5436 20.6123 31.6997Z" fill="#FFD98B"/>
<path d="M19.7314 36.7732C19.7983 36.8289 19.8652 36.8846 19.9432 36.9292C20.0546 36.9961 20.1884 37.0629 20.3444 37.1521C20.1884 37.0741 20.0546 36.9961 19.9432 36.9292C19.8652 36.8846 19.7983 36.8401 19.7314 36.7732Z" fill="#FFD98B"/>
<path d="M50.5674 50.5499C50.8237 50.2494 51.002 49.8822 51.0577 49.4705C51.0131 49.8822 50.8237 50.2494 50.5674 50.5499Z" fill="#FFD98B"/>
<path d="M49.9658 51.0282C50.0327 50.9948 50.0884 50.9613 50.1441 50.9167C50.0995 50.9502 50.0438 50.9836 49.9993 51.0059C49.9881 51.017 49.977 51.0282 49.9658 51.0282Z" fill="#FFD98B"/>
<path d="M49.4195 51.2287C49.3861 51.2398 49.3415 51.2398 49.3081 51.251C49.3973 51.2398 49.4976 51.2175 49.5867 51.1841C49.5756 51.1841 49.5533 51.1952 49.5421 51.1952C49.4976 51.2175 49.453 51.2287 49.4195 51.2287Z" fill="#FFD98B"/>
<path d="M21.459 30.1865C21.5593 30.0305 21.6707 29.8633 21.771 29.7073C21.6707 29.8744 21.5593 30.0305 21.459 30.1865Z" fill="#FFD98B"/>
<path d="M50.5453 50.5833C50.5007 50.6278 50.4561 50.6835 50.4004 50.7281C50.4561 50.6724 50.5007 50.6278 50.5453 50.5833Z" fill="#FFD98B"/>
<path d="M19.5538 34.9595C19.5315 35.0932 19.5203 35.2381 19.498 35.3718C19.5092 35.2492 19.5203 35.1266 19.5426 34.9929C19.5538 34.9818 19.5538 34.9706 19.5538 34.9595Z" fill="#FFD98B"/>
<path d="M19.6871 34.2808C19.7206 34.1584 19.7428 34.036 19.7763 33.9024C19.7874 33.8468 19.8097 33.8023 19.8208 33.7467C19.8543 33.6131 19.8877 33.4907 19.9323 33.3572C19.7763 33.8357 19.6648 34.3142 19.5757 34.8038C19.598 34.6814 19.6203 34.559 19.6425 34.4366C19.6648 34.3921 19.676 34.3364 19.6871 34.2808Z" fill="#FFD98B"/>
<path d="M48.985 51.2841C48.9515 51.2841 48.907 51.2841 48.8735 51.2841C49.0073 51.2952 49.1299 51.2841 49.2636 51.2729C49.2301 51.2729 49.1856 51.2841 49.1521 51.2841C49.0964 51.273 49.0407 51.2841 48.985 51.2841Z" fill="#FFD98B"/>
<path d="M21.7935 29.6966C21.9049 29.5295 22.0163 29.3735 22.1389 29.2063C22.0163 29.3623 21.9049 29.5295 21.7935 29.6966Z" fill="#FFD98B"/>
<path d="M49.921 51.0503C49.8429 51.0949 49.7649 51.1283 49.6758 51.1506C49.7538 51.1283 49.8429 51.0949 49.921 51.0503Z" fill="#FFD98B"/>
<path d="M21.4591 30.1968C21.3588 30.3639 21.2474 30.5311 21.1582 30.6983C21.2474 30.5422 21.3476 30.3862 21.4479 30.2302C21.4479 30.2079 21.4591 30.1968 21.4591 30.1968Z" fill="#FFD98B"/>
<path d="M22.1387 29.1952C22.3058 28.9615 22.4953 28.7278 22.6736 28.4941C22.4953 28.7278 22.3058 28.9615 22.1387 29.1952Z" fill="#FFD98B"/>
<path d="M50.3558 50.7612C50.3112 50.8058 50.2555 50.8392 50.2109 50.8727C50.2555 50.8392 50.3112 50.8058 50.3558 50.7612Z" fill="#FFD98B"/>
<path d="M21.1468 30.6975C21.0465 30.8647 20.9573 31.0318 20.8682 31.199C20.9462 31.043 21.0353 30.887 21.1245 30.7421C21.1356 30.7198 21.1468 30.7087 21.1468 30.6975Z" fill="#FFD98B"/>
<path d="M48.7062 51.2619C48.6727 51.2619 48.6393 51.2507 48.5947 51.2507C48.6393 51.2507 48.6727 51.2507 48.7062 51.2619Z" fill="#FFD98B"/>
<path d="M20.1218 32.834C20.0661 32.9789 20.0215 33.1237 19.9658 33.2797C19.9658 33.2686 19.977 33.2575 19.977 33.2463C20.0215 33.1126 20.0661 32.9677 20.1218 32.834Z" fill="#FFD98B"/>
<path d="M48.4163 51.1951C48.3829 51.184 48.3606 51.184 48.3271 51.1729C48.3494 51.184 48.3829 51.184 48.4163 51.1951Z" fill="#FFD98B"/>
<path d="M20.3334 32.311C20.3445 32.2776 20.3668 32.2442 20.378 32.2108C20.4448 32.0662 20.5006 31.9215 20.5786 31.7769C20.4114 32.1218 20.2665 32.4668 20.1328 32.8118C20.144 32.7784 20.1551 32.7561 20.1662 32.7227C20.222 32.5892 20.2777 32.4445 20.3334 32.311Z" fill="#FFD98B"/>
<path d="M41.1511 26.6693C41.3852 29.5848 39.2121 32.1331 36.2923 32.3668C33.3726 32.6005 30.8206 30.4305 30.5866 27.515C30.3526 24.5995 32.5257 22.0512 35.4454 21.8175C38.3651 21.5838 40.9171 23.7538 41.1511 26.6693Z" fill="#FF5E4D"/>
<path d="M39.6912 26.4912C39.8583 28.6166 38.2759 30.475 36.1474 30.6419C34.0188 30.8088 32.1578 29.2287 31.9906 27.1032C31.8235 24.9778 33.4059 23.1194 35.5344 22.9525C37.6629 22.7856 39.524 24.3658 39.6912 26.4912Z" fill="#F94A3D"/>
<g opacity="0.23">
<g opacity="0.23">
<path opacity="0.23" d="M47.5141 43.8176C47.6812 44.0735 48.0267 44.1403 48.2719 43.9845C48.5282 43.8176 48.595 43.4726 48.439 43.2278C48.2719 42.9718 47.9264 42.8939 47.6812 43.0609C47.4249 43.2278 47.358 43.5616 47.5141 43.8176Z" fill="#FFA35D"/>
<path opacity="0.23" d="M25.5712 30.3415C25.7384 30.5974 26.0839 30.6642 26.329 30.5084C26.5854 30.3415 26.6522 29.9965 26.4962 29.7517C26.329 29.4958 25.9836 29.4179 25.7384 29.5848C25.4821 29.7517 25.4041 30.0855 25.5712 30.3415Z" fill="#FFA35D"/>
<path opacity="0.23" d="M41.5293 38.7096C41.6964 38.9656 42.0419 39.0323 42.287 38.8765C42.5434 38.7096 42.6214 38.3646 42.4542 38.1198C42.287 37.8639 41.9416 37.7971 41.6964 37.9529C41.4401 38.1087 41.3621 38.4537 41.5293 38.7096Z" fill="#FFA35D"/>
<path opacity="0.23" d="M47.1464 45.6316C47.2578 45.8097 47.4918 45.8542 47.659 45.7429C47.8373 45.6316 47.8819 45.3979 47.7704 45.231C47.659 45.053 47.425 45.0085 47.2578 45.1198C47.0906 45.231 47.0349 45.4647 47.1464 45.6316Z" fill="#FFA35D"/>
<path opacity="0.23" d="M40.3259 40.8578C40.3705 40.9247 40.4597 40.947 40.5265 40.9024C40.5934 40.8578 40.6157 40.7687 40.5711 40.7018C40.5265 40.6349 40.4374 40.6126 40.3705 40.6572C40.3036 40.7018 40.2813 40.791 40.3259 40.8578Z" fill="#FFA35D"/>
<path opacity="0.23" d="M41.4963 24.3886C41.5409 24.4666 41.6412 24.4889 41.7192 24.4332C41.7972 24.3886 41.8195 24.2883 41.7638 24.2103C41.7081 24.1323 41.6189 24.11 41.5409 24.1657C41.474 24.2103 41.4518 24.3106 41.4963 24.3886Z" fill="#FFA35D"/>
<path opacity="0.23" d="M27.5656 37.4196C27.6102 37.4976 27.7105 37.5199 27.7885 37.4642C27.8665 37.4196 27.8888 37.3193 27.8331 37.2413C27.7885 37.1633 27.6882 37.141 27.6102 37.1967C27.5322 37.2413 27.5099 37.3416 27.5656 37.4196Z" fill="#FFA35D"/>
<path opacity="0.23" d="M41.2844 45.0529C41.329 45.1309 41.4293 45.1532 41.5073 45.0975C41.5853 45.0418 41.6076 44.9526 41.5519 44.8746C41.5073 44.7966 41.407 44.7743 41.329 44.83C41.2621 44.8857 41.2398 44.986 41.2844 45.0529Z" fill="#FFA35D"/>
<path opacity="0.23" d="M29.8396 25.7463C29.8842 25.8243 29.9845 25.8466 30.0625 25.7908C30.1405 25.7463 30.1628 25.646 30.1071 25.568C30.0625 25.49 29.9622 25.4677 29.8842 25.5234C29.8173 25.568 29.795 25.6794 29.8396 25.7463Z" fill="#FFA35D"/>
<path opacity="0.23" d="M23.2311 32.1559C23.2757 32.2339 23.376 32.2562 23.454 32.2005C23.532 32.1559 23.5543 32.0556 23.4986 31.9776C23.454 31.8996 23.3537 31.8773 23.2757 31.9331C23.1977 31.9888 23.1754 32.0891 23.2311 32.1559Z" fill="#FFA35D"/>
<path opacity="0.23" d="M43.0895 19.1252C43.1341 19.2032 43.2344 19.2255 43.3124 19.1697C43.3904 19.1252 43.4127 19.0249 43.357 18.9469C43.3124 18.8689 43.2121 18.8466 43.1341 18.9023C43.0561 18.9469 43.045 19.0472 43.0895 19.1252Z" fill="#FFA35D"/>
<path opacity="0.23" d="M45.0956 44.4742C45.207 44.6522 45.441 44.6967 45.6082 44.5854C45.7865 44.4742 45.8311 44.2405 45.7196 44.0736C45.6082 43.8955 45.3742 43.851 45.207 43.9623C45.0399 44.0736 44.9841 44.3072 45.0956 44.4742Z" fill="#FFA35D"/>
<path opacity="0.23" d="M27.0646 33.7916C27.1203 33.8807 27.2317 33.903 27.3209 33.8473C27.41 33.7916 27.4323 33.6801 27.3766 33.591C27.3209 33.5018 27.2094 33.4795 27.1203 33.5353C27.0311 33.591 27.0088 33.7024 27.0646 33.7916Z" fill="#FFA35D"/>
<path opacity="0.23" d="M39.5573 19.1358C39.6688 19.3138 39.9028 19.3583 40.07 19.2471C40.2483 19.1358 40.2928 18.9021 40.1814 18.7352C40.07 18.5571 39.8359 18.5126 39.6688 18.6239C39.4905 18.7241 39.4459 18.9577 39.5573 19.1358Z" fill="#FFA35D"/>
</g>
</g>
<path d="M44.3601 37.9755C44.5496 40.3235 46.6112 42.0705 48.9515 41.8814C49.1632 41.8591 49.3638 41.8257 49.5644 41.7812C49.0072 39.1439 48.3831 36.284 47.7702 33.4575C45.6751 33.8693 44.1818 35.7944 44.3601 37.9755Z" fill="#FF5E4D"/>
<path d="M45.4072 37.7306C45.5409 39.3776 46.9785 40.6017 48.6278 40.4681C48.7727 40.457 48.9176 40.4347 49.0513 40.4014C48.6613 38.5541 48.2266 36.5511 47.792 34.5703C46.3322 34.8596 45.2846 36.2061 45.4072 37.7306Z" fill="#F94A3D"/>
<path d="M27.1652 34.4811C26.998 34.4811 26.842 34.4477 26.686 34.3698C26.3517 34.214 26.0842 33.9025 25.9505 33.5241C25.8168 33.1458 25.8279 32.734 25.9839 32.4002C26.1177 32.1331 26.3294 31.9328 26.5968 31.8327C26.8643 31.7437 27.154 31.7548 27.4215 31.8883C27.7558 32.0441 28.0233 32.3557 28.1682 32.7452C28.4245 33.4574 28.1347 34.2141 27.5218 34.4366C27.3992 34.4589 27.2878 34.4811 27.1652 34.4811ZM26.9312 32.6005C26.9089 32.6005 26.8866 32.6005 26.8643 32.6116C26.7974 32.6339 26.7529 32.7007 26.7306 32.7452C26.6637 32.8787 26.6637 33.0567 26.7306 33.2348C26.7863 33.4128 26.9089 33.5464 27.0426 33.6131C27.0872 33.6354 27.1652 33.6577 27.2321 33.6354C27.3769 33.5798 27.4661 33.3016 27.3658 33.0122C27.3101 32.8342 27.1875 32.7006 27.0538 32.6339C27.0203 32.6116 26.9757 32.6005 26.9312 32.6005Z" fill="#212121"/>
<path d="M40.148 37.4412C39.6354 37.4412 39.1339 37.1074 38.9222 36.5955C38.7884 36.2617 38.7996 35.9056 38.9556 35.6051C39.0782 35.3714 39.3011 35.1934 39.5574 35.1155C40.1592 34.9263 40.8724 35.2824 41.1287 35.9056C41.385 36.5287 41.0953 37.1964 40.4823 37.3856C40.382 37.4301 40.2595 37.4412 40.148 37.4412ZM39.9028 35.8054C39.8806 35.8054 39.8583 35.8054 39.836 35.8165C39.7691 35.8388 39.7245 35.8944 39.7023 35.9389C39.6354 36.0502 39.6354 36.2171 39.7023 36.3618C39.8137 36.6289 40.0477 36.7513 40.2037 36.7068C40.3486 36.6623 40.4489 36.4174 40.3375 36.1615C40.2483 35.9389 40.0589 35.8054 39.9028 35.8054Z" fill="#212121"/>
<path d="M45.3968 45.4309C45.252 45.4309 45.096 45.3975 44.9622 45.3307C44.7394 45.2195 44.561 45.0191 44.4942 44.7966C44.4273 44.6074 44.4496 44.4071 44.5276 44.2291C44.6168 44.0621 44.7616 43.9286 44.9511 43.8618C45.174 43.784 45.4303 43.8062 45.6643 43.9286C46.0989 44.1512 46.2884 44.6408 46.0989 45.0192C45.9986 45.2195 45.8092 45.3641 45.5752 45.4086C45.5194 45.4309 45.4526 45.4309 45.3968 45.4309Z" fill="#212121"/>
<path d="M43.1125 22.4962C42.8785 22.4962 42.6444 22.4406 42.4216 22.3293C41.7418 21.9843 41.4297 21.2388 41.7195 20.6601C42.0092 20.0815 42.8004 19.8923 43.4802 20.2373C43.7923 20.393 44.0374 20.6379 44.1823 20.9383C44.3383 21.261 44.3383 21.6171 44.1935 21.9064C43.9817 22.2848 43.5694 22.4962 43.1125 22.4962ZM42.767 20.8938C42.6221 20.8938 42.4996 20.9494 42.455 21.0273C42.3881 21.172 42.5107 21.4279 42.7893 21.5726C43.0679 21.7173 43.3576 21.6616 43.4245 21.517C43.4691 21.4279 43.4357 21.3278 43.4134 21.2833C43.3577 21.1609 43.2351 21.0496 43.1013 20.9717C42.9899 20.9272 42.8673 20.8938 42.767 20.8938Z" fill="#212121"/>
<path d="M32.4695 37.9977C30.5193 38.1535 28.9591 39.5222 28.4688 41.2916C30.9427 42.5379 33.6953 43.9178 36.4367 45.2754C37.1054 44.4185 37.462 43.3169 37.3728 42.1484C37.15 39.6558 34.9657 37.7974 32.4695 37.9977Z" fill="#FF5E4D"/>
<path d="M32.5919 39.1659C31.0986 39.2884 29.895 40.3344 29.5161 41.7031C31.4217 42.6601 33.5391 43.7173 35.6342 44.7633C36.1468 44.1068 36.4254 43.261 36.3474 42.3597C36.1914 40.4345 34.5086 39.0102 32.5919 39.1659Z" fill="#F94A3D"/>
<path d="M32.2838 116.076L21.8753 111.591C20.4043 110.957 19.7245 109.254 20.3597 107.774L23.3463 100.864L39.3603 107.763L36.4963 114.406C35.7942 116.031 33.8997 116.777 32.2838 116.076Z" fill="#212121"/>
<path d="M23.3351 100.908C23.9591 99.4506 28.0601 99.8178 32.4732 101.721C36.8973 103.624 39.962 106.35 39.3379 107.808C38.7138 109.265 34.6128 108.898 30.1998 106.995C25.7756 105.092 22.711 102.366 23.3351 100.908Z" fill="#F8F8EE"/>
<path d="M29.0629 103.045C29.2524 102.611 30.4782 102.722 31.8044 103.29C33.1305 103.857 34.0443 104.681 33.866 105.115C33.6766 105.549 32.4507 105.438 31.1246 104.87C29.7873 104.291 28.8735 103.479 29.0629 103.045Z" fill="#F94A3D"/>
<path opacity="0.11" d="M32.4066 103.034C32.3509 103.034 32.2952 102.989 32.2729 102.933C32.1949 102.655 32.0723 102.31 31.8049 102.121C31.6823 102.032 31.504 101.999 31.348 102.032C31.2588 102.054 31.1474 102.099 31.0694 102.221C31.0359 102.266 30.9802 102.299 30.9245 102.288C30.8688 102.277 30.8242 102.232 30.813 102.166C30.8019 102.032 30.7796 101.898 30.7239 101.798C30.6793 101.72 30.5902 101.654 30.5233 101.665C30.4564 101.676 30.3896 101.732 30.3116 101.854C30.189 102.032 30.0887 102.243 30.033 102.455C30.0107 102.533 29.9327 102.577 29.8658 102.555C29.7878 102.533 29.7432 102.466 29.7655 102.388C29.8212 102.143 29.9327 101.91 30.0775 101.698C30.1555 101.587 30.2893 101.431 30.4787 101.398C30.6682 101.364 30.8688 101.476 30.9691 101.665C31.0025 101.732 31.0248 101.798 31.0471 101.865C31.1139 101.821 31.2031 101.787 31.2922 101.765C31.5263 101.72 31.7714 101.765 31.9609 101.898C32.3063 102.132 32.4512 102.566 32.5404 102.867C32.5627 102.945 32.5181 103.022 32.4401 103.034C32.4289 103.034 32.4178 103.034 32.4066 103.034Z" fill="#212121"/>
<g opacity="0.11">
<path opacity="0.11" d="M27.7484 101.532C27.715 101.532 27.6704 101.521 27.637 101.51C27.4921 101.443 27.4253 101.276 27.481 101.131C27.5478 100.986 27.715 100.919 27.8599 100.986C27.9267 101.019 27.9825 101.075 28.0159 101.142C28.0493 101.209 28.0382 101.287 28.0159 101.365C27.9825 101.432 27.9267 101.487 27.8599 101.521C27.8264 101.521 27.793 101.532 27.7484 101.532Z" fill="#212121"/>
<path opacity="0.11" d="M25.5639 101.621C25.5305 101.621 25.4859 101.61 25.4525 101.599C25.3856 101.566 25.3299 101.51 25.2965 101.443C25.2631 101.376 25.2742 101.298 25.2965 101.22C25.3299 101.153 25.3856 101.098 25.4525 101.064C25.5194 101.031 25.6085 101.031 25.6754 101.064C25.7423 101.098 25.798 101.153 25.8314 101.22C25.8648 101.287 25.8537 101.365 25.8314 101.432C25.798 101.499 25.7423 101.554 25.6754 101.588C25.6308 101.61 25.5974 101.621 25.5639 101.621Z" fill="#212121"/>
<path opacity="0.11" d="M27.0798 102.867C27.024 102.867 26.9572 102.856 26.9015 102.833C26.6786 102.744 26.5783 102.488 26.6786 102.266C26.7789 102.043 27.0352 101.943 27.2469 102.043C27.4698 102.132 27.5701 102.388 27.4698 102.611C27.4252 102.722 27.3361 102.8 27.2358 102.844C27.1801 102.856 27.1355 102.867 27.0798 102.867ZM27.0798 102.288C27.024 102.288 26.9572 102.321 26.9349 102.377C26.9237 102.41 26.9237 102.455 26.9349 102.488C26.946 102.522 26.9795 102.555 27.024 102.577C27.0575 102.589 27.102 102.6 27.1466 102.577C27.1801 102.566 27.2135 102.533 27.2358 102.5C27.2692 102.422 27.2358 102.333 27.1578 102.299C27.1132 102.288 27.1021 102.288 27.0798 102.288Z" fill="#212121"/>
</g>
<g opacity="0.11">
<path opacity="0.11" d="M36.7305 106.451C36.6859 106.451 36.6524 106.439 36.619 106.428C36.5521 106.395 36.4964 106.339 36.463 106.272C36.4296 106.205 36.4407 106.127 36.463 106.049C36.4964 105.983 36.5521 105.927 36.619 105.893C36.6859 105.86 36.7639 105.871 36.8419 105.893C36.9088 105.927 36.9645 105.983 36.9979 106.049C37.0313 106.116 37.0202 106.194 36.9979 106.272C36.9645 106.339 36.9088 106.395 36.8419 106.428C36.7973 106.439 36.7639 106.451 36.7305 106.451Z" fill="#212121"/>
<path opacity="0.11" d="M34.5351 106.54C34.5017 106.54 34.4571 106.529 34.4237 106.518C34.3568 106.484 34.3011 106.428 34.2677 106.361C34.2342 106.295 34.2454 106.217 34.2677 106.139C34.3011 106.072 34.3568 106.016 34.4237 105.983C34.4906 105.949 34.5797 105.949 34.6466 105.983C34.7915 106.049 34.8583 106.217 34.8026 106.361C34.758 106.473 34.6466 106.54 34.5351 106.54Z" fill="#212121"/>
<path opacity="0.11" d="M36.0506 107.785C35.9948 107.785 35.9391 107.774 35.8834 107.752C35.6605 107.652 35.5602 107.407 35.6605 107.184C35.7051 107.073 35.7942 106.995 35.8945 106.951C36.006 106.906 36.1174 106.906 36.2289 106.951C36.3292 106.995 36.4183 107.084 36.4629 107.184C36.5075 107.296 36.5075 107.407 36.4629 107.518C36.3849 107.685 36.2177 107.785 36.0506 107.785ZM36.0506 107.195C35.9948 107.195 35.9391 107.229 35.9057 107.284C35.8722 107.362 35.9057 107.451 35.9837 107.485C36.0617 107.518 36.1508 107.485 36.1843 107.407C36.1954 107.373 36.2066 107.329 36.1843 107.284C36.1731 107.251 36.1397 107.218 36.1063 107.195C36.0951 107.207 36.0728 107.195 36.0506 107.195Z" fill="#212121"/>
</g>
<path d="M163.478 43.4357L128.129 30.4606C127.26 30.149 126.825 29.192 127.137 28.324C127.46 27.456 128.407 27.022 129.277 27.3336L164.626 40.3088C165.495 40.6204 165.929 41.5774 165.617 42.4453C165.305 43.3133 164.347 43.7473 163.478 43.4357Z" fill="#212121"/>
<path d="M164.079 40.1193L156.869 37.4709C156.724 37.4153 156.568 37.4041 156.434 37.4264L153.314 38.005C153.047 38.0495 152.746 37.9494 152.545 37.7491L149.926 35.0116C149.837 34.9226 149.726 34.8447 149.603 34.8002L129.811 27.5336C129.455 27.4001 129.243 27.0774 129.343 26.8103L129.967 25.13C130.068 24.8629 130.435 24.7517 130.792 24.8852L165.049 37.4598C165.405 37.5933 165.617 37.916 165.517 38.1831L164.904 39.8745C164.815 40.1416 164.436 40.2529 164.079 40.1193Z" fill="#FFD98B"/>
<path d="M161.326 45.1269L128.574 33.1087C128.14 32.9529 127.928 32.4744 128.084 32.0404L128.362 31.2726C128.518 30.8386 128.998 30.6272 129.432 30.783L162.185 42.8011C162.619 42.9569 162.831 43.4354 162.675 43.8694L162.396 44.6373C162.24 45.0601 161.761 45.2827 161.326 45.1269Z" fill="#F94A3D"/>
<path opacity="0.74" d="M162.363 43.6584L128.742 31.3176C128.552 31.2508 128.452 31.0394 128.519 30.8502C128.586 30.661 128.797 30.5609 128.987 30.6276L162.608 42.9685C162.798 43.0353 162.898 43.2467 162.831 43.4359C162.764 43.6251 162.553 43.7252 162.363 43.6584Z" fill="#EC6565"/>
<path d="M154.796 50.0346L130.547 41.0877C127.505 39.9638 125.699 37.2708 126.513 35.0564L127.516 32.2966L162.764 45.2941L161.762 48.0538C160.959 50.2794 157.839 51.1585 154.796 50.0346Z" fill="#FFAC79"/>
<path opacity="0.25" d="M162.776 45.3053L160.959 44.6376C159.889 46.4626 157.036 47.1303 154.239 46.0954L133.868 38.584C131.082 37.5602 129.332 35.19 129.689 33.1091L127.527 32.3079L126.524 35.0676C125.722 37.2709 127.527 39.975 130.558 41.0989L154.808 50.0458C157.85 51.1697 160.959 50.2795 161.773 48.0761L162.776 45.3053Z" fill="#F97762"/>
<path d="M166.498 38.3946L129.031 24.6404C131.706 17.3628 140.175 13.7685 147.943 16.6172L157.293 20.0446C165.06 22.9045 169.183 31.1058 166.498 38.3946Z" fill="#FFB6AF"/>
<path opacity="0.08" d="M166.498 38.3946L129.031 24.6404C131.706 17.3628 140.175 13.7685 147.943 16.6172L157.293 20.0446C165.06 22.9045 169.183 31.1058 166.498 38.3946Z" fill="#FFF6F7"/>
<path d="M166.498 38.3946L129.031 24.6404C131.706 17.3628 140.175 13.7685 147.943 16.6172L157.293 20.0446C165.06 22.9045 169.183 31.1058 166.498 38.3946Z" fill="#FFAC79"/>
<path opacity="0.25" d="M162.43 23.1382C162.452 23.1715 162.475 23.1938 162.497 23.2272C165.327 27.1553 161.271 32.3632 156.724 30.694L139.897 24.518C136.576 23.3051 136.119 18.7315 139.183 16.9733C140.287 16.339 141.513 15.8939 142.794 15.6379C136.743 15.5155 131.126 18.954 129.031 24.6293L166.498 38.3834C168.503 32.953 166.709 26.9884 162.43 23.1382Z" fill="#F97762"/>
<path d="M151.208 22.0142C151.018 22.0142 150.784 21.9808 150.561 21.914C150.316 21.8361 149.503 21.5579 149.648 21.0905C149.792 20.612 150.617 20.8123 150.862 20.8902C151.107 20.9681 151.921 21.2463 151.776 21.7137C151.731 21.8472 151.609 22.0142 151.23 22.0142C151.23 22.0142 151.219 22.0142 151.208 22.0142Z" fill="#F8F8EE"/>
<path d="M156.434 25.6977C156.244 25.6977 156.01 25.6643 155.787 25.5976C155.542 25.5197 154.729 25.2415 154.874 24.7741C154.918 24.6406 155.041 24.4736 155.42 24.4736C155.631 24.4848 155.843 24.507 156.088 24.5738C156.333 24.6517 157.147 24.9299 157.002 25.3973C156.958 25.5308 156.835 25.6977 156.456 25.6977C156.445 25.6977 156.434 25.6977 156.434 25.6977Z" fill="#F8F8EE"/>
<path d="M156.067 22.148C155.81 22.148 155.543 22.0812 155.42 22.0367C155.175 21.9588 154.362 21.6806 154.506 21.2133C154.529 21.1465 154.573 21.0463 154.696 20.9796C154.997 20.8126 155.554 20.9573 155.721 21.0129C155.966 21.0908 156.78 21.3579 156.635 21.8364C156.557 22.0701 156.323 22.148 156.067 22.148Z" fill="#F8F8EE"/>
<path d="M145.391 21.7026C145.201 21.7026 144.978 21.6692 144.744 21.6024C144.499 21.5245 143.697 21.2463 143.83 20.779C143.875 20.6454 143.998 20.4785 144.376 20.4785C144.577 20.4896 144.8 20.5119 145.045 20.5787C145.29 20.6566 146.104 20.9348 145.959 21.4021C145.914 21.5357 145.792 21.7026 145.413 21.7026C145.413 21.7026 145.402 21.7026 145.391 21.7026Z" fill="#F8F8EE"/>
<path d="M146.873 18.6649C146.683 18.6649 146.449 18.6316 146.226 18.5648C145.981 18.4869 145.168 18.2087 145.313 17.7413C145.335 17.6746 145.379 17.5744 145.502 17.5076C145.803 17.3407 146.36 17.4854 146.527 17.541C146.772 17.6189 147.586 17.8971 147.441 18.3645C147.397 18.498 147.274 18.6649 146.895 18.6649C146.884 18.6649 146.884 18.6649 146.873 18.6649Z" fill="#F8F8EE"/>
<path d="M164.842 74.6463L151.314 79.6205C149.987 80.1101 148.505 79.4202 148.015 78.0959L147.012 75.3696C146.522 74.0454 147.213 72.5654 148.539 72.0757L162.068 67.1015C163.394 66.6119 164.876 67.3018 165.366 68.6261L166.369 71.3524C166.859 72.6766 166.169 74.1567 164.842 74.6463Z" fill="#F2F2F2"/>
<path opacity="0.11" d="M151.358 76.8274C151.336 76.8274 151.313 76.8274 151.302 76.8163C151.068 76.705 150.756 76.4713 150.634 76.2042C150.556 76.0484 150.556 75.8481 150.634 75.7035C150.689 75.5811 150.779 75.5032 150.901 75.4698C150.99 75.4475 151.079 75.4587 151.169 75.4809C151.169 75.4364 151.169 75.3808 151.18 75.3363C151.235 75.0358 151.559 74.88 151.826 74.9134C152.004 74.9245 152.138 75.0024 152.272 75.0692C152.394 75.1248 152.506 75.1805 152.617 75.1916C152.695 75.2027 152.751 75.2695 152.74 75.3474C152.729 75.4253 152.662 75.4809 152.584 75.4698C152.406 75.4587 152.272 75.3808 152.138 75.314C152.016 75.2584 151.904 75.2027 151.793 75.1916C151.648 75.1805 151.481 75.2584 151.447 75.3919C151.436 75.4809 151.47 75.6145 151.536 75.7369C151.57 75.7925 151.559 75.8704 151.503 75.9149C151.447 75.9594 151.369 75.9483 151.325 75.9038C151.224 75.8036 151.068 75.7146 150.979 75.7369C150.946 75.748 150.912 75.7702 150.89 75.8148C150.857 75.8926 150.857 76.0039 150.89 76.093C150.979 76.2821 151.235 76.4824 151.425 76.5715C151.492 76.6048 151.525 76.6827 151.492 76.7606C151.458 76.794 151.414 76.8274 151.358 76.8274Z" fill="#212121"/>
<path opacity="0.11" d="M150.745 78.3854C150.723 78.3854 150.712 78.3854 150.69 78.3742C150.489 78.2852 150.311 78.1406 150.199 77.9514C150.11 77.8178 150.088 77.6843 150.11 77.573C150.155 77.3616 150.366 77.2503 150.567 77.2726C150.734 77.2837 150.879 77.3727 150.99 77.4506C151.057 77.4951 151.08 77.573 151.035 77.6398C150.99 77.7066 150.912 77.7288 150.846 77.6843C150.734 77.6175 150.634 77.5619 150.545 77.5508C150.467 77.5508 150.4 77.5842 150.389 77.6398C150.378 77.6843 150.4 77.74 150.444 77.8067C150.534 77.9514 150.667 78.0627 150.812 78.1183C150.879 78.1517 150.912 78.2296 150.89 78.2963C150.857 78.352 150.801 78.3854 150.745 78.3854Z" fill="#212121"/>
<path opacity="0.11" d="M155.727 73.7785C155.704 73.7785 155.682 73.7674 155.66 73.7563C155.481 73.645 155.37 73.4336 155.403 73.2221C155.437 73.0107 155.615 72.8326 155.816 72.8104C155.949 72.7881 156.083 72.8215 156.25 72.9105C156.429 73.0107 156.596 73.1442 156.73 73.3111C156.774 73.3668 156.763 73.4558 156.707 73.5115C156.652 73.556 156.562 73.5448 156.507 73.4892C156.406 73.3557 156.261 73.2444 156.117 73.1554C156.016 73.0997 155.916 73.0775 155.86 73.0886C155.771 73.0997 155.693 73.1776 155.682 73.2666C155.671 73.3557 155.715 73.4669 155.805 73.5226C155.871 73.556 155.894 73.645 155.86 73.7118C155.816 73.7563 155.771 73.7785 155.727 73.7785Z" fill="#212121"/>
<path opacity="0.11" d="M156.618 76.1377C156.574 76.1377 156.529 76.1154 156.507 76.0709C156.373 75.8706 156.262 75.6592 156.161 75.4366C156.061 75.2029 156.128 75.0694 156.195 75.0138C156.262 74.947 156.351 74.9359 156.418 74.9359C156.507 74.9359 156.585 74.9359 156.674 74.947C156.663 74.7801 156.708 74.6243 156.819 74.513C156.997 74.3461 157.276 74.3016 157.588 74.3795C157.677 74.4017 157.766 74.4351 157.844 74.4574C157.978 74.5019 158.101 74.5464 158.223 74.5575C158.301 74.5686 158.357 74.6354 158.346 74.7133C158.335 74.7912 158.268 74.8468 158.19 74.8357C158.034 74.8134 157.889 74.7689 157.755 74.7244C157.677 74.7022 157.599 74.6688 157.521 74.6465C157.421 74.6243 157.153 74.5686 157.008 74.7133C156.953 74.7578 156.93 74.858 156.953 74.947C156.964 74.9692 156.975 75.0138 157.008 75.0471C157.02 75.0583 157.042 75.0583 157.053 75.0694C157.12 75.1028 157.142 75.1807 157.12 75.2474C157.086 75.3142 157.02 75.3476 156.942 75.3253C156.919 75.3142 156.897 75.3031 156.875 75.292C156.73 75.2252 156.585 75.1918 156.429 75.2141C156.396 75.2141 156.384 75.2252 156.384 75.2252C156.384 75.2252 156.384 75.2586 156.418 75.3365C156.507 75.5479 156.618 75.7482 156.741 75.9262C156.786 75.993 156.763 76.082 156.696 76.1154C156.674 76.1265 156.652 76.1377 156.618 76.1377Z" fill="#212121"/>
<path opacity="0.11" d="M161.053 72.354C161.009 72.354 160.953 72.3317 160.931 72.2872C160.808 72.0758 160.73 71.8421 160.697 71.5973C160.674 71.4638 160.663 71.2746 160.775 71.1188C160.886 70.9741 161.098 70.9185 161.298 70.9853C161.365 71.0075 161.432 71.0409 161.488 71.0743C161.51 70.9964 161.544 70.9185 161.588 70.8517C161.722 70.6625 161.923 70.5401 162.145 70.4956C162.547 70.4289 162.937 70.6292 163.182 70.7849C163.249 70.8295 163.271 70.9074 163.226 70.9741C163.182 71.0409 163.104 71.0631 163.037 71.0186C162.814 70.8851 162.48 70.7182 162.179 70.7627C162.034 70.785 161.889 70.874 161.811 70.9964C161.766 71.0631 161.711 71.1744 161.744 71.2968C161.755 71.3525 161.733 71.4192 161.677 71.4415C161.633 71.4749 161.566 71.4638 161.521 71.4304C161.421 71.3525 161.321 71.2635 161.22 71.2301C161.142 71.2078 161.042 71.2078 160.998 71.2746C160.964 71.3191 160.953 71.4081 160.975 71.5416C161.009 71.7531 161.076 71.9534 161.176 72.1426C161.209 72.2093 161.187 72.2983 161.12 72.3317C161.109 72.3429 161.076 72.354 161.053 72.354Z" fill="#212121"/>
<path opacity="0.11" d="M163.071 73.5113C163.037 73.5113 162.993 73.5002 162.97 73.4668C162.814 73.2999 162.703 73.0884 162.647 72.8547C162.591 72.6211 162.647 72.4319 162.803 72.354C162.892 72.3095 162.981 72.3206 163.059 72.3317C163.36 72.3762 163.65 72.5098 163.895 72.699C163.951 72.7435 163.962 72.8325 163.917 72.8993C163.873 72.9549 163.784 72.966 163.717 72.9215C163.505 72.7546 163.26 72.6544 163.015 72.6099C162.97 72.5988 162.937 72.5988 162.926 72.6099C162.903 72.6211 162.892 72.699 162.914 72.7991C162.959 72.9772 163.048 73.1441 163.171 73.2887C163.227 73.3444 163.215 73.4334 163.16 73.489C163.137 73.5002 163.104 73.5113 163.071 73.5113Z" fill="#212121"/>
<path d="M164.408 68.6482L147.77 74.7574C146.444 75.2471 144.961 74.5571 144.471 73.2329L143.936 71.7752C143.446 70.4509 144.137 68.9709 145.463 68.4813L162.101 62.3721C163.427 61.8824 164.909 62.5724 165.4 63.8966L165.935 65.3543C166.414 66.6786 165.723 68.1586 164.408 68.6482Z" fill="#FF7664"/>
<path opacity="0.3" d="M147.278 67.8164L145.751 68.3772L148.059 74.6433L149.586 74.0825L147.278 67.8164Z" fill="#F94A3D"/>
<path opacity="0.3" d="M151.933 66.1013L150.406 66.6621L152.714 72.9282L154.241 72.3674L151.933 66.1013Z" fill="#F94A3D"/>
<path opacity="0.3" d="M156.837 64.2995L155.31 64.8604L157.618 71.1265L159.145 70.5656L156.837 64.2995Z" fill="#F94A3D"/>
<path opacity="0.3" d="M161.638 62.5297L160.111 63.0906L162.419 69.3567L163.946 68.7959L161.638 62.5297Z" fill="#F94A3D"/>
<path d="M165.333 102.967L153.688 92.8627C153.153 92.3954 152.339 92.451 151.882 92.9851C151.414 93.5193 151.47 94.3316 152.005 94.7879L163.65 104.892C164.185 105.359 164.999 105.304 165.456 104.77C165.924 104.247 165.868 103.434 165.333 102.967Z" fill="#FFBF00"/>
<path d="M143.736 125.701L134.319 117.522C133.684 116.965 133.595 115.986 134.141 115.274L149.664 94.7429C150.255 93.9529 151.369 93.8082 152.083 94.4202L164.174 104.914C164.887 105.526 164.887 106.65 164.196 107.351L145.998 125.567C145.363 126.202 144.382 126.257 143.736 125.701Z" fill="#FFBF00"/>
<path d="M145.162 100.697L139.111 108.698L151.826 119.726L158.914 112.637L145.162 100.697Z" fill="#F2F2F2"/>
<path d="M163.093 108.252L148.873 95.9116C148.327 95.4331 148.272 94.6096 148.74 94.0643L149.709 92.9515C150.188 92.4063 151.013 92.3506 151.559 92.818L165.779 105.159C166.325 105.637 166.381 106.461 165.913 107.006L164.943 108.119C164.464 108.675 163.639 108.731 163.093 108.252Z" fill="#212121"/>
<path d="M151.202 112.214C150.01 113.583 147.993 113.772 146.689 112.648C145.385 111.513 145.296 109.488 146.488 108.119C147.681 106.75 149.698 106.561 151.002 107.685C152.306 108.809 152.395 110.834 151.202 112.214Z" fill="#212121"/>
<path d="M15.4009 53.8702C15.4009 54.3487 15.0109 54.7382 14.5205 54.7382C14.0413 54.7382 13.6401 54.3487 13.6401 53.8702C13.6401 53.3917 14.0302 53.0022 14.5205 53.0022C15.0109 53.0022 15.4009 53.3917 15.4009 53.8702Z" fill="#FFBF00"/>
<path d="M48.6992 3.19391C48.6992 3.67241 48.3092 4.06188 47.8189 4.06188C47.3397 4.06188 46.9385 3.67241 46.9385 3.19391C46.9385 2.7154 47.3285 2.32593 47.8189 2.32593C48.3092 2.33706 48.6992 2.72653 48.6992 3.19391Z" fill="#FFBF00"/>
<path d="M25.0405 128.238C25.0405 128.717 24.6505 129.106 24.1602 129.106C23.681 129.106 23.2798 128.717 23.2798 128.238C23.2798 127.76 23.6698 127.381 24.1602 127.381C24.6505 127.381 25.0405 127.771 25.0405 128.238Z" fill="#FFBF00"/>
<path d="M138.386 130.775C138.386 131.254 137.996 131.632 137.506 131.632C137.027 131.632 136.625 131.243 136.625 130.775C136.625 130.297 137.016 129.907 137.506 129.907C137.996 129.907 138.386 130.297 138.386 130.775Z" fill="#FFBF00"/>
<path d="M181.626 131.354C181.626 131.832 181.235 132.222 180.745 132.222C180.266 132.222 179.865 131.832 179.865 131.354C179.865 130.875 180.255 130.497 180.745 130.497C181.224 130.486 181.626 130.875 181.626 131.354Z" fill="#FFBF00"/>
<path d="M127.967 6.51007C127.967 6.98857 127.577 7.36692 127.086 7.36692C126.596 7.36692 126.206 6.97744 126.206 6.51007C126.206 6.03157 126.596 5.64209 127.086 5.64209C127.577 5.64209 127.967 6.03157 127.967 6.51007Z" fill="#FFBF00"/>
<path d="M8.61427 0.867977C8.61427 1.34648 8.22423 1.73595 7.7339 1.73595C7.2547 1.73595 6.85352 1.34648 6.85352 0.867977C6.85352 0.389476 7.24356 0 7.7339 0C8.22423 0 8.61427 0.389476 8.61427 0.867977Z" fill="#FFBF00"/>
<path d="M172.855 87.5992C172.855 88.0777 172.464 88.456 171.974 88.456C171.495 88.456 171.094 88.0666 171.094 87.5992C171.094 87.1207 171.484 86.7312 171.974 86.7312C172.464 86.7312 172.855 87.1207 172.855 87.5992Z" fill="#FFBF00"/>
<path d="M143.647 55.2724C143.647 55.5061 143.446 55.7064 143.212 55.7064C142.967 55.7064 142.777 55.5172 142.777 55.2724C142.777 55.0387 142.978 54.8384 143.212 54.8384C143.446 54.8384 143.647 55.0387 143.647 55.2724Z" fill="#FFBF00"/>
<path d="M188 62.1271C188 62.3608 187.8 62.5611 187.565 62.5611C187.32 62.5611 187.131 62.3719 187.131 62.1271C187.131 61.8934 187.331 61.6931 187.565 61.6931C187.8 61.6931 188 61.8823 188 62.1271Z" fill="#FFBF00"/>
<path d="M178.215 39.3707C178.215 39.8492 177.825 40.2386 177.334 40.2386C176.855 40.2386 176.454 39.8492 176.454 39.3707C176.454 38.8922 176.844 38.5027 177.334 38.5027C177.825 38.5027 178.215 38.8922 178.215 39.3707Z" fill="#FFBF00"/>
<path d="M54.7392 65.1095C54.7392 65.4545 54.4606 65.7327 54.104 65.7327C53.7585 65.7327 53.4688 65.4545 53.4688 65.1095C53.4688 64.7645 53.7473 64.4863 54.104 64.4863C54.4606 64.4863 54.7392 64.7645 54.7392 65.1095Z" fill="#FFBF00"/>
<path d="M17.9306 88.7674C17.9306 89.1124 17.652 89.3906 17.2954 89.3906C16.9499 89.3906 16.6602 89.1124 16.6602 88.7674C16.6602 88.4225 16.9388 88.1443 17.2954 88.1443C17.652 88.1443 17.9306 88.4225 17.9306 88.7674Z" fill="#FFBF00"/>
<path d="M110.181 66.5896C110.303 66.6342 110.448 66.6899 110.604 66.7456C110.448 66.6788 110.303 66.6342 110.181 66.5896Z" fill="#FFAC79"/>
<path d="M118.895 73.1108C118.973 73.1888 119.04 73.2669 119.118 73.356C119.051 73.2669 118.973 73.1888 118.895 73.1108Z" fill="#FFAC79"/>
<path d="M116.644 70.863C116.677 70.8965 116.722 70.9299 116.755 70.9633C116.711 70.9299 116.677 70.8965 116.644 70.863Z" fill="#FFAC79"/>
<path d="M121.47 76.093C121.548 76.1933 121.637 76.2936 121.715 76.405C121.637 76.3048 121.548 76.1933 121.47 76.093Z" fill="#FFAC79"/>
<path d="M118.159 72.3315C118.226 72.3984 118.293 72.4764 118.36 72.5433C118.293 72.4653 118.226 72.3984 118.159 72.3315Z" fill="#FFAC79"/>
<path d="M117.458 71.6194C117.491 71.6528 117.525 71.6863 117.547 71.7085C117.514 71.6863 117.48 71.6528 117.458 71.6194Z" fill="#FFAC79"/>
<path d="M120.678 75.1248C120.711 75.1582 120.745 75.2028 120.767 75.2362C120.733 75.2028 120.711 75.1582 120.678 75.1248Z" fill="#FFAC79"/>
<path d="M126.061 82.5693C126.161 82.7365 126.273 82.8925 126.373 83.0597C126.262 82.8925 126.161 82.7254 126.061 82.5693Z" fill="#FFAC79"/>
<path d="M127.008 84.0938C127.097 84.2498 127.198 84.3946 127.287 84.5507C127.198 84.3946 127.097 84.2498 127.008 84.0938Z" fill="#FFAC79"/>
<path d="M125.158 81.1787C125.247 81.3236 125.347 81.4685 125.436 81.6022C125.336 81.4573 125.247 81.3124 125.158 81.1787Z" fill="#FFAC79"/>
<path d="M122.294 77.1614C122.383 77.284 122.472 77.3954 122.573 77.518C122.483 77.3954 122.394 77.2728 122.294 77.1614Z" fill="#FFAC79"/>
<path d="M123.186 78.3411C123.264 78.4525 123.342 78.5528 123.42 78.6642C123.342 78.5528 123.264 78.4525 123.186 78.3411Z" fill="#FFAC79"/>
<path d="M124.277 79.8875C124.3 79.932 124.333 79.9655 124.355 80.01C124.333 79.9655 124.311 79.9209 124.277 79.8875Z" fill="#FFAC79"/>
<path d="M119.72 74.0117C119.775 74.0786 119.831 74.1343 119.887 74.2012C119.831 74.1343 119.775 74.0786 119.72 74.0117Z" fill="#FFAC79"/>
<path d="M113.39 68.27C113.446 68.3035 113.502 68.348 113.557 68.3815C113.502 68.348 113.446 68.3146 113.39 68.27Z" fill="#FFAC79"/>
<path d="M112.398 67.6467C112.443 67.669 112.488 67.7024 112.532 67.7247C112.488 67.7024 112.443 67.669 112.398 67.6467Z" fill="#FFAC79"/>
<path d="M112.866 67.936C112.922 67.9695 112.978 68.0029 113.033 68.0475C112.978 68.0029 112.922 67.9695 112.866 67.936Z" fill="#FFAC79"/>
<path d="M111.841 67.3352C111.885 67.3575 111.919 67.3798 111.963 67.4021C111.919 67.3798 111.885 67.3575 111.841 67.3352Z" fill="#FFAC79"/>
<path d="M111.384 67.1013C111.44 67.1348 111.496 67.157 111.551 67.1905C111.507 67.157 111.451 67.1348 111.384 67.1013Z" fill="#FFAC79"/>
<path d="M110.682 66.7786C110.737 66.8009 110.804 66.8343 110.86 66.8566C110.804 66.8343 110.737 66.8009 110.682 66.7786Z" fill="#FFAC79"/>
<path d="M111.017 66.9233C111.072 66.9456 111.139 66.9791 111.195 67.0014C111.128 66.9791 111.072 66.9568 111.017 66.9233Z" fill="#FFAC79"/>
<path d="M114.003 68.6929C114.036 68.7152 114.07 68.7374 114.103 68.7597C114.059 68.7374 114.036 68.7263 114.003 68.6929Z" fill="#FFAC79"/>
<path d="M116.533 81.0338L120.946 92.7515C124.367 90.1253 128.223 86.1081 128.223 86.1081C127.911 85.574 127.599 85.0509 127.298 84.5391C127.209 84.3833 127.108 84.2275 127.019 84.0828C126.807 83.7267 126.596 83.3818 126.384 83.0479C126.284 82.881 126.172 82.7141 126.072 82.5583C125.86 82.2356 125.66 81.9129 125.448 81.6013C125.359 81.4566 125.258 81.312 125.169 81.1784C124.902 80.7778 124.634 80.3883 124.378 80.01C124.356 79.9655 124.322 79.9321 124.3 79.8876C124.01 79.4647 123.721 79.0641 123.442 78.6635C123.364 78.5522 123.286 78.4521 123.208 78.3408C123.007 78.0626 122.796 77.7844 122.595 77.5173C122.506 77.3949 122.417 77.2725 122.316 77.1612C122.116 76.9053 121.926 76.6494 121.737 76.4045C121.659 76.3044 121.57 76.1931 121.492 76.093C121.258 75.7925 121.024 75.5143 120.79 75.2361C120.756 75.2027 120.723 75.1582 120.7 75.1248C120.433 74.8021 120.166 74.5017 119.909 74.2012C119.854 74.1344 119.798 74.0788 119.742 74.012C119.542 73.7895 119.341 73.5669 119.151 73.3555C119.073 73.2776 119.007 73.1997 118.929 73.1107C118.75 72.9215 118.572 72.7323 118.394 72.5431C118.327 72.4764 118.26 72.3985 118.193 72.3317C117.981 72.1203 117.781 71.92 117.58 71.7197C117.547 71.6863 117.513 71.6529 117.491 71.6307C117.257 71.397 117.023 71.1855 116.789 70.9741C116.756 70.9407 116.711 70.9073 116.677 70.874C116.488 70.707 116.31 70.5401 116.131 70.3843C116.065 70.3287 116.009 70.273 115.953 70.2285C115.797 70.095 115.641 69.9615 115.485 69.8391C115.429 69.7945 115.363 69.7389 115.307 69.6944C115.14 69.5609 114.972 69.4273 114.816 69.3049C114.783 69.2715 114.738 69.2493 114.705 69.2159C114.504 69.0601 114.315 68.9154 114.126 68.7819C114.092 68.7596 114.059 68.7374 114.025 68.7151C113.869 68.6039 113.724 68.5037 113.579 68.4035C113.524 68.359 113.468 68.3257 113.412 68.2923C113.29 68.2144 113.178 68.1365 113.067 68.0586C113.011 68.0252 112.955 67.9918 112.9 67.9473C112.788 67.8694 112.666 67.8026 112.565 67.7359C112.521 67.7136 112.476 67.6802 112.432 67.658C112.287 67.569 112.142 67.4911 112.008 67.4132C111.964 67.3909 111.93 67.3687 111.886 67.3464C111.785 67.2908 111.696 67.2462 111.607 67.2017C111.551 67.1683 111.496 67.1461 111.44 67.1127C111.373 67.0793 111.306 67.0459 111.239 67.0126C111.183 66.9792 111.117 66.9569 111.061 66.9347C111.005 66.9124 110.961 66.8902 110.905 66.8679C110.849 66.8456 110.782 66.8123 110.727 66.79C110.693 66.7789 110.671 66.7677 110.649 66.7566C110.493 66.6899 110.359 66.6453 110.225 66.6008C114.304 69.049 116.466 73.5447 116.533 81.0338Z" fill="#E6AC00"/>
<path d="M123.609 99.851L120.935 92.7625L116.522 81.0448C116.5 78.7079 116.277 76.6604 115.853 74.8688C114.917 70.9406 113.011 68.281 110.17 66.5896C107.116 64.7646 102.982 64.0524 97.811 64.0969L71.277 64.3084C68.3238 64.3306 65.5936 65.3321 63.3536 67.0347C61.3922 68.5147 59.8209 70.54 58.7957 72.888L43.7067 98.3264C42.726 99.9734 43.5952 102.099 45.4451 102.6L56.5669 105.615L58.0268 146.855L117.023 146.844L118.985 117.633L120.523 115.263L122.272 112.581C124.69 108.853 125.203 104.068 123.609 99.851Z" fill="#FFBF00"/>
<path opacity="0.27" d="M74.8877 93.6528L75.8127 114.729L69.416 109.454L74.8877 93.6528Z" fill="#353535"/>
<path d="M125.861 54.1263C125.214 51.8785 123.799 50.098 122.25 48.3954C123.554 45.2796 123.743 40.6726 120.389 36.533L116.243 32.2599C116.243 31.2139 116.232 30.1679 116.143 29.1107C116.032 27.8532 115.786 26.618 115.441 25.4051L114.761 21.0207C113.301 11.5953 106.481 5.11888 94.8022 6.91047L93.4204 7.05514C92.2391 6.7992 91.0467 6.62115 89.8431 6.56551C87.0014 6.45423 84.0928 6.9995 81.6634 8.45726C79.9806 9.4699 78.5988 10.8498 77.4398 12.4077C75.4673 9.1138 71.8789 6.88822 67.7445 6.88822C61.515 6.88822 56.4556 11.9292 56.4556 18.1608C56.4556 23.6469 60.3783 28.2093 65.5825 29.222C63.5209 30.8689 61.4815 32.5604 60.2334 34.9195C58.6621 37.9018 58.272 41.5295 59.3976 44.7232C60.2111 47.0267 61.7378 49.3302 61.1472 51.6893C60.8129 53.0135 59.8545 54.0818 59.0967 55.2168C58.3389 56.3519 57.7483 57.7985 58.2386 59.0671C58.8961 60.7585 61.0358 61.237 62.8523 61.3595C65.5825 61.5375 68.324 61.4596 71.0543 61.3706C80.1924 61.0813 89.3193 60.7585 98.4352 60.2689C100.831 62.7059 109.914 66.0777 109.914 66.0777L115.831 64.9093C118.216 64.7312 117.347 62.1273 117.157 59.0115C119.141 58.8445 121.124 58.6665 123.108 58.4773C123.743 58.4106 124.412 58.3438 124.947 57.9988C126.173 57.2755 126.262 55.5062 125.861 54.1263Z" fill="#212121"/>
<path d="M110.159 27.2857C109.289 27.397 108.42 27.1077 107.829 26.5179L105.812 24.4592C105.088 24.5705 105.768 27.9423 105.055 27.9979C99.6052 28.3874 94.5012 27.052 90.6008 24.4926C90.2553 29.7561 87.8482 33.8623 84.3936 34.3408L80.1811 35.0975L77.8409 35.3646C74.6314 35.7318 72.3023 38.6585 72.67 41.8633C73.0378 45.0682 75.9687 47.3939 79.1782 47.0267L79.3342 47.0044V68.4034C79.3342 73.2552 83.3126 77.2168 88.1603 77.2168H91.9381C96.7969 77.2168 100.764 73.2441 100.764 68.4034V61.404C108.03 60.28 113.179 53.6255 112.332 46.27L110.159 27.2857Z" fill="#FFAC79"/>
<path opacity="0.32" d="M101.121 59.4678L98.0563 59.8238C90.5675 60.6807 83.8031 55.3059 82.945 47.8279L82.8001 46.615L81.5186 46.7597L81.864 49.7531C82.2206 52.8466 83.5802 55.5619 85.575 57.6539C84.9955 61.6933 87.7035 65.5102 91.7488 66.2447C95.4263 66.9123 98.959 64.8425 100.252 61.4819C105.768 60.8365 110.136 57.0085 111.752 52.0566C109.746 56.007 105.857 58.9225 101.121 59.4678Z" fill="#FF755F"/>
<path d="M76.7042 43.2654C76.5259 43.2654 76.3476 43.1764 76.2361 43.0206C76.069 42.7646 76.1358 42.4196 76.3922 42.2527L78.0303 41.1511L76.0913 39.0479C75.8795 38.8253 75.9018 38.4692 76.1247 38.2578C76.3476 38.0464 76.7042 38.0686 76.9159 38.2912L79.3008 40.8729C79.4122 40.9953 79.4679 41.1511 79.4456 41.318C79.4233 41.4849 79.3342 41.6184 79.2005 41.7186L77.0162 43.1764C76.9159 43.2431 76.8045 43.2654 76.7042 43.2654Z" fill="#FF755F"/>
<path d="M100.196 57.9654C100.051 57.9654 99.9058 57.9098 99.7944 57.7985C98.5574 56.541 96.9192 57.2866 96.8524 57.32C96.5738 57.4535 96.2394 57.3311 96.1057 57.0529C95.972 56.7747 96.0834 56.4409 96.362 56.3073C96.4623 56.2628 98.7803 55.1723 100.586 57.0084C100.797 57.231 100.797 57.5759 100.574 57.7985C100.485 57.9098 100.34 57.9654 100.196 57.9654Z" fill="#FF755F"/>
<path d="M100.318 44.0666C100.095 44.0666 99.9169 43.8997 99.9058 43.6771C99.8947 43.4434 100.062 43.2431 100.296 43.232L101.979 43.1207C102.915 43.0539 103.784 42.6978 104.408 42.0969C105.01 41.5183 105.322 40.7838 105.266 40.0383C105.255 39.8714 105.155 39.7489 105.077 39.6711C104.909 39.5264 104.675 39.4596 104.408 39.4596C103.238 39.5375 102.213 38.7919 102.09 37.7682L101.533 33.1167C101.499 32.883 101.667 32.6827 101.901 32.6493C102.135 32.6271 102.335 32.7829 102.369 33.0165L102.926 37.668C102.993 38.2467 103.65 38.6695 104.363 38.625C104.82 38.5916 105.3 38.7474 105.634 39.0368C105.912 39.2816 106.091 39.6154 106.113 39.9715C106.18 40.973 105.779 41.9411 104.999 42.6867C104.23 43.4212 103.182 43.8663 102.045 43.9442L100.363 44.0555C100.329 44.0666 100.318 44.0666 100.318 44.0666Z" fill="#FF755F"/>
<path d="M95.9609 29.8564C95.5151 29.7673 95.0025 29.9231 94.501 30.0455C93.9995 30.1791 93.4869 30.3015 93.0412 30.4016C92.5954 30.4907 92.0716 30.5797 91.559 30.6576C91.0464 30.7466 90.5115 30.8022 90.1437 31.0582C89.7871 31.303 89.7314 31.8037 90.3109 32.2822C90.8569 32.7496 92.1051 33.128 93.5872 32.8275C95.0694 32.5159 96.05 31.6813 96.3398 31.0359C96.6518 30.3682 96.3844 29.9454 95.9609 29.8564Z" fill="#212121"/>
<path d="M106.012 31.2139C106.358 31.0358 106.815 31.0358 107.261 31.0136C107.718 31.0024 108.163 30.9802 108.553 30.9468C108.943 30.9134 109.4 30.8578 109.846 30.791C110.292 30.7354 110.749 30.6575 111.116 30.7799C111.462 30.8911 111.64 31.2917 111.284 31.8259C110.949 32.3489 110.013 32.9609 108.709 33.0833C107.405 33.1946 106.391 32.7384 105.99 32.2821C105.567 31.8036 105.689 31.3808 106.012 31.2139Z" fill="#212121"/>
<path d="M80.0031 44.5341C80.0142 45.2797 79.4236 45.8917 78.6769 45.914C77.9303 45.9251 77.3174 45.3353 77.2951 44.5897C77.2839 43.8442 77.8746 43.2321 78.6212 43.2099C79.3679 43.1987 79.9808 43.7885 80.0031 44.5341Z" fill="white"/>
<path d="M100.341 48.8628C98.1677 48.8628 96.6521 48.3731 95.8163 47.405C94.8913 46.3256 95.1811 45.0793 95.1922 45.0348C95.2479 44.8233 95.4485 44.7009 95.6603 44.7566C95.872 44.8122 95.9946 45.0125 95.9389 45.2239C95.9277 45.2684 95.7271 46.1476 96.4069 46.9154C97.0087 47.6053 98.4574 48.3509 101.979 48.0059C102.191 47.9948 102.38 48.1395 102.402 48.3509C102.425 48.5623 102.269 48.7515 102.057 48.7737C101.433 48.8405 100.865 48.8628 100.341 48.8628Z" fill="#FF755F"/>
<path d="M112.398 37.0115C112.198 35.9098 111.529 34.2851 109.423 34.0626C109.077 34.0292 108.754 34.0514 108.453 34.1071C107.072 34.3853 106.191 35.5648 105.679 36.5663C105.433 37.0448 105.534 37.6012 105.857 37.9685C106.002 36.9558 106.86 36.1546 107.952 36.0878C109.189 36.0099 110.259 36.9224 110.326 38.1243C110.326 38.2133 110.314 38.3134 110.314 38.4025C110.939 38.3357 111.462 38.2578 111.841 38.191C112.231 38.1131 112.499 37.7348 112.443 37.323C112.432 37.2229 112.421 37.1116 112.398 37.0115Z" fill="white"/>
<path d="M107.952 36.0879C106.86 36.1547 105.991 36.9559 105.857 37.9685C106.024 38.1688 106.258 38.3135 106.537 38.358C107.896 38.5583 109.245 38.5138 110.315 38.4025C110.326 38.3135 110.337 38.2245 110.326 38.1243C110.248 36.9336 109.189 36.0211 107.952 36.0879Z" fill="#212121"/>
<path d="M99.5386 37.9465C99.3157 36.5667 98.5245 34.5414 95.7719 34.1853C95.315 34.1296 94.8915 34.1408 94.5015 34.2075C92.6738 34.4969 91.4592 35.9212 90.7459 37.1453C90.2222 38.0467 90.7571 39.2151 91.7823 39.382C92.0498 39.4265 92.3061 39.4599 92.5736 39.4933C92.5178 39.3041 92.4844 39.1038 92.4844 38.9035C92.451 37.4235 93.7437 36.1883 95.3707 36.1549C96.9977 36.1104 98.3573 37.2788 98.3907 38.7589C98.4019 38.9925 98.3573 39.2262 98.3016 39.4488C98.4688 39.4265 98.6248 39.4043 98.7585 39.3932C99.2711 39.3153 99.65 38.859 99.5943 38.336C99.5832 38.2136 99.5609 38.0801 99.5386 37.9465Z" fill="white"/>
<path d="M95.3708 36.1438C93.7438 36.1883 92.4511 37.4124 92.4845 38.8924C92.4845 39.0927 92.5291 39.293 92.5737 39.4821C94.8248 39.7603 96.9756 39.6046 98.2906 39.4376C98.3463 39.2151 98.3909 38.9925 98.3797 38.7477C98.3463 37.2788 96.9979 36.1104 95.3708 36.1438Z" fill="#212121"/>
<path d="M149.586 105.493L146.02 91.8832L136.169 58.2658C136.124 58.11 136.08 57.9431 136.035 57.7873L135.768 56.8748L135.723 56.897C134.642 54.1262 132.67 51.7225 130.028 50.1424L122.384 45.5354L118.505 43.7327C117.358 43.1985 114.304 41.9077 113.156 43.8217C112.443 45.7357 115.162 46.8708 116.176 47.3604L121.648 49.9866C121.648 49.9866 118.951 49.6639 116.956 50.8434C115.508 51.7003 114.817 53.4251 115.173 55.072L115.307 55.673L115.508 55.5283C116.722 54.6492 118.216 54.2152 119.709 54.3265L121.425 54.4489C121.425 54.4489 115.485 54.026 114.839 56.8748C114.182 59.7235 115.463 59.8237 115.463 59.8237C115.463 59.8237 118.427 58.0877 120.968 59.4119C120.968 59.4119 113.045 58.3103 113.557 62.9395C113.881 65.8105 117.146 67.502 119.586 68.3811L123.855 90.3253C122.918 91.1711 121.916 92.0168 120.946 92.7624L123.621 99.8508C125.203 104.068 124.702 108.853 122.272 112.581L120.522 115.263L135.054 118.546C135.489 118.679 135.935 118.768 136.38 118.846L137.283 119.047L137.317 118.958C139.088 119.091 140.916 118.779 142.655 117.978C147.725 116.087 150.667 110.79 149.586 105.493ZM121.436 65.1873L121.169 65.3431L120.422 64.4195L121.436 65.1873Z" fill="#FFAC79"/>
<path opacity="0.51" d="M120.756 74.4682L129.27 69.5719L119.687 68.6816" fill="#FF8970"/>
<path d="M122.205 60.3467C121.771 60.0351 121.191 59.7903 120.634 59.6345C120.066 59.4787 119.475 59.4119 118.895 59.4119C118.305 59.4342 117.725 59.5121 117.146 59.6679C116.578 59.8125 116.02 60.0462 115.485 60.3022L115.463 60.3133C115.251 60.4134 115.006 60.3244 114.906 60.113C114.806 59.9016 114.895 59.6567 115.106 59.5566H115.118C115.708 59.3007 116.31 59.067 116.945 58.9112C117.58 58.7443 118.227 58.6886 118.884 58.6775C119.542 58.6886 120.188 58.7888 120.823 58.9779C121.459 59.1782 122.038 59.4342 122.606 59.857C122.751 59.9683 122.774 60.1686 122.673 60.3022C122.573 60.4357 122.372 60.4691 122.239 60.3689L122.205 60.3467Z" fill="#FF755F"/>
<path d="M121.994 54.8607C121.47 54.6492 120.857 54.5491 120.277 54.538C119.687 54.5268 119.096 54.5936 118.517 54.7383C117.948 54.9052 117.391 55.1166 116.878 55.4059C116.355 55.6841 115.875 56.0402 115.419 56.4186L115.407 56.4297C115.229 56.5744 114.962 56.541 114.817 56.3629C114.672 56.1849 114.705 55.9178 114.884 55.7732L114.895 55.762C115.419 55.3837 115.953 55.0165 116.544 54.7383C117.124 54.4378 117.748 54.2375 118.372 54.0928C119.007 53.9593 119.664 53.9148 120.311 53.9593C120.968 54.015 121.592 54.1374 122.216 54.4156C122.339 54.4712 122.395 54.6159 122.339 54.7383C122.283 54.8607 122.15 54.9163 122.027 54.8607H121.994Z" fill="#FF755F"/>
<path opacity="0.32" d="M123.81 90.292L128.067 105.493L122.562 91.4382L123.81 90.292Z" fill="#FF755F"/>
<path d="M91.058 120.76L106.325 122.24C107.718 122.374 108.966 121.361 109.1 119.959L112.421 86.0967C112.555 84.7057 111.541 83.4594 110.137 83.3258L94.8692 81.8458C93.4762 81.7123 92.2281 82.7249 92.0944 84.127L88.7734 117.989C88.6397 119.38 89.665 120.616 91.058 120.76Z" fill="#212121"/>
<path opacity="0.47" d="M104.665 87.5436L109.122 87.9887C109.713 88.0443 110.237 87.6103 110.293 87.0317C110.348 86.4419 109.914 85.9189 109.334 85.8633L104.877 85.4181C104.286 85.3625 103.762 85.7965 103.706 86.3751C103.651 86.9538 104.085 87.4879 104.665 87.5436Z" fill="#FEF7E1"/>
<path d="M108.588 86.8534C108.554 87.1761 108.755 87.4654 109.045 87.4988C109.334 87.5322 109.591 87.2873 109.624 86.9646C109.657 86.6419 109.457 86.3526 109.167 86.3192C108.877 86.2858 108.621 86.5306 108.588 86.8534Z" fill="#212121"/>
<path d="M115.497 106.305C115.107 105.459 114.271 105.07 113.535 105.314L114.984 104.669C115.876 104.268 116.243 103.078 115.82 102.009C115.619 101.531 115.296 101.164 114.906 100.93C115.809 100.563 116.21 99.3833 115.798 98.3039C115.385 97.2356 114.327 96.6569 113.424 97.0353L112.588 97.3802C113.491 97.013 113.892 95.8335 113.48 94.7541C113.067 93.6858 112.009 93.1071 111.106 93.4855L97.1535 99.2497C96.8415 99.3833 91.3698 99.2386 90.8126 95.188L89.8208 96.6792C88.7509 97.269 88.0823 99.0494 87.3579 100.863C86.9679 101.831 86.6781 102.833 86.4441 103.834L69.7838 109.031L46.6822 102.966L37.1429 124.421C34.2677 132.01 38.6696 140.69 46.9496 143.817C51.0284 145.353 55.3188 145.008 58.7177 143.205C59.7764 142.771 60.8128 142.237 61.8046 141.558L90.9129 121.606L90.8906 121.494C98.9923 122.407 111.128 111.669 112.911 109.755L114.861 108.72C115.642 108.308 115.92 107.228 115.497 106.305Z" fill="#FFAC79"/>
<path d="M105.935 100.441C105.746 100.418 105.578 100.296 105.489 100.096C105.367 99.8063 105.512 99.4836 105.79 99.3612L112.867 96.4345C113.145 96.3121 113.479 96.4457 113.602 96.735C113.725 97.0243 113.58 97.347 113.301 97.4694L106.225 100.396C106.136 100.452 106.035 100.463 105.935 100.441Z" fill="#FF755F"/>
<path d="M107.005 104.513C106.815 104.491 106.648 104.369 106.559 104.168C106.436 103.879 106.581 103.556 106.86 103.434L113.936 100.507C114.215 100.385 114.549 100.518 114.672 100.808C114.794 101.097 114.65 101.42 114.371 101.542L107.295 104.469C107.194 104.513 107.094 104.524 107.005 104.513Z" fill="#FF755F"/>
<path d="M106.994 108.887C106.816 108.865 106.637 108.742 106.559 108.564C106.437 108.286 106.559 107.952 106.838 107.83L113.814 104.647C114.093 104.514 114.427 104.647 114.561 104.925C114.683 105.204 114.561 105.537 114.282 105.66L107.306 108.842C107.206 108.887 107.094 108.909 106.994 108.887Z" fill="#FF755F"/>
<path opacity="0.28" d="M69.7724 109.02L64.947 107.763L51.6299 114.784L69.7724 109.02Z" fill="#FF755F"/>
</svg>
