<svg width="188" height="156" viewBox="0 0 188 156" fill="none" xmlns="http://www.w3.org/2000/svg">
<g opacity="0.61">
<g opacity="0.61">
<g opacity="0.61">
<g opacity="0.41">
<path opacity="0.41" d="M0.9834 111.608C-0.274405 110.114 -0.331579 107.856 0.846184 106.544C2.02395 105.232 4.82542 104.479 6.07179 105.962C7.32959 107.456 5.5458 109.578 5.11128 111.448C4.52812 114.038 2.2412 113.091 0.9834 111.608Z" fill="#FFD555"/>
</g>
<g opacity="0.41">
<path opacity="0.41" d="M186.578 89.6171C188.145 90.9973 188.465 93.6321 187.299 95.4913C186.132 97.3504 183.091 99.0271 181.524 97.6356C179.958 96.2555 181.707 93.2671 181.97 90.9745C182.347 87.7694 185.012 88.2256 186.578 89.6171Z" fill="#FFD555"/>
</g>
<g opacity="0.41">
<path opacity="0.41" d="M96.0161 20.8617C97.6855 18.7516 101.047 18.1471 103.529 19.5158C106.01 20.8846 108.377 24.6485 106.707 26.7587C105.038 28.8688 101.07 26.8385 98.0972 26.6674C93.935 26.4165 94.3352 22.9719 96.0161 20.8617Z" fill="#FFD555"/>
</g>
</g>
<g opacity="0.28">
<g opacity="0.28">
<g opacity="0.28">
<path opacity="0.28" d="M12.1096 142.37C10.3258 131.865 13.1844 122.9 13.9048 112.6C14.5794 102.848 11.6522 94.647 10.0285 85.3625C8.58772 77.0931 9.06797 67.7288 10.8746 59.6077C13.3445 48.521 19.0504 38.2442 27.2604 31.9823C40.0557 22.2301 57.1275 23.3707 71.2607 30.0889C77.1838 32.8947 82.9125 36.6359 89.2587 37.5826C98.5093 38.9628 107.508 34.2407 116.519 31.412C128.788 27.5567 142.247 27.2716 153.818 33.351C166.934 40.2516 176.264 55.8209 175.178 72.9755C174.686 80.743 172.159 88.4193 173.051 96.1412C173.955 103.966 177.888 110.524 179.969 117.892C181.879 124.679 182.622 133.599 181.513 141.822C180.644 148.21 175.167 152.955 168.718 152.955H24.8134C18.6044 152.955 13.173 148.575 12.121 142.473C12.121 142.438 12.121 142.404 12.1096 142.37Z" fill="#FFD555"/>
</g>
</g>
</g>
<g opacity="0.66">
<g opacity="0.66">
<g opacity="0.47">
<path opacity="0.47" d="M157.111 101.411C156.494 93.8943 153.521 86.3549 148.375 80.9713C140.36 72.5878 128.216 70.4663 117.593 72.4053C113.134 73.2152 108.72 74.6523 104.158 74.2075C97.5028 73.5459 91.6483 69.0177 85.588 65.6986C77.3436 61.1818 67.8987 58.7523 59.1283 60.7142C49.1917 62.9383 41.0503 71.3674 40.0669 82.5339C39.6209 87.5982 44.1033 96.5177 42.6854 101.308C41.2561 106.179 30.7934 121.075 31.045 132.412C31.2622 142.073 33.0575 146.043 35.7103 150.582C36.5679 152.054 38.1344 152.966 39.8382 152.966H142.395H144.911C146.969 152.966 148.798 151.654 149.439 149.704C150.902 145.244 151.588 141.024 149.587 134.865C147.609 128.763 152.995 123.732 155.076 118.052C156.951 112.999 157.569 106.92 157.111 101.411Z" fill="#FFD555"/>
</g>
</g>
</g>
</g>
</g>
<path d="M81.0846 51.7007C82.0006 35.751 69.7811 22.0805 53.7915 21.1667C37.802 20.2529 24.0972 32.4419 23.1812 48.3916C22.2651 64.3412 34.4846 78.0118 50.4742 78.9255C66.4637 79.8393 80.1685 67.6503 81.0846 51.7007Z" fill="#FFBF00"/>
<path d="M69.6309 65.9586C78.4351 56.3197 77.7389 41.3863 68.0758 32.6041C58.4127 23.8218 43.442 24.5163 34.6378 34.1553C25.8335 43.7942 26.5298 58.7276 36.1928 67.5098C45.8559 76.2921 60.8266 75.5976 69.6309 65.9586Z" fill="white"/>
<path d="M60.9579 34.047C60.6491 33.8759 60.5348 33.4881 60.7063 33.1802L62.1699 30.534C62.3415 30.226 62.7302 30.1119 63.039 30.283C63.3477 30.4541 63.4621 30.8419 63.2905 31.1499L61.8269 33.7961C61.6554 34.104 61.2666 34.2181 60.9579 34.047Z" fill="#212121"/>
<path d="M41.2103 69.8278C40.9016 69.6567 40.7872 69.2689 40.9588 68.9609L42.4224 66.3147C42.5939 66.0067 42.9827 65.8927 43.2914 66.0638C43.6001 66.2349 43.7145 66.6227 43.543 66.9306L42.0793 69.5768C41.9078 69.8848 41.5191 69.9989 41.2103 69.8278Z" fill="#212121"/>
<path d="M68.1843 58.8665C68.3558 58.5585 68.7446 58.4444 69.0533 58.6155L71.7061 60.0755C72.0149 60.2466 72.1292 60.6344 71.9577 60.9424C71.7862 61.2503 71.3974 61.3644 71.0887 61.1933L68.4358 59.7333C68.1157 59.5622 68.0128 59.1744 68.1843 58.8665Z" fill="#212121"/>
<path d="M32.3025 39.157C32.474 38.849 32.8628 38.735 33.1715 38.9061L35.8244 40.366C36.1331 40.5371 36.2474 40.9249 36.0759 41.2329C35.9044 41.5409 35.5156 41.6549 35.2069 41.4838L32.5541 40.0239C32.2453 39.8528 32.131 39.465 32.3025 39.157Z" fill="#212121"/>
<path d="M70.5056 44.7459C70.4027 44.4037 70.6086 44.0501 70.9402 43.9588L72.4267 43.5368C72.7697 43.4342 73.1242 43.6395 73.2156 43.9703C73.3186 44.3124 73.1127 44.666 72.7811 44.7573L71.2946 45.1793C70.963 45.2705 70.6086 45.0766 70.5056 44.7459Z" fill="#212121"/>
<path d="M31.0105 56.1517C30.9076 55.8096 31.1134 55.456 31.445 55.3647L33.286 54.8401C33.6291 54.7374 33.9835 54.9427 34.075 55.2735C34.1779 55.6157 33.9721 55.9693 33.6405 56.0605L31.7995 56.5852C31.4565 56.6878 31.102 56.4939 31.0105 56.1517Z" fill="#212121"/>
<path d="M57.4474 68.4135C57.7904 68.3109 58.1449 68.5162 58.2364 68.847L58.6595 70.3298C58.7624 70.6719 58.5566 71.0255 58.225 71.1168C57.8819 71.2194 57.5275 71.0141 57.436 70.6833L57.0129 69.2006C56.91 68.8584 57.1044 68.5048 57.4474 68.4135Z" fill="#212121"/>
<path d="M46.0011 29.0056C46.3442 28.9029 46.6986 29.1082 46.7901 29.439L47.3161 31.2754C47.419 31.6176 47.2132 31.9712 46.8816 32.0624C46.5385 32.1651 46.1841 31.9597 46.0926 31.629L45.5666 29.7926C45.4637 29.4504 45.6581 29.1082 46.0011 29.0056Z" fill="#212121"/>
<path d="M52.2906 49.9698C51.9132 50.0725 51.5244 49.8557 51.4215 49.4907L48.0598 37.7539C47.9568 37.3775 48.1741 36.9897 48.54 36.8871C48.9173 36.7844 49.3061 37.0011 49.409 37.3661L52.7708 49.1029C52.8737 49.4793 52.6565 49.8671 52.2906 49.9698Z" fill="#212121"/>
<path d="M51.7531 50.6768C51.6502 50.3004 51.8675 49.9126 52.2334 49.81L62.0671 47.0155C62.4444 46.9128 62.8332 47.1296 62.9361 47.4945C63.039 47.8709 62.8218 48.2588 62.4559 48.3614L52.6221 51.1559C52.2448 51.27 51.856 51.0532 51.7531 50.6768Z" fill="#212121"/>
<path d="M54.3599 51.2927C53.6739 52.5245 52.1188 52.9693 50.8838 52.285C49.6489 51.6006 49.2029 50.0494 49.889 48.8176C50.5751 47.5857 52.1302 47.1409 53.3651 47.8252C54.6001 48.5096 55.046 50.0608 54.3599 51.2927Z" fill="#FFBF00"/>
<path d="M131.224 16.0254C130.812 16.0254 130.412 16.0596 130.011 16.0824C130.42 16.1147 130.824 16.1631 131.223 16.2271C138.437 17.3838 143.95 23.6159 143.95 31.1384C143.95 37.3826 135.496 46.922 131.223 51.3391C130.766 51.8115 130.357 52.2254 130.011 52.5703C130.755 53.3117 131.224 53.7565 131.224 53.7565C131.224 53.7565 146.374 39.4876 146.374 31.1384C146.374 22.7892 139.594 16.0254 131.224 16.0254Z" fill="#FFBF00"/>
<path d="M131.224 16.0254C131.635 16.0254 132.035 16.0596 132.435 16.0824C132.026 16.1147 131.622 16.1631 131.223 16.2271C124.01 17.3838 118.496 23.6159 118.496 31.1384C118.496 37.3826 126.951 46.922 131.223 51.3391C131.68 51.8115 132.089 52.2254 132.435 52.5703C131.692 53.3117 131.224 53.7565 131.224 53.7565C131.224 53.7565 116.072 39.4876 116.072 31.1384C116.072 22.7892 122.853 16.0254 131.224 16.0254Z" fill="#FFBF00"/>
<path d="M143.95 31.1384C143.95 23.6159 138.437 17.3838 131.223 16.2271C124.01 17.3838 118.496 23.6159 118.496 31.1384C118.496 37.3826 126.951 46.922 131.223 51.3391C135.496 46.922 143.95 37.3826 143.95 31.1384Z" fill="#FFBF00"/>
<path opacity="0.3" d="M131.223 16.0254C130.812 16.0254 130.411 16.0596 130.011 16.0824C137.81 16.6983 143.95 23.1998 143.95 31.1384C143.95 38.0504 133.59 49.0002 130.011 52.5703C130.754 53.3117 131.223 53.7565 131.223 53.7565C131.223 53.7565 146.374 39.4876 146.374 31.1384C146.374 22.7892 139.593 16.0254 131.223 16.0254Z" fill="white"/>
<path d="M130.891 21.4773C126.169 21.4773 122.338 25.3097 122.338 30.009C122.338 34.7197 126.18 38.5407 130.891 38.5407C135.614 38.5407 139.445 34.7083 139.445 30.009C139.445 25.2983 135.602 21.4773 130.891 21.4773Z" fill="white"/>
<path d="M173.083 139.605C175.227 130.55 169.605 121.476 160.528 119.338C151.45 117.2 142.354 122.807 140.211 131.862C138.067 140.917 143.688 149.991 152.766 152.129C161.843 154.267 170.94 148.66 173.083 139.605Z" fill="#212121"/>
<path d="M156.642 145.621C161.915 145.621 166.19 141.357 166.19 136.097C166.19 130.837 161.915 126.573 156.642 126.573C151.368 126.573 147.094 130.837 147.094 136.097C147.094 141.357 151.368 145.621 156.642 145.621Z" fill="white"/>
<path d="M133.155 111.733H155.956C165.447 111.733 173.131 119.398 173.131 128.865H133.155V111.733Z" fill="#F9CA3D"/>
<path d="M149.358 100.202L135.442 81.3134C134.219 79.6595 133.35 77.7776 132.858 75.7929L132.789 75.5192L137.077 74.4698C137.397 74.39 137.603 74.0592 137.523 73.7398L135.145 64.0105C134.847 62.7786 133.601 62.0258 132.366 62.3224L128.158 63.3489C124.682 64.193 122.555 67.6946 123.401 71.1507C123.413 71.2077 123.436 71.2533 123.447 71.3103H123.436L127.552 88.1456L130.857 83.0357V130.097L137.455 136.097L150.273 115.771C153.097 110.855 152.731 104.753 149.358 100.202Z" fill="#FFD864"/>
<path d="M132.858 75.7586L132.801 75.5077L137.089 74.4583C137.409 74.3785 137.615 74.0477 137.535 73.7283L135.156 63.999C134.859 62.7671 133.613 62.0143 132.378 62.3109L128.17 63.3374C124.694 64.1815 122.567 67.6831 123.413 71.1392C123.425 71.1962 123.447 71.2418 123.459 71.2989H123.447L124.511 75.6446L132.675 75.5761C132.721 75.656 132.79 75.7016 132.858 75.7586Z" fill="#FFD34D"/>
<path d="M86.2054 142.005H127.187C133.75 142.005 139.067 136.701 139.067 130.154V128.865H80.0078V135.812C80.0078 139.233 82.7864 142.005 86.2054 142.005Z" fill="#FFD864"/>
<path d="M100.327 128.865L32.8056 122.957C32.2567 122.911 31.8336 122.432 31.8794 121.874C31.9365 120.972 32.0509 119.649 32.1995 118.862C34.0748 109.11 42.6736 101.73 52.999 101.73H96.2446C98.0399 101.73 99.149 103.692 98.2114 105.221L95.6157 109.498C92.2883 114.973 93.2145 122.01 97.834 126.459L100.327 128.865Z" fill="#FFD864"/>
<path d="M100.327 101.742H52.9988C42.9364 101.742 34.5091 108.733 32.348 118.121C31.9935 119.649 31.8105 121.234 31.8105 122.877L67.395 125.649C67.395 125.649 61.9864 123.356 61.9864 111.026C61.9864 101.605 75.1362 101.513 75.1362 101.513" fill="#F9CA3D"/>
<path opacity="0.25" d="M74.999 101.742H51.3637C45.0175 101.742 33.5257 108.733 32.1536 118.121C31.9363 119.649 31.8105 121.234 31.8105 122.877L53.3076 124.554C53.3076 124.554 49.8314 123.527 50.8263 111.026C51.5695 101.639 59.1163 101.513 59.1163 101.513" fill="#212121"/>
<path d="M30.9076 104.639H58.3049C60.0772 104.639 61.518 103.339 61.518 101.73V69.919C61.518 68.3108 60.0772 67.0105 58.3049 67.0105H30.8161C26.3795 67.0105 22.7891 70.2612 22.7891 74.2761V97.2935C22.7891 101.354 26.4253 104.639 30.9076 104.639Z" fill="#FFD864"/>
<path d="M30.9074 104.639H58.3047C60.0771 104.639 61.5178 100.909 61.5178 99.3007C61.5178 99.3007 22.8461 98.3882 22.9833 98.9015C23.7951 102.186 27.0311 104.639 30.9074 104.639Z" fill="#FFD34D"/>
<path d="M61.518 77.025V69.919C61.518 68.3108 60.0772 67.0105 58.3049 67.0105H30.8161C26.3795 67.0105 22.7891 70.2612 22.7891 74.2761V77.1847L61.518 77.025Z" fill="#FFD34D"/>
<path d="M60.9804 99.8713H23.0976C22.7774 99.8713 22.5259 99.6204 22.5259 99.301C22.5259 98.9816 22.7774 98.7307 23.0976 98.7307H60.9918C61.312 98.7307 61.5635 98.9816 61.5635 99.301C61.5521 99.6204 61.3006 99.8713 60.9804 99.8713Z" fill="#FFC928"/>
<path d="M60.9804 78.0171H23.0976C22.7774 78.0171 22.5259 77.7661 22.5259 77.4468C22.5259 77.1274 22.7774 76.8765 23.0976 76.8765H60.9918C61.312 76.8765 61.5635 77.1274 61.5635 77.4468C61.5521 77.7547 61.3006 78.0171 60.9804 78.0171Z" fill="#FFC928"/>
<path d="M101.779 107.034C101.882 107.889 101.242 108.642 100.43 108.631L68.1959 108.277C65.2 108.243 62.5015 106.156 61.3923 103.019L58.7738 95.6165C57.5732 92.2289 59.6428 88.5562 62.8559 88.3509L93.7179 87.4612C96.9882 87.37 99.8125 90.0846 100.236 93.7345L101.779 107.034Z" fill="#F9CA3D"/>
<path opacity="0.22" d="M93.7175 87.4612L62.8556 88.3509C62.0437 88.4079 61.3005 88.6817 60.6602 89.1151L62.7641 95.0576C63.8733 98.1943 66.5718 100.282 69.5677 100.316L101.036 100.669L100.235 93.7345C99.8122 90.0846 96.9764 87.37 93.7175 87.4612Z" fill="#212121"/>
<path d="M141.834 102.152C141.697 101.685 141.537 101.24 141.365 100.898L130.857 79.9448C126.718 81.9295 124.808 86.7656 126.501 91.0315L128.879 97.0653C130.251 100.533 130.949 104.217 130.949 107.947V114.037C130.949 122.227 124.294 128.865 116.084 128.865H100.327V128.831L55.4346 124.896V135.435H80.0075H100.327H123.653C127.953 135.435 133.544 131.443 136.723 125.603C139.833 119.889 141.434 112.874 142.132 109.007C142.555 106.726 142.486 104.377 141.834 102.152Z" fill="#FFD34D"/>
<path d="M138.69 67.6033C139.536 71.0707 138.816 74.2188 137.078 74.6408C135.34 75.0628 133.247 72.5991 132.401 69.1317C131.555 65.6643 132.275 62.5162 134.013 62.0942C135.74 61.6721 137.832 64.1359 138.69 67.6033Z" fill="#FFD98B"/>
<path opacity="0.39" d="M136.7 65.2652C137.192 67.2612 136.769 69.0748 135.774 69.3257C134.768 69.5653 133.567 68.1509 133.076 66.1549C132.584 64.1588 133.007 62.3452 134.002 62.0943C135.008 61.8548 136.22 63.2691 136.7 65.2652Z" fill="white"/>
<path d="M124.557 71.8921L112.356 74.8577C111.887 74.9717 111.419 74.6866 111.304 74.2189L110.984 72.9072C110.87 72.4396 111.156 71.9719 111.625 71.8579L123.825 68.8923C124.294 68.7782 124.763 69.0634 124.877 69.531L125.197 70.8427C125.312 71.3104 125.026 71.778 124.557 71.8921Z" fill="#212121"/>
<path d="M125.86 73.5574L124.156 73.968C123.436 74.1391 122.715 73.7057 122.544 72.9871L121.675 69.417L124.671 68.687L125.86 73.5574Z" fill="#212121"/>
<path d="M112.642 75.5877C111.704 75.8158 110.767 75.2455 110.538 74.3102L110.355 73.5574C110.126 72.6221 110.698 71.6868 111.636 71.4587C112.573 71.2306 113.511 71.8009 113.74 72.7362L113.923 73.4889C114.14 74.4242 113.568 75.3595 112.642 75.5877Z" fill="#212121"/>
<path d="M66.28 139.6C68.4234 130.546 62.8023 121.472 53.7248 119.334C44.6473 117.196 35.5509 122.803 33.4074 131.858C31.264 140.913 36.8851 149.986 45.9626 152.124C55.0401 154.262 64.1365 148.655 66.28 139.6Z" fill="#212121"/>
<path d="M49.8428 145.621C55.1159 145.621 59.3907 141.357 59.3907 136.097C59.3907 130.837 55.1159 126.573 49.8428 126.573C44.5696 126.573 40.2949 130.837 40.2949 136.097C40.2949 141.357 44.5696 145.621 49.8428 145.621Z" fill="white"/>
<path d="M76.5883 140.112H54.5881C51.9696 140.112 49.8428 138.116 49.8428 135.663C49.8428 133.2 51.9696 131.215 54.5881 131.215H76.5883C79.2068 131.215 81.3336 133.211 81.3336 135.663C81.345 138.116 79.2182 140.112 76.5883 140.112Z" fill="#F9CA3D"/>
<path d="M55.2516 135.686C55.2516 138.435 53.0105 140.671 50.2547 140.671C47.499 140.671 45.2578 138.435 45.2578 135.686C45.2578 132.937 47.499 130.702 50.2547 130.702C53.0219 130.702 55.2516 132.937 55.2516 135.686Z" fill="#212121"/>
<path d="M156.631 141.001C159.39 141.001 161.628 138.769 161.628 136.017C161.628 133.264 159.39 131.032 156.631 131.032C153.871 131.032 151.634 133.264 151.634 136.017C151.634 138.769 153.871 141.001 156.631 141.001Z" fill="#212121"/>
<path d="M124.294 65.7442C124.248 64.8431 123.756 63.9876 123.002 63.4972L120.955 62.1741C120.063 61.5924 118.977 61.5582 118.131 62.06L105.484 59.5735L94.7469 45.5669L87.3716 57.03L97.3082 68.7554L114.117 68.858C116.05 69.7819 118.222 70.9909 118.794 71.0138C120.623 71.0822 122.19 69.7135 122.361 67.8885L122.396 67.4665L122.784 68.1622C122.876 68.3333 123.036 68.4588 123.208 68.5272C123.814 68.7439 124.408 68.2991 124.374 67.6376L124.294 65.7442Z" fill="#F9A06E"/>
<path d="M103.094 55.2735L91.5225 64.2956L81.3457 53.7337L95.5703 43.4226L103.323 53.3573C103.792 53.9618 103.689 54.8172 103.094 55.2735Z" fill="#E5AC00"/>
<path d="M97.7313 20.7242C97.6512 22.6975 96.0504 24.2487 94.1522 24.1689C92.2541 24.089 90.779 22.4352 90.8591 20.4505C90.9391 18.4773 92.5399 16.926 94.4381 17.0059C96.3362 17.0857 97.8113 18.751 97.7313 20.7242Z" fill="#FFBF00"/>
<path d="M95.4331 19.1506C95.3873 17.0519 93.3291 15.2954 90.8249 15.2384L85.7366 15.1129C83.2324 15.0445 81.2428 16.6983 81.2771 18.797L81.4829 28.9484L79.7791 39.9438C79.5619 41.3696 80.671 42.7269 82.2604 42.9778L86.1939 43.5823C87.7833 43.8333 89.2584 42.8638 89.4757 41.438L90.3447 35.8148C90.4476 35.8034 90.5505 35.792 90.6534 35.7806C93.5121 35.3586 95.2844 32.8379 94.5869 30.2601L95.2273 21.7626L95.4331 19.1506Z" fill="#FFAC79"/>
<path d="M91.7402 31.9025C91.7402 31.9025 92.4949 31.6738 92.9409 32.2913L91.7402 31.9025Z" fill="#FFAC79"/>
<path d="M92.9407 32.5757C92.8493 32.5757 92.7692 32.53 92.7121 32.4616C92.3919 32.0168 91.8545 32.1765 91.8316 32.1765C91.6829 32.2221 91.5229 32.1308 91.4771 31.9826C91.4314 31.8343 91.5114 31.6746 91.6715 31.629C91.7058 31.6176 92.6206 31.3552 93.1809 32.1194C93.2723 32.2449 93.238 32.4274 93.1123 32.5186C93.0551 32.5643 92.9979 32.5757 92.9407 32.5757Z" fill="#FF755F"/>
<path d="M89.2014 23.7928C89.4186 23.8612 89.6816 23.8042 89.9332 23.7586C90.1962 23.713 90.4477 23.6787 90.6764 23.6445C90.9051 23.6217 91.1681 23.5989 91.4311 23.5875C91.6941 23.5647 91.9571 23.5647 92.1515 23.4506C92.3344 23.348 92.3916 23.097 92.1286 22.8347C91.8771 22.5724 91.2825 22.3328 90.5278 22.4241C89.7731 22.5153 89.2585 22.8803 89.0756 23.1883C88.8812 23.5076 88.9841 23.7244 89.2014 23.7928Z" fill="#212121"/>
<path d="M93.8784 24.8877C93.8898 25.401 94.3129 25.8116 94.8274 25.8002C95.1247 25.7888 95.3763 26.0283 95.3763 26.3363V26.4161C95.3877 27.0662 94.8732 27.6023 94.21 27.6251L93.3066 27.6365" fill="#FFAC79"/>
<path d="M93.3181 27.9332C93.158 27.9332 93.0322 27.8077 93.0322 27.648C93.0322 27.4883 93.158 27.3629 93.3181 27.3629L94.2214 27.3401C94.4616 27.3401 94.6902 27.2374 94.8503 27.0663C95.0218 26.8952 95.1019 26.6671 95.1019 26.4276V26.3477C95.1019 26.2793 95.0676 26.2109 95.0218 26.1652C94.9761 26.1196 94.9189 26.0968 94.8389 26.0968C94.1643 26.0968 93.604 25.5721 93.5925 24.8992C93.5925 24.7395 93.7183 24.614 93.8784 24.614C94.0385 24.614 94.1642 24.7395 94.1642 24.8992C94.1757 25.2528 94.4615 25.5379 94.816 25.5379C94.8275 25.5379 94.8389 25.5379 94.8503 25.5379C95.0676 25.5379 95.2734 25.6177 95.422 25.766C95.5821 25.9143 95.6736 26.131 95.6736 26.3477V26.4276C95.685 26.8268 95.5364 27.1918 95.262 27.4769C94.9875 27.7621 94.6216 27.9218 94.2329 27.9218L93.3181 27.9332C93.3295 27.9332 93.3295 27.9332 93.3181 27.9332Z" fill="#FF755F"/>
<path d="M92.3804 26.0286C92.266 25.4127 91.8887 24.5116 90.6423 24.3861C90.4365 24.3633 90.2535 24.3747 90.0706 24.4089C89.2473 24.5572 88.7213 25.2188 88.424 25.7663C88.1953 26.1769 88.4469 26.6902 88.9157 26.7586C90.1849 26.9411 91.4427 26.7814 92.0488 26.6787C92.2775 26.6445 92.4375 26.4278 92.4147 26.1997C92.4032 26.1427 92.3918 26.0856 92.3804 26.0286Z" fill="white"/>
<path d="M93.4438 25.9145C93.4781 26.576 92.9064 27.1463 92.1746 27.1806C91.4428 27.2148 90.8253 26.7129 90.791 26.0514C90.7567 25.3898 91.3284 24.8195 92.0603 24.7853C92.7806 24.7397 93.4095 25.2529 93.4438 25.9145Z" fill="#212121"/>
<path d="M92.0944 30.0779C92.0944 30.0779 90.1506 30.3745 90.0591 29.1882L92.0944 30.0779Z" fill="#FFAC79"/>
<path d="M91.5913 30.3973C91.1683 30.3973 90.608 30.3288 90.2078 30.0209C89.9562 29.8155 89.8076 29.5418 89.7732 29.1996C89.7618 29.0399 89.8762 28.9031 90.0362 28.8917C90.1849 28.8802 90.3335 28.9943 90.345 29.154C90.3564 29.3365 90.425 29.462 90.5622 29.5646C90.951 29.8726 91.7743 29.827 92.0602 29.7813C92.2202 29.7585 92.3575 29.8612 92.3918 30.0209C92.4146 30.1805 92.3117 30.3174 92.1516 30.3516C92.0945 30.363 91.8658 30.3973 91.5913 30.3973Z" fill="#FF755F"/>
<path opacity="0.41" d="M85.1537 33.6475C85.1537 33.6475 86.5372 36.1454 90.3107 35.9173L89.9219 38.016C89.7275 38.0046 84.9364 37.9932 85.1537 33.6475Z" fill="#FF755F"/>
<path d="M79.6074 28.7314L81.1853 31.6057L83.4379 26.4274C83.7238 25.6746 82.3173 27.1003 81.9514 26.3703L81.6427 25.743L81.4826 25.7202C79.8132 25.5035 78.6697 27.3398 79.6074 28.7314Z" fill="#212121"/>
<path d="M80.3965 28.8913C83.9412 29.9065 84.6387 24.9335 85.4506 23.2111C86.3882 21.2493 88.7551 20.371 90.7562 21.2379C93.7406 22.5268 95.6273 22.2644 97.6513 22.139L97.9142 19.0365C98.2573 14.9646 95.2271 11.3945 91.145 11.0523L83.8611 10.4478C79.779 10.1056 76.2 13.1282 75.8569 17.2002C75.8569 17.2002 75.8912 21.5915 75.9598 23.6788C76.0971 28.1614 80.2364 28.8457 80.3965 28.8913Z" fill="#FFBF00"/>
<path d="M97.914 19.0251C98.2571 14.9532 95.2269 11.3831 91.1447 11.0409L83.8609 10.4364C81.4253 10.2311 79.1727 11.2348 77.6748 12.9457C79.0813 11.8735 80.8765 11.2918 82.7746 11.4515L90.0585 12.056C94.1406 12.3982 97.1708 15.9683 96.8277 20.0403L96.6448 22.196C96.9764 22.1732 97.3194 22.1504 97.651 22.1276L97.914 19.0251Z" fill="#E6AC00"/>
<path d="M97.72 22.4241L91.6597 22.2188C90.6763 22.1845 89.9102 21.3633 89.9445 20.3938L99.0921 20.7018L99.0807 21.158C99.0464 21.8766 98.4404 22.4469 97.72 22.4241Z" fill="#212121"/>
<path d="M80.4191 25.8571C80.3962 25.8571 80.3734 25.8571 80.3505 25.8571C79.2871 25.8229 78.4638 24.9332 78.4981 23.8725C78.521 23.3592 78.7268 22.8916 79.1041 22.538C79.4815 22.1844 79.9732 22.0133 80.4763 22.0247C81.5397 22.0589 82.363 22.9486 82.3287 24.0094C82.3058 25.0359 81.4482 25.8571 80.4191 25.8571ZM80.4191 22.8688C80.1447 22.8688 79.8931 22.9714 79.6987 23.1539C79.4929 23.3478 79.3671 23.6101 79.3671 23.8953C79.3443 24.477 79.8016 24.9675 80.3962 24.9903C80.9794 25.0131 81.4711 24.5454 81.494 23.9637C81.5168 23.382 81.048 22.8916 80.4649 22.8688C80.442 22.8688 80.4305 22.8688 80.4191 22.8688Z" fill="white"/>
<path d="M97.2739 47.0043C97.1253 46.4112 96.9195 45.818 96.6679 45.2591C95.4901 42.6814 93.1689 41.0161 90.7677 40.2519C88.5379 39.5447 86.171 39.4877 83.8497 39.4421C82.1574 39.4079 80.488 38.8946 78.8071 39.0315C75.3881 39.2938 71.8091 41.5408 70.6314 44.8371C70.1511 46.1944 69.9796 47.643 69.8538 49.0688C69.1334 57.418 65.9432 72.3713 65.5887 80.7433C65.3829 85.7049 68.9276 88.2485 68.7561 93.2101L68.7218 89.1153L96.9881 90.7236L97.1939 84.9521C97.434 78.4165 97.5712 71.8808 97.6513 65.3452C97.6856 62.0716 97.7085 58.7981 97.7199 55.5246C97.7428 52.7187 97.9715 49.7531 97.2739 47.0043Z" fill="#FFBF00"/>
<path opacity="0.27" d="M84.9131 70.6489C82.9693 69.0293 76.3372 62.6191 74.7478 57.532L74.2675 57.897C74.2447 58.1137 74.2104 58.3304 74.1875 58.5471C74.6678 62.9841 78.5555 67.478 80.9339 69.8277C82.0088 70.8998 83.5524 71.2078 84.9131 70.6489Z" fill="#353535"/>
<path opacity="0.27" d="M95.5132 61.7864L96.3136 61.0564L86.6514 50.9507L95.5132 61.7864Z" fill="#353535"/>
<path d="M119.583 73.1011L118.668 70.5804L118.657 70.5918L118.519 70.0443C118.302 69.1546 117.662 68.436 116.816 68.0938L114.54 67.1928C113.557 66.7936 112.482 66.9647 111.75 67.6376L110.652 67.6262L98.9091 66.3373L95.3529 62.0601L85.8394 70.1013L88.9267 73.4661C90.3103 74.9717 92.277 75.7929 94.3124 75.7245L109.623 75.2112C111.579 75.7245 113.625 76.3632 114.14 76.2834C115.947 75.9982 117.216 74.3444 117.033 72.5194L116.987 72.1088L117.273 72.451L117.124 72.6449L118.211 73.8995C118.485 74.2189 118.965 74.2645 119.297 74.0022C119.594 73.7855 119.697 73.4205 119.583 73.1011Z" fill="#FFAC79"/>
<path opacity="0.41" d="M98.9201 66.2803L94.3691 67.0103C94.3691 67.0103 98.1197 65.1967 98.0854 65.2994C98.0511 65.402 98.9201 66.3259 98.9201 66.3259" fill="#FF755F"/>
<path d="M111.189 83.3555L110.206 83.3213L110.218 83.2643L65.3254 81.5762L65.211 86.9256C65.0395 94.9098 71.1685 101.445 80.1789 100.864L105.209 100.214L103.986 125.444L113.156 124.566L120.04 92.5374C120.189 87.5415 116.198 83.4125 111.189 83.3555Z" fill="#212121"/>
<path d="M123.287 133.348C123.447 130.018 120.875 127.177 117.536 127.018L113.442 126.812L113.636 122.843L104.02 122.375L103.528 132.39L113.145 132.858L123.287 133.348Z" fill="#FFBF00"/>
<path d="M103.58 131.365L103.509 132.812L123.267 133.781L123.338 132.334L103.58 131.365Z" fill="white"/>
<path d="M113.854 127.348C113.694 127.348 113.545 127.28 113.453 127.143C113.328 126.983 113.316 126.767 113.419 126.584C113.968 125.592 114.517 125.067 115.031 125.022C115.237 124.999 115.534 125.056 115.809 125.398C116.083 125.74 116.06 126.037 115.992 126.219C115.82 126.698 115.146 127.075 113.979 127.326C113.922 127.348 113.888 127.348 113.854 127.348ZM115.089 125.603C115.077 125.603 115.077 125.603 115.066 125.603C114.848 125.626 114.448 125.934 113.979 126.755C114.951 126.527 115.374 126.231 115.443 126.048C115.454 126.025 115.477 125.934 115.352 125.774C115.226 125.615 115.134 125.603 115.089 125.603Z" fill="#212121"/>
<path d="M111.944 127.69C111.498 127.69 111.155 127.588 110.926 127.394C110.755 127.246 110.56 126.972 110.618 126.481C110.675 125.991 110.915 125.786 111.121 125.683C111.647 125.444 112.504 125.683 113.671 126.436C113.911 126.596 114.002 126.915 113.854 127.166C113.785 127.291 113.659 127.383 113.522 127.417C112.893 127.611 112.367 127.69 111.944 127.69ZM111.567 126.174C111.475 126.174 111.407 126.185 111.361 126.208C111.327 126.219 111.212 126.276 111.178 126.55C111.144 126.812 111.235 126.915 111.292 126.961C111.567 127.2 112.344 127.166 113.362 126.881C112.481 126.356 111.898 126.174 111.567 126.174Z" fill="#212121"/>
<path d="M112.55 129.595C112.447 129.595 112.344 129.538 112.287 129.436C112.218 129.299 112.275 129.128 112.424 129.059C113.464 128.569 113.396 127.154 113.396 127.143C113.384 126.983 113.51 126.846 113.67 126.846C113.83 126.846 113.968 126.96 113.968 127.12C113.968 127.189 114.059 128.922 112.675 129.584C112.641 129.584 112.595 129.595 112.55 129.595Z" fill="#212121"/>
<path d="M106.993 129.481C106.959 129.481 106.924 129.481 106.89 129.481C106.341 129.458 105.838 129.219 105.472 128.808C105.106 128.398 104.912 127.873 104.946 127.337C105.003 126.208 105.964 125.352 107.096 125.386C107.645 125.409 108.148 125.649 108.514 126.059C108.88 126.47 109.074 126.995 109.04 127.542C108.994 128.626 108.079 129.481 106.993 129.481ZM106.993 125.945C106.204 125.945 105.552 126.561 105.507 127.348C105.484 127.748 105.621 128.124 105.884 128.409C106.147 128.706 106.513 128.877 106.913 128.888C107.736 128.934 108.422 128.295 108.468 127.485C108.491 127.086 108.354 126.71 108.091 126.424C107.828 126.128 107.462 125.957 107.062 125.945C107.05 125.945 107.016 125.945 106.993 125.945Z" fill="#212121"/>
<path d="M107.028 58.9804L110.435 58.1478C113.568 57.3836 116.678 59.0489 117.364 61.8548C118.051 64.6721 116.072 67.5692 112.928 68.3334L110.618 68.8923C109.074 69.2687 107.542 68.4474 107.199 67.0673L105.69 60.9081C105.507 60.0754 106.09 59.2086 107.028 58.9804Z" fill="#212121"/>
<path d="M127.793 70.2493C127.598 70.2493 127.404 70.1467 127.301 69.9642L123.436 63.303C122.761 62.1396 121.389 61.5579 120.074 61.8773L114.22 63.303C113.922 63.3829 113.602 63.189 113.534 62.881C113.454 62.573 113.648 62.2651 113.957 62.1967L119.811 60.7709C121.606 60.3375 123.505 61.1473 124.431 62.7441L128.296 69.4053C128.456 69.679 128.364 70.0212 128.09 70.1809C127.987 70.2265 127.884 70.2493 127.793 70.2493Z" fill="#212121"/>
<path d="M154.744 47.4263C154.744 47.9167 154.344 48.316 153.841 48.316C153.349 48.316 152.938 47.9167 152.938 47.4263C152.938 46.9358 153.338 46.5366 153.841 46.5366C154.344 46.548 154.744 46.9472 154.744 47.4263Z" fill="#FFBF00"/>
<path d="M164.144 20.3255C164.144 20.8159 163.743 21.2151 163.24 21.2151C162.737 21.2151 162.337 20.8159 162.337 20.3255C162.337 19.835 162.737 19.4358 163.24 19.4358C163.743 19.4358 164.144 19.835 164.144 20.3255Z" fill="#FFBF00"/>
<path d="M18.1694 140.887C18.6683 140.887 19.0728 140.494 19.0728 140.009C19.0728 139.524 18.6683 139.131 18.1694 139.131C17.6705 139.131 17.2661 139.524 17.2661 140.009C17.2661 140.494 17.6705 140.887 18.1694 140.887Z" fill="#FFBF00"/>
<path d="M182.919 109.623C182.919 110.114 182.519 110.502 182.016 110.502C181.524 110.502 181.112 110.102 181.112 109.623C181.112 109.133 181.513 108.734 182.016 108.734C182.519 108.734 182.919 109.133 182.919 109.623Z" fill="#FFBF00"/>
<path d="M101.288 0.878265C101.288 1.36872 100.887 1.76793 100.384 1.76793C99.8812 1.76793 99.481 1.36872 99.481 0.878265C99.481 0.387806 99.8812 0 100.384 0C100.887 0 101.288 0.387806 101.288 0.878265Z" fill="#FFBF00"/>
<path d="M9.4678 19.926C9.4678 20.4165 9.06759 20.8043 8.56446 20.8043C8.07278 20.8043 7.66113 20.4051 7.66113 19.926C7.66113 19.4356 8.06134 19.0364 8.56446 19.0364C9.06759 19.0364 9.4678 19.4356 9.4678 19.926Z" fill="#FFBF00"/>
<path d="M154.447 79.2149C154.447 79.7053 154.047 80.1045 153.544 80.1045C153.052 80.1045 152.641 79.7053 152.641 79.2149C152.641 78.7244 153.041 78.3252 153.544 78.3252C154.047 78.3252 154.447 78.7244 154.447 79.2149Z" fill="#FFBF00"/>
<path d="M178.174 50.7796C178.174 51.0191 177.968 51.2244 177.728 51.2244C177.477 51.2244 177.282 51.0305 177.282 50.7796C177.282 50.54 177.488 50.3347 177.728 50.3347C177.98 50.3347 178.174 50.5286 178.174 50.7796Z" fill="#FFBF00"/>
<path d="M185.824 72.6792C186.07 72.6792 186.27 72.4801 186.27 72.2344C186.27 71.9887 186.07 71.7896 185.824 71.7896C185.578 71.7896 185.378 71.9887 185.378 72.2344C185.378 72.4801 185.578 72.6792 185.824 72.6792Z" fill="#FFBF00"/>
<path d="M23.2575 115.053C23.5038 115.053 23.7034 114.854 23.7034 114.608C23.7034 114.362 23.5038 114.163 23.2575 114.163C23.0112 114.163 22.8115 114.362 22.8115 114.608C22.8115 114.854 23.0112 115.053 23.2575 115.053Z" fill="#FFBF00"/>
<path d="M16.3172 83.9486C16.3172 84.3021 16.0313 84.5873 15.6654 84.5873C15.311 84.5873 15.0137 84.3021 15.0137 83.9486C15.0137 83.595 15.2995 83.3098 15.6654 83.3098C16.0199 83.3098 16.3172 83.595 16.3172 83.9486Z" fill="#FFBF00"/>
</svg>
