<svg width="188" height="144" viewBox="0 0 188 144" fill="none" xmlns="http://www.w3.org/2000/svg">
<g opacity="0.61">
<g opacity="0.61">
<g opacity="0.61">
<g opacity="0.41">
<path opacity="0.41" d="M0.983398 101.777C-0.274406 100.277 -0.331577 98.0086 0.846184 96.6912C2.02395 95.3739 4.82542 94.6179 6.07179 96.107C7.32959 97.6076 5.5458 99.7382 5.11128 101.617C4.52812 104.229 2.2412 103.266 0.983398 101.777Z" fill="#FFD555"/>
</g>
<g opacity="0.41">
<path opacity="0.41" d="M186.578 79.692C188.145 81.078 188.465 83.7241 187.299 85.5913C186.132 87.4584 183.091 89.1423 181.524 87.7448C179.958 86.3587 181.707 83.3576 181.97 81.0551C182.347 77.8363 185.012 78.3059 186.578 79.692Z" fill="#FFD555"/>
</g>
<g opacity="0.41">
<path opacity="0.41" d="M96.0161 10.6417C97.6855 8.52249 101.047 7.91538 103.529 9.28997C106.01 10.6646 108.377 14.4447 106.707 16.5639C105.038 18.683 101.07 16.644 98.0972 16.4722C93.935 16.2202 94.3352 12.7608 96.0161 10.6417Z" fill="#FFD555"/>
</g>
</g>
<g opacity="0.28">
<g opacity="0.28">
<g opacity="0.28">
<path opacity="0.28" d="M12.1093 132.671C10.3255 122.121 13.1841 113.118 13.8931 102.774C14.5677 92.9799 11.6405 84.7438 10.0168 75.4195C8.576 67.1147 9.05625 57.7102 10.8629 49.5543C13.3328 38.4201 19.0386 28.0992 27.2487 21.8104C40.044 12.0164 57.1158 13.1619 71.2489 19.9089C77.172 22.7268 82.9008 26.484 89.2469 27.4348C98.4975 28.8208 107.497 24.0785 116.507 21.2377C128.776 17.3659 142.235 17.0795 153.807 23.185C166.922 30.1152 176.253 45.7512 175.166 62.9795C174.675 70.7803 172.148 78.4894 173.04 86.2444C173.943 94.1025 177.876 100.689 179.957 108.089C181.867 114.905 182.61 123.862 181.501 132.121C180.632 138.536 175.155 143.301 168.706 143.301H24.8131C18.6041 143.301 13.1727 138.903 12.1207 132.774C12.1207 132.751 12.1207 132.706 12.1093 132.671Z" fill="#FFD555"/>
</g>
</g>
</g>
<g opacity="0.66">
<g opacity="0.66">
<g opacity="0.47">
<path opacity="0.47" d="M157.111 91.5365C156.494 83.9877 153.521 76.416 148.375 71.0093C140.359 62.5899 128.216 60.4593 117.593 62.4066C113.134 63.2199 108.72 64.6633 104.157 64.2165C97.5026 63.5521 91.6481 59.0045 85.5877 55.6711C77.3434 51.135 67.8984 48.6951 59.1281 50.6653C49.1915 52.899 41.05 61.3642 40.0781 72.5786C39.6322 77.6646 44.1145 86.6224 42.6966 91.4334C41.2673 96.3247 30.8047 111.285 31.0562 122.671C31.2735 132.373 33.0687 136.36 35.7215 140.919C36.5791 142.396 38.1457 143.313 39.8494 143.313H142.406H144.922C146.98 143.313 148.81 141.996 149.45 140.037C150.913 135.558 151.6 131.32 149.598 125.134C147.62 119.005 153.006 113.954 155.087 108.249C156.951 103.175 157.568 97.0693 157.111 91.5365Z" fill="#FFD555"/>
</g>
</g>
</g>
</g>
</g>
<path d="M77.2979 93.7473C76.3832 93.7473 75.6171 93.0142 75.5828 92.0863L73.1015 20.0463C73.0672 19.1642 71.6035 18.9695 68.7334 18.9237L67.9673 18.9122C67.0183 18.8893 66.275 18.0989 66.2979 17.1482C66.3207 16.1974 67.0983 15.4414 68.0588 15.4757L68.8021 15.4872C71.6378 15.5445 76.3832 15.6361 76.5318 19.9317L79.0131 91.9718C79.0474 92.9226 78.3042 93.713 77.3551 93.7473C77.3437 93.7473 77.3208 93.7473 77.2979 93.7473Z" fill="#FFBF00"/>
<path d="M54.1775 120.563L95.6507 120.861C96.9085 120.873 97.9605 119.899 98.0634 118.65L104.467 40.0811L46.6421 39.6572L51.9134 118.433C52.0049 119.636 52.9883 120.563 54.1775 120.563Z" fill="#FFBF00"/>
<path d="M48.563 68.283L49.8322 87.218H100.636L102.18 68.283H48.563Z" fill="#F2F2F2"/>
<path d="M46.6533 39.6687L104.478 40.0925L104.444 40.5736L52.5879 40.1956L57.8592 118.971C57.9049 119.647 58.248 120.22 58.7397 120.609L54.1773 120.575C52.9881 120.563 52.0047 119.636 51.9247 118.456L46.6533 39.6687Z" fill="#E6AC00"/>
<path opacity="0.46" d="M103.964 45.4646L46.9736 45.0408L47.2252 47.8472L103.735 48.0763L103.964 45.4646Z" fill="#392B00"/>
<path d="M46.3218 39.5999L46.7106 45.4648H104.364L104.81 40.0237L46.3218 39.5999Z" fill="#212121"/>
<path d="M135.1 56.1406H108.103C106.148 56.1406 104.558 57.7329 104.558 59.6917V63.4603C104.558 65.4191 106.148 67.0114 108.103 67.0114H135.1C137.055 67.0114 138.645 65.4191 138.645 63.4603V59.6917C138.645 57.7329 137.055 56.1406 135.1 56.1406Z" fill="#FFCC33"/>
<path d="M91.0996 73.747L101.139 126.188H141.457L151.657 73.4492L91.0996 73.747Z" fill="#FFCC33"/>
<g opacity="0.11">
<path opacity="0.11" d="M151.646 73.495L151.657 73.4492L91.0996 73.747L101.139 126.188H110.138L100.087 73.747L151.646 73.495Z" fill="#212121"/>
</g>
<path d="M104.49 63.9185H138.645L151.657 73.827H90.9512L104.41 64.159" fill="#FFD966"/>
<path d="M130.721 83.9762C123.071 78.5809 112.505 80.4252 107.131 88.0771C101.745 95.7404 103.586 106.325 111.225 111.709C118.874 117.104 129.44 115.26 134.814 107.608C140.2 99.9444 138.359 89.3715 130.721 83.9762ZM113.409 108.604C107.474 104.423 106.056 96.2101 110.23 90.265C114.404 84.3199 122.602 82.8995 128.537 87.0805C134.471 91.2616 135.889 99.4748 131.715 105.42C127.53 111.365 119.332 112.785 113.409 108.604Z" fill="#F9D361"/>
<path d="M120.933 115.386C117.354 115.386 113.878 114.286 110.893 112.19C107.074 109.498 104.524 105.466 103.724 100.849C102.924 96.2331 103.964 91.5824 106.651 87.7564C109.338 83.9305 113.363 81.376 117.971 80.5742C122.58 79.7723 127.222 80.8147 131.041 83.5181C138.931 89.0852 140.829 100.048 135.283 107.951C132.596 111.777 128.571 114.332 123.963 115.134C122.945 115.294 121.939 115.386 120.933 115.386ZM121.002 81.4447C120.064 81.4447 119.115 81.5249 118.166 81.6853C113.855 82.4299 110.104 84.824 107.589 88.3979C105.073 91.9833 104.101 96.3247 104.845 100.643C105.588 104.962 107.978 108.719 111.545 111.239C115.113 113.759 119.458 114.733 123.769 113.988C128.08 113.244 131.83 110.85 134.346 107.276C139.537 99.8872 137.765 89.635 130.389 84.4345C127.599 82.4757 124.341 81.4447 121.002 81.4447ZM120.944 111.571C118.223 111.571 115.467 110.758 113.066 109.074C110.07 106.966 108.081 103.805 107.452 100.196C106.823 96.5767 107.646 92.9341 109.75 89.9443C114.107 83.7472 122.671 82.2581 128.857 86.6224C135.043 90.9867 136.53 99.5665 132.173 105.764C129.509 109.544 125.267 111.571 120.944 111.571ZM113.729 108.135C119.401 112.133 127.256 110.769 131.236 105.088C135.226 99.4061 133.854 91.548 128.194 87.5502C122.534 83.5525 114.678 84.9271 110.688 90.5972C108.755 93.3464 108.012 96.6798 108.584 100.002C109.155 103.312 110.985 106.199 113.729 108.135Z" fill="#FFBF00"/>
<path d="M128.525 87.0803C122.591 82.8992 114.392 84.3196 110.218 90.2647C106.045 96.2098 107.463 104.423 113.397 108.604C119.332 112.785 127.53 111.365 131.704 105.42C135.889 99.4745 134.46 91.2613 128.525 87.0803ZM122.419 102.9C122.167 103.255 121.664 103.346 121.31 103.094L115.924 99.3027C115.57 99.0507 115.478 98.5466 115.73 98.1915L119.515 92.7963C119.766 92.4412 120.269 92.3495 120.624 92.6015L126.009 96.3931C126.364 96.6451 126.455 97.1491 126.204 97.5042L122.419 102.9Z" fill="#F9D361"/>
<path d="M120.944 111.571C118.223 111.571 115.467 110.758 113.066 109.074C110.07 106.966 108.08 103.805 107.451 100.196C106.822 96.5766 107.646 92.9339 109.75 89.9442C114.106 83.7471 122.671 82.2579 128.857 86.6223C135.043 90.9866 136.529 99.5664 132.173 105.763C129.508 109.544 125.266 111.571 120.944 111.571ZM120.99 85.2591C117.033 85.2591 113.146 87.1148 110.699 90.5971C108.766 93.3463 108.023 96.6797 108.595 100.002C109.166 103.312 110.996 106.21 113.74 108.146C119.412 112.144 127.267 110.781 131.247 105.099C135.237 99.4174 133.865 91.5594 128.205 87.5616C126.009 86.0037 123.482 85.2591 120.99 85.2591ZM121.756 103.805C121.481 103.805 121.207 103.724 120.967 103.553L115.581 99.7611C114.964 99.3258 114.815 98.4667 115.25 97.8481L119.034 92.4528C119.469 91.8343 120.326 91.6854 120.944 92.1206L126.33 95.9122C126.627 96.1184 126.833 96.4392 126.89 96.7943C126.947 97.1494 126.867 97.5159 126.661 97.8137L122.876 103.209C122.613 103.61 122.19 103.805 121.756 103.805ZM120.166 93.0256C120.098 93.0256 120.029 93.0599 119.983 93.1172L116.199 98.5125C116.13 98.6156 116.153 98.7531 116.256 98.8218L121.641 102.613C121.744 102.682 121.882 102.659 121.95 102.556L125.735 97.1608C125.781 97.0921 125.781 97.0234 125.769 96.989C125.769 96.9546 125.746 96.8859 125.678 96.8401L120.292 93.0485C120.258 93.037 120.212 93.0256 120.166 93.0256Z" fill="#FFBF00"/>
<path d="M80.7627 128.353L16.9006 128.731C15.8143 128.742 14.9224 127.86 14.911 126.76L14.8995 125.191C14.8881 124.103 15.7686 123.209 16.8663 123.198L80.7284 122.82C81.8147 122.808 82.7066 123.691 82.718 124.79L82.7294 126.36C82.7294 127.448 81.8604 128.341 80.7627 128.353Z" fill="#212121"/>
<path d="M78.9908 122.854L66.2756 122.934C66.024 122.934 65.7724 123.003 65.5666 123.117L61.0728 125.821C60.6955 126.05 60.1581 126.073 59.7464 125.878L54.1092 123.152C53.9262 123.06 53.709 123.014 53.4803 123.014L18.6048 123.221C17.9759 123.221 17.4613 122.843 17.4613 122.373L17.4385 119.395C17.4385 118.925 17.9416 118.536 18.5705 118.536L78.9451 118.18C79.574 118.18 80.0885 118.558 80.0885 119.028L80.1114 122.006C80.1228 122.465 79.6197 122.854 78.9908 122.854Z" fill="#FFD98B"/>
<path d="M78.1557 132.224L19.3934 132.568C18.9246 132.568 18.5358 132.19 18.5358 131.72L18.5244 129.326C18.5244 128.857 18.9018 128.467 19.3706 128.467L78.1329 128.124C78.6017 128.124 78.9905 128.502 78.9905 128.971L79.0019 131.365C79.0019 131.846 78.6246 132.224 78.1557 132.224Z" fill="#F94A3D"/>
<path opacity="0.74" d="M78.4761 129.338L19.0277 129.693C18.7419 129.693 18.5132 129.464 18.5132 129.189V128.994C18.5132 128.708 18.7419 128.479 19.0163 128.479L78.4647 128.124C78.7505 128.124 78.9792 128.353 78.9792 128.628V128.822C78.9907 129.109 78.762 129.338 78.4761 129.338Z" fill="#EC6565"/>
<path d="M70.3688 143.656L27.6034 143.84C22.252 143.863 17.884 140.724 17.8497 136.818L17.8154 131.949L79.9738 131.686L80.0081 136.554C80.0424 140.461 75.7201 143.634 70.3688 143.656Z" fill="#FFAC79"/>
<path opacity="0.25" d="M79.9738 131.686L76.7607 131.697C76.1547 135.157 72.1297 137.849 67.2014 137.872L31.2739 138.021C26.3571 138.044 22.2749 135.386 21.6231 131.927L17.8154 131.938L17.8497 136.806C17.884 140.713 22.252 143.851 27.6034 143.828L70.3688 143.645C75.7201 143.622 80.0424 140.438 80.0081 136.543L79.9738 131.686Z" fill="#F97762"/>
<path d="M81.7234 118.765L15.7001 119.154C15.6201 106.279 26.6545 95.7862 40.3302 95.706L56.8075 95.6144C70.5061 95.5227 81.6548 105.889 81.7234 118.765Z" fill="#FFB6AF"/>
<path opacity="0.08" d="M81.7234 118.765L15.7001 119.154C15.6201 106.279 26.6545 95.7862 40.3302 95.706L56.8075 95.6144C70.5061 95.5227 81.6548 105.889 81.7234 118.765Z" fill="#FFF6F7"/>
<path d="M81.7234 118.765L15.7001 119.154C15.6201 106.279 26.6545 95.7862 40.3302 95.706L56.8075 95.6144C70.5061 95.5227 81.6548 105.889 81.7234 118.765Z" fill="#FFAC79"/>
<path opacity="0.25" d="M66.5613 97.4127C66.607 97.447 66.6642 97.4814 66.7099 97.5157C73.3763 101.96 70.1174 112.43 62.1018 112.476L32.4519 112.648C26.6089 112.682 23.2357 105.843 26.9633 101.33C28.3126 99.7036 29.9478 98.2947 31.7887 97.1606C22.3438 100.494 15.6317 109.085 15.6888 119.131L81.7121 118.742C81.6664 109.143 75.4231 100.918 66.5613 97.4127Z" fill="#F97762"/>
<path d="M47.1336 102.247C46.4589 102.247 45.7843 102.086 45.75 101.64C45.7157 101.113 46.5962 100.861 47.3623 100.815C48.117 100.769 49.0317 100.884 49.066 101.411C49.1003 101.937 48.2199 102.189 47.4537 102.235C47.3508 102.235 47.2479 102.247 47.1336 102.247ZM46.4361 101.594C46.619 101.651 46.9621 101.697 47.4194 101.663C47.8768 101.628 48.2084 101.537 48.3799 101.456C48.197 101.399 47.854 101.353 47.3966 101.388C46.9506 101.411 46.619 101.502 46.4361 101.594Z" fill="#F8F8EE"/>
<path d="M57.3562 104.927C56.6815 104.927 56.0069 104.767 55.9726 104.32C55.9612 104.148 56.0526 103.896 56.5329 103.702C56.8073 103.587 57.1847 103.518 57.5734 103.484C57.9622 103.461 58.3395 103.472 58.6368 103.541C59.1514 103.656 59.2657 103.896 59.2772 104.068C59.3115 104.595 58.431 104.847 57.6649 104.893C57.5734 104.927 57.4705 104.927 57.3562 104.927ZM56.6587 104.274C56.8416 104.332 57.1847 104.377 57.642 104.343C58.0994 104.309 58.431 104.217 58.6025 104.137C58.4196 104.08 58.0766 104.034 57.6192 104.068C57.1618 104.091 56.8416 104.194 56.6587 104.274Z" fill="#F8F8EE"/>
<path d="M54.7263 99.612C54.0516 99.612 53.377 99.4517 53.3427 99.0049C53.3313 98.8331 53.4227 98.5811 53.903 98.3863C54.1774 98.2718 54.5548 98.2031 54.9435 98.1687C55.6982 98.1114 56.613 98.2374 56.6473 98.7644C56.6587 98.9362 56.5673 99.1882 56.087 99.3829C55.8126 99.4975 55.4352 99.5662 55.0465 99.6006C54.9435 99.612 54.8292 99.612 54.7263 99.612ZM54.0288 98.9591C54.2117 99.0164 54.5548 99.0622 55.0122 99.0278C55.4695 98.9935 55.8011 98.9018 55.9727 98.8216C55.7897 98.7644 55.4467 98.7185 54.9893 98.7529C54.5319 98.7873 54.2003 98.8789 54.0288 98.9591Z" fill="#F8F8EE"/>
<path d="M37.9402 105.122C37.2655 105.122 36.5909 104.962 36.5566 104.515C36.5451 104.343 36.6366 104.091 37.1169 103.896C37.4027 103.782 37.7686 103.713 38.1574 103.679C38.5462 103.656 38.9235 103.679 39.2208 103.736C39.7354 103.851 39.8497 104.091 39.8612 104.263C39.8726 104.435 39.7811 104.687 39.3009 104.881C39.0264 104.996 38.6491 105.065 38.2603 105.099C38.1574 105.122 38.0431 105.122 37.9402 105.122ZM37.2427 104.469C37.4256 104.526 37.7686 104.572 38.226 104.538C38.6834 104.503 39.015 104.412 39.1865 104.332C39.0036 104.274 38.6605 104.229 38.2032 104.263C37.7458 104.286 37.4142 104.389 37.2427 104.469Z" fill="#F8F8EE"/>
<path d="M38.466 99.5549C37.7914 99.5549 37.1168 99.3945 37.0825 98.9478C37.071 98.7759 37.1625 98.5239 37.6427 98.3292C37.9172 98.2147 38.2945 98.1459 38.6833 98.1116C39.0721 98.0886 39.4494 98.1001 39.7467 98.1688C40.2613 98.2834 40.3756 98.5239 40.387 98.6958C40.3985 98.8676 40.307 99.1196 39.8267 99.3143C39.5409 99.4289 39.175 99.4976 38.7862 99.532C38.6833 99.5434 38.5804 99.5549 38.466 99.5549ZM37.7685 98.8905C37.9515 98.9478 38.2945 98.9936 38.7519 98.9592C39.2093 98.9249 39.5409 98.8332 39.7124 98.753C39.5295 98.6958 39.1864 98.6499 38.729 98.6843C38.2831 98.7187 37.9515 98.8103 37.7685 98.8905Z" fill="#F8F8EE"/>
<path d="M155.51 144H78.727C73.7873 144 69.7852 139.991 69.7852 135.042V129.819C69.7852 127.597 71.5804 125.798 73.7987 125.798H160.439C162.657 125.798 164.452 127.597 164.452 129.819V135.042C164.452 139.991 160.45 144 155.51 144Z" fill="#353535"/>
<path d="M85.0734 107.55L77.5151 120.621C74.9423 125.076 78.1555 130.632 83.3125 130.632H98.429C103.575 130.632 106.799 125.065 104.226 120.621L96.668 107.55C94.0838 103.106 87.6462 103.106 85.0734 107.55Z" fill="#E0E0E0"/>
<path opacity="0.11" d="M81.2773 119.429C81.243 119.429 81.2087 119.418 81.1744 119.383C80.9228 119.131 80.6369 118.685 80.6026 118.284C80.5912 118.055 80.6712 117.814 80.8313 117.654C80.9457 117.539 81.1058 117.482 81.2544 117.493C81.4031 117.505 81.5288 117.585 81.6432 117.688C81.6661 117.596 81.6889 117.505 81.7347 117.436C81.9405 117.104 82.3979 117.058 82.718 117.207C82.9239 117.31 83.0725 117.459 83.2212 117.619C83.3469 117.757 83.4727 117.894 83.6328 117.963C83.7014 117.997 83.7357 118.077 83.7014 118.158C83.6671 118.238 83.5871 118.261 83.507 118.226C83.3012 118.123 83.1525 117.974 83.0039 117.814C82.8781 117.677 82.7523 117.539 82.5923 117.47C82.3979 117.379 82.1006 117.39 81.9748 117.596C81.8947 117.734 81.8947 117.974 81.9176 118.135C81.9291 118.203 81.8833 118.272 81.8147 118.295C81.7461 118.318 81.6775 118.284 81.6432 118.215C81.5517 118.02 81.3916 117.814 81.2315 117.802C81.1401 117.78 81.0829 117.848 81.0372 117.883C80.9457 117.986 80.8771 118.146 80.8885 118.284C80.9114 118.593 81.1515 118.982 81.3802 119.2C81.4374 119.257 81.4374 119.349 81.3802 119.406C81.3573 119.406 81.3116 119.429 81.2773 119.429Z" fill="#212121"/>
<path opacity="0.11" d="M79.7334 123.45C79.6991 123.45 79.6648 123.438 79.6305 123.415C79.4132 123.209 79.2646 122.934 79.2074 122.648C79.1617 122.442 79.1845 122.27 79.2646 122.144C79.4132 121.903 79.7334 121.892 79.9392 121.983C80.145 122.075 80.2822 122.258 80.3966 122.407C80.4423 122.465 80.4309 122.556 80.3737 122.613C80.3051 122.659 80.2251 122.648 80.1679 122.591C80.065 122.465 79.9506 122.316 79.8134 122.258C79.7105 122.213 79.5619 122.213 79.4933 122.316C79.4475 122.396 79.459 122.51 79.4704 122.602C79.5161 122.843 79.6419 123.06 79.8134 123.221C79.8706 123.278 79.8706 123.369 79.8134 123.427C79.802 123.438 79.7677 123.45 79.7334 123.45Z" fill="#212121"/>
<path opacity="0.11" d="M89.7502 117.631C89.693 117.631 89.6358 117.596 89.6129 117.528C89.5329 117.298 89.4071 117.069 89.247 116.886C89.1327 116.749 89.0183 116.68 88.9154 116.657C88.7782 116.623 88.6181 116.703 88.5381 116.84C88.4581 116.978 88.4809 117.172 88.5724 117.287C88.6181 117.344 88.6181 117.436 88.5495 117.493C88.4924 117.539 88.4009 117.539 88.3437 117.47C88.1722 117.264 88.1379 116.943 88.2751 116.703C88.4123 116.462 88.6982 116.325 88.9612 116.382C89.1327 116.416 89.2813 116.52 89.4529 116.703C89.6358 116.92 89.7845 117.172 89.8759 117.447C89.8988 117.528 89.8645 117.608 89.7845 117.631C89.7845 117.631 89.7616 117.631 89.7502 117.631Z" fill="#212121"/>
<path opacity="0.11" d="M88.5154 123.335C88.4468 123.335 88.3897 123.289 88.3782 123.221C88.2982 122.888 88.2524 122.556 88.241 122.224C88.2181 121.892 88.3439 121.777 88.4583 121.731C88.5726 121.686 88.6869 121.72 88.7441 121.731C88.8813 121.777 89.0071 121.835 89.1215 121.903C89.1558 121.674 89.3044 121.468 89.5102 121.376C89.9104 121.205 90.3221 121.422 90.5394 121.571C90.6423 121.64 90.7452 121.72 90.8367 121.8C90.9853 121.926 91.1339 122.041 91.294 122.121C91.3626 122.155 91.3969 122.247 91.3512 122.316C91.3169 122.384 91.2254 122.419 91.1568 122.373C90.9624 122.281 90.8023 122.144 90.6537 122.018C90.5622 121.938 90.4707 121.869 90.3678 121.8C90.2077 121.686 89.8876 121.525 89.6132 121.64C89.4988 121.686 89.4188 121.823 89.3959 121.961C89.3845 122.006 89.3845 122.087 89.4302 122.155C89.4531 122.178 89.4645 122.19 89.4759 122.213C89.5217 122.27 89.5217 122.35 89.4759 122.407C89.4302 122.465 89.3387 122.465 89.2815 122.419C89.2587 122.396 89.2358 122.373 89.2129 122.35C89.0529 122.19 88.8585 122.075 88.6526 122.006C88.6298 122.006 88.584 121.983 88.5612 121.995C88.5383 122.006 88.5154 122.064 88.5154 122.213C88.5269 122.533 88.5726 122.854 88.6526 123.163C88.6755 123.243 88.6183 123.312 88.5497 123.335C88.5383 123.335 88.5269 123.335 88.5154 123.335Z" fill="#212121"/>
<path opacity="0.11" d="M92.0942 110.288C92.0256 110.288 91.9684 110.242 91.957 110.162C91.8998 109.83 91.9113 109.486 91.9799 109.154C92.0142 108.982 92.0828 108.73 92.2886 108.604C92.5173 108.455 92.8032 108.535 92.9861 108.673C93.0776 108.741 93.1576 108.833 93.2148 108.925C93.2834 108.81 93.3749 108.719 93.4893 108.638C93.7408 108.467 94.061 108.398 94.3468 108.455C94.8843 108.558 95.2845 109.005 95.5475 109.314C95.5932 109.372 95.5932 109.463 95.5246 109.52C95.4674 109.566 95.376 109.566 95.3188 109.497C95.0901 109.211 94.7242 108.822 94.2897 108.73C94.0724 108.684 93.8323 108.741 93.6493 108.867C93.5464 108.936 93.4206 109.074 93.3863 109.268C93.3749 109.326 93.3292 109.371 93.272 109.383C93.2148 109.394 93.1462 109.372 93.1233 109.314C93.0319 109.165 92.9404 108.993 92.8032 108.89C92.7003 108.81 92.5402 108.764 92.4258 108.833C92.3344 108.89 92.2772 109.005 92.2429 109.2C92.1857 109.497 92.1743 109.807 92.22 110.105C92.2314 110.185 92.1743 110.254 92.1057 110.265C92.1057 110.288 92.1057 110.288 92.0942 110.288Z" fill="#212121"/>
<path opacity="0.11" d="M98.2349 123.003C98.1777 123.003 98.1206 122.969 98.0977 122.911C97.9833 122.614 97.9376 122.293 97.9833 121.984C98.0062 121.743 98.132 121.48 98.395 121.445C98.5208 121.422 98.6237 121.48 98.7037 121.525C99.0696 121.732 99.3784 122.029 99.6071 122.396C99.6528 122.465 99.6299 122.556 99.5613 122.591C99.4927 122.636 99.4127 122.614 99.3669 122.545C99.1725 122.224 98.8981 121.961 98.5665 121.777C98.5208 121.754 98.4636 121.72 98.4293 121.732C98.3493 121.743 98.2921 121.88 98.2806 122.018C98.2463 122.281 98.2806 122.556 98.3836 122.808C98.4179 122.877 98.3721 122.969 98.3035 122.992C98.2692 123.003 98.2463 123.003 98.2349 123.003Z" fill="#212121"/>
<path opacity="0.11" d="M97.7085 130.792H84.0327C83.9527 130.792 83.8955 130.724 83.8955 130.655V118.833C83.8955 116.542 85.7593 114.687 88.0348 114.687H93.7064C95.9933 114.687 97.8457 116.542 97.8457 118.833V130.655C97.8457 130.724 97.7885 130.792 97.7085 130.792ZM84.1699 130.506H97.5598V118.833C97.5598 116.703 95.8332 114.973 93.7064 114.973H88.0348C85.908 114.973 84.1814 116.703 84.1814 118.833V130.506H84.1699Z" fill="#212121"/>
<path d="M97.709 130.643H84.0332V118.822C84.0332 116.611 85.8284 114.813 88.0353 114.813H93.7069C95.9137 114.813 97.709 116.611 97.709 118.822V130.643Z" fill="#212121"/>
<g opacity="0.11">
<path opacity="0.11" d="M88.8469 110.185C88.664 110.185 88.5039 110.036 88.5039 109.841C88.5039 109.658 88.6526 109.498 88.8469 109.498C89.0299 109.498 89.19 109.647 89.19 109.841C89.19 110.036 89.0413 110.185 88.8469 110.185ZM88.8469 109.796C88.8126 109.796 88.7898 109.819 88.7898 109.853C88.7898 109.91 88.8927 109.91 88.8927 109.853C88.9041 109.819 88.8812 109.796 88.8469 109.796Z" fill="#212121"/>
<path opacity="0.11" d="M86.2171 111.457C86.0341 111.457 85.874 111.308 85.874 111.113C85.874 110.918 86.0227 110.769 86.2171 110.769C86.4115 110.769 86.5601 110.918 86.5601 111.113C86.5601 111.308 86.4 111.457 86.2171 111.457ZM86.2171 111.067C86.1828 111.067 86.1599 111.09 86.1599 111.124C86.1599 111.182 86.2628 111.182 86.2628 111.124C86.2628 111.09 86.2399 111.067 86.2171 111.067Z" fill="#212121"/>
<path opacity="0.11" d="M88.6527 112.213C88.3554 112.213 88.1152 111.972 88.1152 111.674C88.1152 111.376 88.3554 111.136 88.6527 111.136C88.95 111.136 89.1901 111.376 89.1901 111.674C89.1901 111.972 88.95 112.213 88.6527 112.213ZM88.6527 111.422C88.5154 111.422 88.4011 111.537 88.4011 111.674C88.4011 111.812 88.5154 111.926 88.6527 111.926C88.7899 111.926 88.9042 111.812 88.9042 111.674C88.9042 111.537 88.7899 111.422 88.6527 111.422Z" fill="#212121"/>
</g>
<g opacity="0.11">
<path opacity="0.11" d="M101.825 123.977C101.745 123.977 101.676 123.954 101.608 123.896C101.471 123.77 101.448 123.564 101.562 123.415C101.676 123.278 101.894 123.255 102.042 123.369C102.191 123.495 102.202 123.702 102.088 123.851C102.019 123.942 101.916 123.977 101.825 123.977ZM101.825 123.587C101.814 123.587 101.791 123.599 101.779 123.61C101.756 123.633 101.768 123.667 101.791 123.69C101.814 123.702 101.848 123.702 101.871 123.679C101.894 123.656 101.882 123.621 101.859 123.599C101.848 123.587 101.836 123.587 101.825 123.587Z" fill="#212121"/>
<path opacity="0.11" d="M98.978 123.266C98.898 123.266 98.8294 123.244 98.7608 123.186C98.6922 123.129 98.6464 123.049 98.635 122.957C98.6236 122.866 98.6579 122.774 98.715 122.705C98.8408 122.556 99.0466 122.545 99.1953 122.659C99.2639 122.717 99.3096 122.797 99.3211 122.888C99.3325 122.98 99.2982 123.072 99.241 123.14C99.1724 123.232 99.0809 123.266 98.978 123.266ZM98.978 122.877C98.9666 122.877 98.9437 122.888 98.9323 122.9C98.9209 122.911 98.9209 122.934 98.9209 122.946C98.9209 122.957 98.9209 122.969 98.9437 122.98C98.9666 123.003 99.0009 122.992 99.0238 122.98C99.0466 122.957 99.0352 122.923 99.0123 122.9C99.0123 122.877 98.9895 122.877 98.978 122.877Z" fill="#212121"/>
<path opacity="0.11" d="M100.499 125.454C100.373 125.454 100.258 125.408 100.156 125.328C100.041 125.237 99.9726 125.111 99.9612 124.962C99.9498 124.824 99.9955 124.675 100.087 124.572C100.281 124.343 100.613 124.32 100.842 124.504C100.956 124.595 101.025 124.721 101.036 124.87C101.047 125.008 101.002 125.156 100.91 125.26C100.807 125.386 100.647 125.454 100.499 125.454ZM100.499 124.664C100.43 124.664 100.35 124.698 100.304 124.756C100.259 124.801 100.236 124.87 100.247 124.939C100.247 125.008 100.281 125.065 100.339 125.111C100.441 125.202 100.602 125.191 100.693 125.076C100.739 125.03 100.762 124.962 100.75 124.893C100.75 124.824 100.716 124.767 100.659 124.721C100.613 124.687 100.556 124.664 100.499 124.664Z" fill="#212121"/>
</g>
<path d="M157.878 125.455H137.112C135.077 125.455 133.419 123.794 133.419 121.755V117.562C133.419 115.523 135.077 113.862 137.112 113.862H157.878C159.913 113.862 161.571 115.523 161.571 117.562V121.755C161.571 123.794 159.913 125.455 157.878 125.455Z" fill="#F2F2F2"/>
<path opacity="0.11" d="M138.633 121.663C138.598 121.663 138.564 121.651 138.53 121.617C138.267 121.365 137.969 120.895 137.935 120.483C137.912 120.254 138.004 120.002 138.164 119.842C138.29 119.716 138.438 119.658 138.587 119.67C138.747 119.681 138.884 119.773 138.987 119.876C139.01 119.784 139.033 119.693 139.09 119.601C139.296 119.257 139.765 119.211 140.096 119.36C140.314 119.463 140.462 119.624 140.611 119.784C140.748 119.922 140.874 120.059 141.034 120.139C141.103 120.174 141.137 120.254 141.103 120.334C141.068 120.403 140.988 120.437 140.908 120.403C140.691 120.3 140.542 120.139 140.394 119.979C140.256 119.842 140.131 119.704 139.97 119.624C139.765 119.521 139.456 119.544 139.33 119.75C139.239 119.899 139.239 120.128 139.273 120.3C139.284 120.368 139.239 120.437 139.17 120.46C139.101 120.483 139.033 120.449 138.999 120.38C138.907 120.174 138.736 119.956 138.564 119.945C138.461 119.933 138.404 119.99 138.358 120.025C138.255 120.128 138.198 120.288 138.21 120.437C138.232 120.758 138.484 121.159 138.713 121.388C138.77 121.445 138.77 121.537 138.713 121.594C138.701 121.64 138.667 121.663 138.633 121.663Z" fill="#212121"/>
<path opacity="0.11" d="M137.031 123.461C136.997 123.461 136.963 123.45 136.929 123.427C136.711 123.22 136.551 122.934 136.494 122.636C136.448 122.419 136.471 122.247 136.551 122.121C136.711 121.88 137.02 121.857 137.237 121.96C137.443 122.052 137.58 122.235 137.706 122.396C137.752 122.453 137.74 122.545 137.683 122.602C137.615 122.648 137.535 122.636 137.477 122.579C137.363 122.442 137.249 122.293 137.111 122.235C136.997 122.19 136.848 122.19 136.78 122.293C136.723 122.373 136.734 122.499 136.757 122.602C136.814 122.842 136.94 123.072 137.111 123.243C137.169 123.301 137.169 123.392 137.111 123.45C137.1 123.45 137.066 123.461 137.031 123.461Z" fill="#212121"/>
<path opacity="0.11" d="M147.357 119.807C147.3 119.807 147.243 119.773 147.22 119.704C147.14 119.464 147.014 119.235 146.843 119.04C146.717 118.902 146.602 118.822 146.5 118.799C146.351 118.765 146.179 118.845 146.111 118.983C146.031 119.12 146.054 119.326 146.156 119.452C146.202 119.509 146.202 119.601 146.134 119.658C146.076 119.704 145.985 119.704 145.928 119.635C145.745 119.418 145.722 119.097 145.859 118.845C145.996 118.593 146.294 118.456 146.568 118.513C146.74 118.547 146.9 118.662 147.071 118.845C147.266 119.063 147.414 119.326 147.506 119.601C147.529 119.681 147.494 119.761 147.414 119.784C147.391 119.807 147.38 119.807 147.357 119.807Z" fill="#212121"/>
<path opacity="0.11" d="M146.088 123.335C146.019 123.335 145.962 123.289 145.95 123.221C145.87 122.877 145.825 122.533 145.802 122.19C145.779 121.858 145.916 121.732 146.019 121.686C146.122 121.64 146.225 121.663 146.316 121.686C146.454 121.732 146.591 121.789 146.717 121.869C146.751 121.628 146.911 121.411 147.117 121.319C147.528 121.136 147.952 121.365 148.169 121.514C148.272 121.583 148.375 121.674 148.478 121.754C148.638 121.88 148.775 122.007 148.946 122.087C149.015 122.121 149.049 122.213 149.004 122.281C148.969 122.35 148.878 122.385 148.809 122.339C148.615 122.236 148.455 122.098 148.295 121.972C148.203 121.892 148.1 121.812 148.009 121.743C147.871 121.651 147.528 121.445 147.231 121.571C147.117 121.617 147.025 121.754 147.002 121.903C146.991 121.949 146.991 122.041 147.037 122.11C147.06 122.133 147.071 122.144 147.094 122.167C147.14 122.224 147.14 122.304 147.094 122.362C147.048 122.419 146.957 122.419 146.9 122.373C146.877 122.35 146.842 122.327 146.82 122.293C146.648 122.133 146.454 122.007 146.236 121.938C146.213 121.938 146.156 121.915 146.133 121.926C146.111 121.938 146.076 122.007 146.088 122.155C146.099 122.476 146.156 122.808 146.225 123.129C146.248 123.209 146.191 123.278 146.122 123.301C146.111 123.335 146.099 123.335 146.088 123.335Z" fill="#212121"/>
<path opacity="0.11" d="M153.966 120.426C153.898 120.426 153.841 120.38 153.829 120.3C153.772 119.968 153.783 119.601 153.852 119.269C153.886 119.086 153.966 118.833 154.172 118.696C154.378 118.57 154.664 118.593 154.892 118.765C154.984 118.845 155.064 118.937 155.133 119.028C155.201 118.914 155.293 118.811 155.418 118.719C155.67 118.536 156.002 118.467 156.299 118.536C156.848 118.65 157.271 119.097 157.534 119.429C157.58 119.486 157.58 119.578 157.511 119.635C157.454 119.693 157.362 119.681 157.305 119.612C157.065 119.315 156.699 118.914 156.242 118.822C156.025 118.776 155.773 118.834 155.579 118.96C155.476 119.04 155.338 119.166 155.304 119.383C155.293 119.441 155.247 119.486 155.19 119.498C155.133 119.509 155.064 119.486 155.041 119.429C154.95 119.269 154.847 119.097 154.71 118.994C154.607 118.914 154.435 118.868 154.321 118.937C154.229 118.994 154.172 119.12 154.126 119.326C154.069 119.635 154.058 119.956 154.104 120.254C154.115 120.334 154.058 120.403 153.989 120.414C153.978 120.414 153.978 120.426 153.966 120.426Z" fill="#212121"/>
<path opacity="0.11" d="M156.104 123.003C156.047 123.003 155.99 122.969 155.967 122.911C155.853 122.613 155.807 122.281 155.841 121.961C155.876 121.709 155.99 121.434 156.253 121.411C156.367 121.388 156.482 121.445 156.573 121.502C156.95 121.709 157.271 122.018 157.499 122.396C157.545 122.465 157.522 122.556 157.453 122.591C157.385 122.636 157.293 122.613 157.259 122.545C157.053 122.213 156.767 121.938 156.436 121.754C156.379 121.72 156.321 121.697 156.287 121.697C156.207 121.709 156.139 121.857 156.127 121.995C156.093 122.27 156.127 122.556 156.23 122.808C156.264 122.877 156.219 122.969 156.15 122.991C156.139 122.991 156.127 123.003 156.104 123.003Z" fill="#212121"/>
<path d="M160.267 117.104H134.733C132.698 117.104 131.04 115.443 131.04 113.404V111.159C131.04 109.12 132.698 107.459 134.733 107.459H160.267C162.302 107.459 163.96 109.12 163.96 111.159V113.404C163.96 115.443 162.291 117.104 160.267 117.104Z" fill="#FF7664"/>
<path d="M137.535 107.459H135.191V117.104H137.535V107.459Z" fill="#F94A3D"/>
<path d="M144.67 107.459H142.326V117.104H144.67V107.459Z" fill="#F94A3D"/>
<path d="M152.194 107.459H149.85V117.104H152.194V107.459Z" fill="#F94A3D"/>
<path d="M159.569 107.459H157.225V117.104H159.569V107.459Z" fill="#F94A3D"/>
<path d="M129.851 112.304H105.815V126.725H129.851V112.304Z" fill="#212121"/>
<path d="M117.822 116.313C124.453 116.313 129.828 114.539 129.828 112.35C129.828 110.161 124.453 108.386 117.822 108.386C111.191 108.386 105.815 110.161 105.815 112.35C105.815 114.539 111.191 116.313 117.822 116.313Z" fill="#F8F8EE"/>
<path d="M114.231 111.938C114.231 111.285 115.844 110.746 117.833 110.746C119.823 110.746 121.435 111.273 121.435 111.938C121.435 112.591 119.823 113.129 117.833 113.129C115.844 113.117 114.231 112.591 114.231 111.938Z" fill="#F94A3D"/>
<path opacity="0.11" d="M114.94 110.804C114.871 110.804 114.814 110.758 114.803 110.689C114.746 110.345 114.757 109.99 114.826 109.658C114.86 109.475 114.928 109.223 115.146 109.085C115.386 108.937 115.672 109.017 115.855 109.154C115.958 109.234 116.026 109.326 116.095 109.418C116.163 109.303 116.255 109.2 116.381 109.108C116.632 108.925 116.964 108.856 117.261 108.925C117.81 109.04 118.222 109.486 118.496 109.819C118.542 109.876 118.542 109.967 118.473 110.025C118.416 110.071 118.325 110.071 118.267 110.002C118.027 109.704 117.661 109.303 117.204 109.211C116.987 109.166 116.735 109.223 116.541 109.349C116.438 109.429 116.301 109.555 116.266 109.773C116.255 109.83 116.209 109.876 116.152 109.887C116.095 109.899 116.038 109.876 116.003 109.819C115.9 109.647 115.809 109.486 115.672 109.383C115.569 109.303 115.409 109.257 115.283 109.326C115.191 109.383 115.134 109.509 115.089 109.715C115.031 110.025 115.02 110.345 115.066 110.643C115.077 110.723 115.02 110.792 114.951 110.804C114.951 110.804 114.94 110.804 114.94 110.804Z" fill="#212121"/>
<g opacity="0.11">
<path opacity="0.11" d="M111.59 110.712C111.396 110.712 111.247 110.551 111.247 110.368C111.247 110.185 111.407 110.024 111.59 110.024C111.773 110.024 111.933 110.185 111.933 110.368C111.933 110.551 111.784 110.712 111.59 110.712ZM111.59 110.299C111.556 110.299 111.533 110.322 111.533 110.357C111.533 110.425 111.659 110.425 111.659 110.357C111.659 110.334 111.624 110.299 111.59 110.299Z" fill="#212121"/>
<path opacity="0.11" d="M108.868 112.017C108.674 112.017 108.525 111.857 108.525 111.674C108.525 111.49 108.685 111.33 108.868 111.33C109.051 111.33 109.211 111.49 109.211 111.674C109.211 111.857 109.063 112.017 108.868 112.017ZM108.868 111.616C108.834 111.616 108.811 111.639 108.811 111.674C108.811 111.742 108.937 111.742 108.937 111.674C108.937 111.639 108.903 111.616 108.868 111.616Z" fill="#212121"/>
<path opacity="0.11" d="M111.384 112.796C111.087 112.796 110.835 112.556 110.835 112.247C110.835 111.949 111.087 111.697 111.384 111.697C111.682 111.697 111.933 111.937 111.933 112.247C111.945 112.556 111.693 112.796 111.384 112.796ZM111.384 111.983C111.236 111.983 111.121 112.098 111.121 112.247C111.121 112.396 111.236 112.51 111.384 112.51C111.533 112.51 111.647 112.396 111.647 112.247C111.647 112.098 111.533 111.983 111.384 111.983Z" fill="#212121"/>
</g>
<g opacity="0.11">
<path opacity="0.11" d="M125.631 112.041C125.437 112.041 125.288 111.88 125.288 111.697C125.288 111.514 125.448 111.354 125.631 111.354C125.826 111.354 125.974 111.514 125.974 111.697C125.974 111.88 125.826 112.041 125.631 112.041ZM125.631 111.64C125.597 111.64 125.574 111.663 125.574 111.697C125.574 111.766 125.7 111.766 125.7 111.697C125.7 111.663 125.665 111.64 125.631 111.64Z" fill="#212121"/>
<path opacity="0.11" d="M122.921 113.358C122.727 113.358 122.578 113.198 122.578 113.014C122.578 112.82 122.738 112.671 122.921 112.671C123.116 112.671 123.264 112.831 123.264 113.014C123.264 113.198 123.104 113.358 122.921 113.358ZM122.921 112.946C122.887 112.946 122.864 112.968 122.864 113.003C122.864 113.072 122.99 113.072 122.99 113.003C122.978 112.98 122.944 112.946 122.921 112.946Z" fill="#212121"/>
<path opacity="0.11" d="M125.437 114.137C125.139 114.137 124.888 113.896 124.888 113.587C124.888 113.289 125.139 113.037 125.437 113.037C125.734 113.037 125.985 113.278 125.985 113.587C125.985 113.885 125.734 114.137 125.437 114.137ZM125.437 113.324C125.288 113.324 125.174 113.438 125.174 113.587C125.174 113.736 125.288 113.851 125.437 113.851C125.585 113.851 125.7 113.736 125.7 113.587C125.7 113.438 125.574 113.324 125.437 113.324Z" fill="#212121"/>
</g>
<path d="M155.899 139.327H135.134C133.098 139.327 131.44 137.666 131.44 135.627V131.434C131.44 129.395 133.098 127.734 135.134 127.734H155.899C157.934 127.734 159.592 129.395 159.592 131.434V135.627C159.592 137.666 157.934 139.327 155.899 139.327Z" fill="#F2F2F2"/>
<path opacity="0.11" d="M136.643 135.535C136.609 135.535 136.575 135.523 136.54 135.489C136.277 135.225 135.98 134.767 135.957 134.355C135.934 134.126 136.026 133.874 136.186 133.713C136.312 133.587 136.46 133.53 136.62 133.542C136.769 133.553 136.906 133.633 137.02 133.748C137.032 133.656 137.066 133.553 137.123 133.473C137.341 133.129 137.798 133.083 138.13 133.232C138.347 133.335 138.496 133.496 138.644 133.656C138.781 133.794 138.907 133.931 139.067 134.011C139.136 134.046 139.17 134.126 139.136 134.206C139.102 134.275 139.022 134.309 138.942 134.275C138.724 134.172 138.576 134.011 138.427 133.851C138.29 133.713 138.164 133.576 138.004 133.496C137.798 133.393 137.489 133.416 137.364 133.622C137.272 133.771 137.272 134.011 137.306 134.172C137.318 134.24 137.272 134.309 137.203 134.332C137.135 134.355 137.066 134.32 137.032 134.252C136.94 134.046 136.769 133.828 136.597 133.816C136.517 133.805 136.437 133.862 136.392 133.908C136.289 134.011 136.232 134.172 136.243 134.32C136.266 134.641 136.517 135.042 136.746 135.271C136.803 135.328 136.803 135.42 136.746 135.477C136.723 135.512 136.689 135.535 136.643 135.535Z" fill="#212121"/>
<path opacity="0.11" d="M135.054 137.333C135.02 137.333 134.985 137.322 134.951 137.299C134.734 137.093 134.574 136.806 134.516 136.508C134.471 136.291 134.494 136.119 134.574 135.981C134.734 135.741 135.042 135.718 135.26 135.821C135.466 135.913 135.614 136.107 135.729 136.256C135.774 136.314 135.763 136.405 135.706 136.462C135.649 136.508 135.557 136.497 135.5 136.44C135.374 136.279 135.271 136.153 135.134 136.096C135.031 136.05 134.871 136.05 134.802 136.153C134.745 136.233 134.757 136.359 134.779 136.451C134.837 136.692 134.962 136.921 135.134 137.093C135.191 137.15 135.191 137.241 135.134 137.299C135.123 137.322 135.088 137.333 135.054 137.333Z" fill="#212121"/>
<path opacity="0.11" d="M145.379 133.679C145.322 133.679 145.265 133.645 145.242 133.576C145.162 133.336 145.036 133.106 144.864 132.912C144.739 132.774 144.624 132.694 144.521 132.671C144.373 132.637 144.201 132.717 144.133 132.854C144.053 132.992 144.075 133.198 144.178 133.324C144.224 133.381 144.224 133.473 144.155 133.53C144.098 133.576 144.007 133.576 143.95 133.507C143.778 133.29 143.744 132.958 143.881 132.717C144.018 132.476 144.316 132.328 144.579 132.385C144.75 132.419 144.91 132.534 145.082 132.717C145.276 132.935 145.425 133.198 145.516 133.484C145.539 133.565 145.505 133.645 145.425 133.668C145.413 133.679 145.402 133.679 145.379 133.679Z" fill="#212121"/>
<path opacity="0.11" d="M144.11 137.207C144.041 137.207 143.984 137.162 143.972 137.093C143.892 136.761 143.847 136.417 143.824 136.062C143.801 135.73 143.938 135.604 144.052 135.558C144.155 135.512 144.27 135.535 144.35 135.558C144.487 135.604 144.624 135.661 144.739 135.741C144.773 135.501 144.933 135.283 145.139 135.191C145.55 135.008 145.974 135.237 146.191 135.386C146.294 135.455 146.397 135.546 146.499 135.627C146.66 135.753 146.808 135.879 146.968 135.959C147.037 135.993 147.071 136.085 147.025 136.153C146.991 136.222 146.9 136.257 146.831 136.211C146.637 136.108 146.465 135.97 146.305 135.844C146.214 135.764 146.111 135.684 146.019 135.615C145.882 135.523 145.539 135.317 145.242 135.443C145.127 135.489 145.036 135.627 145.013 135.775C145.002 135.821 145.002 135.913 145.047 135.982C145.07 136.005 145.082 136.016 145.104 136.039C145.15 136.096 145.15 136.176 145.104 136.234C145.059 136.291 144.967 136.291 144.91 136.245C144.887 136.222 144.853 136.199 144.841 136.165C144.67 136.005 144.476 135.879 144.258 135.821C144.19 135.798 144.167 135.798 144.155 135.81C144.133 135.821 144.098 135.89 144.11 136.039C144.133 136.371 144.178 136.703 144.247 137.013C144.27 137.093 144.213 137.162 144.144 137.184C144.121 137.207 144.121 137.207 144.11 137.207Z" fill="#212121"/>
<path opacity="0.11" d="M151.988 134.298C151.92 134.298 151.862 134.252 151.851 134.172C151.794 133.84 151.805 133.473 151.874 133.141C151.908 132.958 151.977 132.706 152.194 132.568C152.434 132.419 152.72 132.499 152.914 132.637C153.017 132.717 153.086 132.809 153.155 132.9C153.223 132.786 153.315 132.683 153.44 132.591C153.692 132.408 154.024 132.339 154.321 132.408C154.87 132.522 155.293 132.969 155.556 133.301C155.602 133.358 155.602 133.45 155.533 133.507C155.476 133.565 155.384 133.553 155.327 133.485C155.087 133.187 154.721 132.786 154.264 132.694C154.046 132.648 153.795 132.706 153.601 132.832C153.498 132.912 153.36 133.038 153.326 133.255C153.315 133.313 153.269 133.359 153.212 133.381C153.155 133.393 153.097 133.37 153.063 133.313C152.96 133.141 152.869 132.98 152.732 132.877C152.629 132.797 152.457 132.751 152.343 132.82C152.251 132.877 152.194 133.003 152.148 133.21C152.091 133.519 152.08 133.84 152.125 134.137C152.137 134.218 152.08 134.286 152.011 134.298C152 134.298 151.988 134.298 151.988 134.298Z" fill="#212121"/>
<path opacity="0.11" d="M154.127 136.875C154.069 136.875 154.012 136.841 153.989 136.783C153.875 136.486 153.829 136.153 153.864 135.833C153.898 135.581 154.012 135.306 154.275 135.283C154.39 135.26 154.504 135.317 154.595 135.374C154.973 135.581 155.293 135.89 155.522 136.268C155.567 136.337 155.545 136.428 155.476 136.463C155.407 136.508 155.316 136.486 155.282 136.417C155.076 136.085 154.79 135.81 154.458 135.626C154.413 135.592 154.355 135.581 154.31 135.569C154.23 135.581 154.161 135.729 154.15 135.867C154.115 136.142 154.15 136.428 154.252 136.68C154.287 136.749 154.241 136.841 154.172 136.864C154.161 136.864 154.15 136.875 154.127 136.875Z" fill="#212121"/>
<path d="M158.278 130.987H132.744C130.709 130.987 129.051 129.326 129.051 127.287V125.042C129.051 123.003 130.709 121.342 132.744 121.342H158.278C160.313 121.342 161.971 123.003 161.971 125.042V127.287C161.982 129.315 160.313 130.987 158.278 130.987Z" fill="#FF7664"/>
<path d="M135.557 121.331H133.213V130.976H135.557V121.331Z" fill="#F94A3D"/>
<path d="M142.692 121.331H140.348V130.976H142.692V121.331Z" fill="#F94A3D"/>
<path d="M150.216 121.331H147.872V130.976H150.216V121.331Z" fill="#F94A3D"/>
<path d="M157.591 121.331H155.247V130.976H157.591V121.331Z" fill="#F94A3D"/>
<path d="M127.93 123.163H103.895V137.585H127.93V123.163Z" fill="#212121"/>
<path d="M115.912 127.184C122.543 127.184 127.918 125.409 127.918 123.22C127.918 121.032 122.543 119.257 115.912 119.257C109.281 119.257 103.906 121.032 103.906 123.22C103.906 125.409 109.281 127.184 115.912 127.184Z" fill="#F8F8EE"/>
<path d="M112.311 122.797C112.311 122.144 113.923 121.605 115.912 121.605C117.902 121.605 119.514 122.132 119.514 122.797C119.514 123.45 117.902 123.988 115.912 123.988C113.923 123.988 112.311 123.45 112.311 122.797Z" fill="#F94A3D"/>
<path opacity="0.11" d="M113.019 121.674C112.95 121.674 112.893 121.628 112.882 121.548C112.825 121.205 112.836 120.85 112.905 120.517C112.939 120.334 113.008 120.082 113.225 119.945C113.465 119.796 113.751 119.876 113.945 120.013C114.048 120.093 114.117 120.185 114.185 120.277C114.254 120.162 114.345 120.059 114.471 119.967C114.723 119.784 115.054 119.715 115.352 119.784C115.901 119.899 116.312 120.345 116.587 120.666C116.632 120.723 116.632 120.815 116.564 120.872C116.507 120.93 116.415 120.918 116.358 120.85C116.118 120.552 115.752 120.151 115.295 120.059C115.066 120.013 114.826 120.071 114.631 120.197C114.528 120.277 114.391 120.403 114.357 120.62C114.345 120.678 114.3 120.723 114.243 120.735C114.185 120.735 114.117 120.723 114.094 120.666C114.002 120.506 113.899 120.334 113.762 120.231C113.659 120.151 113.488 120.105 113.374 120.174C113.282 120.231 113.225 120.357 113.179 120.552C113.122 120.861 113.111 121.17 113.168 121.48C113.179 121.56 113.122 121.628 113.053 121.64C113.03 121.674 113.03 121.674 113.019 121.674Z" fill="#212121"/>
<g opacity="0.11">
<path opacity="0.11" d="M109.669 121.571C109.474 121.571 109.326 121.411 109.326 121.227C109.326 121.033 109.486 120.884 109.669 120.884C109.852 120.884 110.012 121.044 110.012 121.227C110.023 121.422 109.863 121.571 109.669 121.571ZM109.669 121.17C109.634 121.17 109.612 121.193 109.612 121.227C109.612 121.296 109.737 121.296 109.737 121.227C109.737 121.193 109.703 121.17 109.669 121.17Z" fill="#212121"/>
<path opacity="0.11" d="M106.948 122.888C106.753 122.888 106.604 122.728 106.604 122.545C106.604 122.35 106.765 122.201 106.948 122.201C107.13 122.201 107.291 122.361 107.291 122.545C107.302 122.728 107.142 122.888 106.948 122.888ZM106.948 122.487C106.913 122.487 106.89 122.51 106.89 122.545C106.89 122.613 107.016 122.613 107.016 122.545C107.016 122.51 106.982 122.487 106.948 122.487Z" fill="#212121"/>
<path opacity="0.11" d="M109.463 123.667C109.166 123.667 108.914 123.427 108.914 123.117C108.914 122.82 109.166 122.568 109.463 122.568C109.76 122.568 110.012 122.808 110.012 123.117C110.023 123.415 109.772 123.667 109.463 123.667ZM109.463 122.854C109.314 122.854 109.2 122.969 109.2 123.117C109.2 123.266 109.314 123.381 109.463 123.381C109.612 123.381 109.726 123.266 109.726 123.117C109.737 122.969 109.612 122.854 109.463 122.854Z" fill="#212121"/>
</g>
<g opacity="0.11">
<path opacity="0.11" d="M123.71 122.911C123.516 122.911 123.367 122.751 123.367 122.568C123.367 122.373 123.527 122.224 123.71 122.224C123.905 122.224 124.053 122.384 124.053 122.568C124.065 122.751 123.905 122.911 123.71 122.911ZM123.71 122.499C123.676 122.499 123.653 122.522 123.653 122.556C123.653 122.625 123.767 122.625 123.767 122.556C123.779 122.533 123.745 122.499 123.71 122.499Z" fill="#212121"/>
<path opacity="0.11" d="M121 124.217C120.806 124.217 120.657 124.057 120.657 123.873C120.657 123.69 120.817 123.53 121 123.53C121.183 123.53 121.343 123.69 121.343 123.873C121.343 124.057 121.183 124.217 121 124.217ZM121 123.816C120.966 123.816 120.943 123.839 120.943 123.873C120.943 123.942 121.069 123.942 121.069 123.873C121.057 123.839 121.035 123.816 121 123.816Z" fill="#212121"/>
<path opacity="0.11" d="M123.516 124.996C123.218 124.996 122.967 124.756 122.967 124.446C122.967 124.148 123.218 123.896 123.516 123.896C123.813 123.896 124.065 124.137 124.065 124.446C124.065 124.756 123.813 124.996 123.516 124.996ZM123.516 124.183C123.367 124.183 123.253 124.297 123.253 124.446C123.253 124.595 123.367 124.71 123.516 124.71C123.664 124.71 123.779 124.595 123.779 124.446C123.779 124.309 123.664 124.183 123.516 124.183Z" fill="#212121"/>
</g>
<path d="M80.5563 117.012L72.7579 130.495C70.1051 135.088 73.4211 140.827 78.7267 140.827H94.3235C99.6291 140.827 102.945 135.088 100.292 130.495L92.494 117.012C89.8411 112.43 83.2091 112.43 80.5563 117.012Z" fill="white"/>
<path opacity="0.11" d="M76.6461 129.246C76.6118 129.246 76.5775 129.234 76.5432 129.2C76.2802 128.937 75.9829 128.478 75.96 128.066C75.9372 127.837 76.0286 127.585 76.1887 127.425C76.3145 127.299 76.4631 127.241 76.6118 127.253C76.7604 127.264 76.8977 127.344 77.012 127.459C77.0234 127.367 77.0577 127.264 77.1149 127.184C77.3207 126.84 77.7896 126.795 78.1212 126.943C78.3384 127.047 78.4871 127.207 78.6357 127.367C78.7729 127.505 78.8987 127.642 79.0588 127.722C79.1274 127.757 79.1617 127.837 79.1274 127.917C79.0931 127.986 79.0131 128.02 78.933 127.986C78.7158 127.883 78.5671 127.722 78.4185 127.562C78.2812 127.425 78.1555 127.287 77.9954 127.207C77.7896 127.104 77.4808 127.127 77.355 127.333C77.2636 127.482 77.2636 127.711 77.2979 127.883C77.3093 127.951 77.2636 128.02 77.195 128.043C77.1263 128.066 77.0577 128.032 77.0234 127.963C76.932 127.757 76.7604 127.539 76.5889 127.528C76.4974 127.516 76.4288 127.573 76.3831 127.619C76.2802 127.722 76.223 127.883 76.2344 128.032C76.2573 128.352 76.5089 128.753 76.7376 128.982C76.7947 129.04 76.7947 129.131 76.7376 129.189C76.7147 129.234 76.6804 129.246 76.6461 129.246Z" fill="#212121"/>
<path opacity="0.11" d="M75.0451 133.404C75.0108 133.404 74.9765 133.393 74.9422 133.37C74.7249 133.164 74.5649 132.877 74.5077 132.579C74.4619 132.362 74.4848 132.19 74.5649 132.064C74.7135 131.823 75.0337 131.8 75.2509 131.904C75.4568 131.995 75.594 132.178 75.7198 132.339C75.7655 132.396 75.7541 132.488 75.6969 132.545C75.6397 132.591 75.5482 132.579 75.4911 132.522C75.3881 132.385 75.2624 132.236 75.1252 132.178C75.0222 132.133 74.8622 132.133 74.7935 132.236C74.7364 132.316 74.7478 132.442 74.7707 132.534C74.8279 132.786 74.9536 133.015 75.1252 133.175C75.1823 133.232 75.1823 133.324 75.1252 133.381C75.1252 133.393 75.0794 133.404 75.0451 133.404Z" fill="#212121"/>
<path opacity="0.11" d="M85.3819 127.402C85.3247 127.402 85.2676 127.367 85.2447 127.299C85.1647 127.058 85.0274 126.829 84.8674 126.634C84.7416 126.497 84.6387 126.417 84.5243 126.394C84.3871 126.359 84.2042 126.44 84.1355 126.577C84.0555 126.714 84.0784 126.921 84.1813 127.047C84.227 127.104 84.227 127.196 84.1584 127.253C84.1012 127.299 84.0098 127.299 83.9526 127.23C83.7811 127.012 83.7468 126.68 83.884 126.44C84.0212 126.188 84.3071 126.05 84.5815 126.107C84.753 126.142 84.9131 126.256 85.0846 126.44C85.279 126.657 85.4277 126.921 85.5191 127.207C85.542 127.287 85.5077 127.367 85.4277 127.39C85.4048 127.402 85.3933 127.402 85.3819 127.402Z" fill="#212121"/>
<path opacity="0.11" d="M84.1014 133.278C84.0328 133.278 83.9756 133.232 83.9642 133.163C83.8841 132.831 83.8384 132.488 83.8155 132.132C83.7926 131.8 83.9299 131.674 84.0442 131.628C84.1471 131.583 84.25 131.606 84.3301 131.628C84.4673 131.674 84.6045 131.732 84.7303 131.812C84.7646 131.571 84.9247 131.353 85.1305 131.262C85.5421 131.079 85.9652 131.308 86.1825 131.457C86.2854 131.525 86.3883 131.617 86.4912 131.697C86.6513 131.823 86.7999 131.949 86.96 132.029C87.0286 132.064 87.0629 132.155 87.0172 132.224C86.9829 132.293 86.8914 132.327 86.8228 132.281C86.6284 132.178 86.4569 132.041 86.2968 131.915C86.2053 131.835 86.1139 131.766 86.011 131.686C85.8737 131.594 85.5307 131.388 85.2334 131.514C85.1191 131.56 85.0276 131.697 85.0047 131.846C84.9933 131.892 84.9933 131.984 85.039 132.052C85.0619 132.075 85.0733 132.087 85.0962 132.11C85.1419 132.167 85.1419 132.247 85.0962 132.304C85.0504 132.362 84.959 132.362 84.9018 132.316C84.8789 132.293 84.8446 132.27 84.8218 132.236C84.6502 132.075 84.4558 131.949 84.2386 131.88C84.1929 131.869 84.1586 131.869 84.1357 131.869C84.1128 131.88 84.0785 131.949 84.0899 132.098C84.1128 132.43 84.1585 132.762 84.2272 133.072C84.25 133.152 84.1929 133.221 84.1242 133.244C84.1242 133.278 84.1128 133.278 84.1014 133.278Z" fill="#212121"/>
<path opacity="0.11" d="M87.7944 119.83C87.7258 119.83 87.6686 119.784 87.6572 119.704C87.6 119.372 87.6115 119.005 87.6801 118.673C87.7144 118.49 87.783 118.238 88.0003 118.1C88.2289 117.951 88.5262 118.031 88.7092 118.169C88.8007 118.249 88.8807 118.341 88.9493 118.432C89.0179 118.318 89.1094 118.215 89.2352 118.123C89.4867 117.94 89.8183 117.871 90.1156 117.94C90.6645 118.054 91.0762 118.501 91.3506 118.833C91.3963 118.89 91.3963 118.982 91.3277 119.039C91.2705 119.097 91.1791 119.085 91.1219 119.016C90.8818 118.719 90.5159 118.318 90.0585 118.226C89.8412 118.18 89.5897 118.238 89.3953 118.364C89.2924 118.444 89.1551 118.57 89.1208 118.787C89.1094 118.845 89.0637 118.89 89.0065 118.902C88.9493 118.913 88.8807 118.89 88.8578 118.833C88.7664 118.673 88.6635 118.501 88.5262 118.398C88.4233 118.318 88.2632 118.26 88.1375 118.341C88.046 118.398 87.9888 118.524 87.9431 118.719C87.8859 119.028 87.8745 119.349 87.9202 119.646C87.9316 119.727 87.8745 119.795 87.8059 119.807C87.8059 119.83 87.8059 119.83 87.7944 119.83Z" fill="#212121"/>
<path opacity="0.11" d="M94.1179 132.934C94.0607 132.934 94.0035 132.9 93.9807 132.843C93.8663 132.545 93.8206 132.213 93.8549 131.892C93.8892 131.64 94.0035 131.365 94.2665 131.342C94.3809 131.319 94.4952 131.376 94.5867 131.434C94.964 131.64 95.2842 131.949 95.5129 132.327C95.5586 132.396 95.5358 132.488 95.4672 132.522C95.3986 132.568 95.3071 132.545 95.2728 132.476C95.067 132.144 94.7811 131.869 94.4495 131.686C94.4037 131.651 94.3351 131.628 94.3008 131.628C94.2208 131.64 94.1522 131.789 94.1408 131.926C94.1065 132.201 94.1408 132.488 94.2437 132.74C94.278 132.808 94.2322 132.9 94.1636 132.923C94.1522 132.934 94.1408 132.934 94.1179 132.934Z" fill="#212121"/>
<path opacity="0.11" d="M93.5803 140.964H79.4815C79.4014 140.964 79.3442 140.895 79.3442 140.827V128.513C79.3442 126.222 81.1966 124.366 83.4836 124.366H89.5896C91.8765 124.366 93.7289 126.233 93.7289 128.513V140.827C93.7175 140.907 93.6603 140.964 93.5803 140.964ZM79.6187 140.678H93.4316V128.513C93.4316 126.382 91.705 124.652 89.5782 124.652H83.4721C81.3453 124.652 79.6187 126.382 79.6187 128.513V140.678V140.678Z" fill="#212121"/>
<path d="M93.5803 140.827H79.4814V128.513C79.4814 126.302 81.2767 124.504 83.4835 124.504H89.5896C91.7965 124.504 93.5917 126.302 93.5917 128.513V140.827H93.5803Z" fill="#212121"/>
<g opacity="0.11">
<path opacity="0.11" d="M84.4553 119.727C84.261 119.727 84.1123 119.566 84.1123 119.383C84.1123 119.2 84.2724 119.04 84.4553 119.04C84.6497 119.04 84.7984 119.2 84.7984 119.383C84.7984 119.566 84.6383 119.727 84.4553 119.727ZM84.4553 119.314C84.421 119.314 84.3982 119.337 84.3982 119.372C84.3982 119.44 84.5125 119.44 84.5125 119.372C84.5125 119.349 84.4782 119.314 84.4553 119.314Z" fill="#212121"/>
<path opacity="0.11" d="M81.7341 121.044C81.5398 121.044 81.3911 120.884 81.3911 120.7C81.3911 120.506 81.5512 120.357 81.7341 120.357C81.9171 120.357 82.0772 120.517 82.0772 120.7C82.0772 120.884 81.9171 121.044 81.7341 121.044ZM81.7341 120.632C81.6998 120.632 81.677 120.655 81.677 120.689C81.677 120.758 81.8028 120.758 81.8028 120.689C81.7913 120.655 81.7684 120.632 81.7341 120.632Z" fill="#212121"/>
<path opacity="0.11" d="M84.2495 121.812C83.9522 121.812 83.7007 121.571 83.7007 121.262C83.7007 120.964 83.9522 120.712 84.2495 120.712C84.5468 120.712 84.7984 120.952 84.7984 121.262C84.7984 121.571 84.5468 121.812 84.2495 121.812ZM84.2495 120.998C84.1009 120.998 83.9865 121.113 83.9865 121.262C83.9865 121.411 84.1009 121.525 84.2495 121.525C84.3982 121.525 84.5125 121.411 84.5125 121.262C84.5125 121.124 84.3868 120.998 84.2495 120.998Z" fill="#212121"/>
</g>
<g opacity="0.11">
<path opacity="0.11" d="M97.8228 133.942C97.7427 133.942 97.6627 133.919 97.6055 133.862C97.5369 133.805 97.4912 133.725 97.4797 133.622C97.4683 133.53 97.5026 133.438 97.5598 133.37C97.6169 133.301 97.697 133.255 97.7999 133.244C97.8914 133.232 97.9829 133.267 98.0515 133.324C98.1201 133.381 98.1658 133.461 98.1772 133.553C98.1887 133.645 98.1544 133.736 98.0972 133.805C98.0286 133.908 97.9257 133.942 97.8228 133.942ZM97.8228 133.541C97.8113 133.541 97.7885 133.541 97.777 133.564C97.7656 133.576 97.7656 133.599 97.7656 133.61C97.7656 133.622 97.7656 133.633 97.7885 133.656C97.8113 133.679 97.8571 133.679 97.8685 133.645C97.8914 133.622 97.8799 133.576 97.8571 133.564C97.8456 133.541 97.8342 133.541 97.8228 133.541Z" fill="#212121"/>
<path opacity="0.11" d="M94.8951 133.209C94.815 133.209 94.735 133.186 94.6778 133.129C94.5292 133.003 94.5178 132.785 94.6321 132.637C94.7579 132.488 94.9751 132.476 95.1238 132.591C95.1924 132.648 95.2381 132.74 95.2496 132.831C95.261 132.923 95.2267 133.015 95.1695 133.083C95.1123 133.152 95.0323 133.198 94.9294 133.209C94.918 133.209 94.9065 133.209 94.8951 133.209ZM94.8951 132.808C94.8837 132.808 94.8608 132.82 94.8494 132.831C94.8265 132.854 94.8265 132.889 94.8608 132.911C94.8837 132.934 94.9294 132.923 94.9408 132.9C94.9637 132.877 94.9637 132.843 94.9294 132.82C94.9294 132.808 94.9065 132.808 94.8951 132.808Z" fill="#212121"/>
<path opacity="0.11" d="M96.4617 135.466C96.3359 135.466 96.2102 135.42 96.1072 135.34C95.9929 135.248 95.9243 135.111 95.9129 134.962C95.9014 134.813 95.9472 134.676 96.0386 134.561C96.233 134.332 96.5761 134.298 96.8162 134.492C96.9305 134.584 96.9991 134.721 97.0106 134.87C97.022 135.019 96.9763 135.157 96.8848 135.271C96.7705 135.397 96.6104 135.466 96.4617 135.466ZM96.4617 134.653C96.3817 134.653 96.3131 134.687 96.2559 134.744C96.2102 134.802 96.1873 134.87 96.1987 134.939C96.2102 135.008 96.2445 135.077 96.2902 135.122C96.4045 135.214 96.5646 135.203 96.6561 135.088C96.7018 135.031 96.7247 134.962 96.7133 134.893C96.7133 134.825 96.679 134.756 96.6218 134.71C96.5761 134.676 96.5189 134.653 96.4617 134.653Z" fill="#212121"/>
</g>
<path d="M158.483 144H76.0515C72.118 144 68.9277 140.804 68.9277 136.864H165.607C165.607 140.804 162.417 144 158.483 144Z" fill="#FFBF00"/>
<path d="M30.6563 77.7678C30.6563 78.2603 30.2561 78.6498 29.7529 78.6498C29.2613 78.6498 28.8496 78.2489 28.8496 77.7678C28.8496 77.2752 29.2498 76.8743 29.7529 76.8743C30.2446 76.8743 30.6563 77.2752 30.6563 77.7678Z" fill="#FFBF00"/>
<path d="M61.9297 5.70452C61.9297 6.19708 61.5295 6.58655 61.0264 6.58655C60.5233 6.58655 60.123 6.18563 60.123 5.70452C60.123 5.21196 60.5233 4.81104 61.0264 4.81104C61.5295 4.81104 61.9297 5.21196 61.9297 5.70452Z" fill="#FFBF00"/>
<path d="M163.034 67.4467C163.034 67.9393 162.634 68.3402 162.131 68.3402C161.639 68.3402 161.228 67.9393 161.228 67.4467C161.228 66.9542 161.628 66.5647 162.131 66.5647C162.634 66.5532 163.034 66.9542 163.034 67.4467Z" fill="#FFBF00"/>
<path d="M126.775 0.893484C126.775 1.38605 126.375 1.78697 125.872 1.78697C125.38 1.78697 124.969 1.38605 124.969 0.893484C124.969 0.400921 125.369 0 125.872 0C126.364 0.0114549 126.775 0.400921 126.775 0.893484Z" fill="#FFBF00"/>
<path d="M16.9688 15.155C16.9688 15.6475 16.5686 16.037 16.0654 16.037C15.5623 16.037 15.1621 15.6361 15.1621 15.155C15.1621 14.6624 15.5623 14.2615 16.0654 14.2615C16.5686 14.2615 16.9688 14.6624 16.9688 15.155Z" fill="#FFBF00"/>
<path d="M146.648 43.2424C146.648 43.7349 146.248 44.1358 145.745 44.1358C145.242 44.1358 144.842 43.7349 144.842 43.2424C144.842 42.7498 145.242 42.3489 145.745 42.3489C146.248 42.3489 146.648 42.7613 146.648 43.2424Z" fill="#FFBF00"/>
<path d="M117.376 38.9353C117.376 39.1758 117.17 39.382 116.93 39.382C116.679 39.382 116.484 39.1873 116.484 38.9353C116.484 38.6947 116.69 38.4885 116.93 38.4885C117.182 38.4885 117.376 38.6833 117.376 38.9353Z" fill="#FFBF00"/>
<path d="M183.377 48.1794C183.623 48.1794 183.823 47.9794 183.823 47.7326C183.823 47.4859 183.623 47.2859 183.377 47.2859C183.13 47.2859 182.931 47.4859 182.931 47.7326C182.931 47.9794 183.13 48.1794 183.377 48.1794Z" fill="#FFBF00"/>
<path d="M159.044 17.7092C159.044 18.2017 158.644 18.6027 158.141 18.6027C157.649 18.6027 157.237 18.2017 157.237 17.7092C157.237 17.2166 157.638 16.8271 158.141 16.8271C158.644 16.8271 159.044 17.2166 159.044 17.7092Z" fill="#FFBF00"/>
<path d="M40.0897 41.4896C40.0897 41.8447 39.8038 42.1311 39.4379 42.1311C39.0834 42.1311 38.7861 41.8447 38.7861 41.4896C38.7861 41.1345 39.072 40.8481 39.4379 40.8481C39.8038 40.8481 40.0897 41.1345 40.0897 41.4896Z" fill="#FFBF00"/>
<path d="M167.586 96.0267C167.586 96.3818 167.3 96.6682 166.934 96.6682C166.58 96.6682 166.282 96.3818 166.282 96.0267C166.282 95.6716 166.568 95.3853 166.934 95.3853C167.3 95.3853 167.586 95.6716 167.586 96.0267Z" fill="#FFBF00"/>
<path d="M4.27669 67.3551C4.27669 67.7102 3.99082 67.9966 3.62492 67.9966C3.27044 67.9966 2.97314 67.7102 2.97314 67.3551C2.97314 67 3.25901 66.7136 3.62492 66.7136C3.97939 66.7136 4.27669 67 4.27669 67.3551Z" fill="#FFBF00"/>
</svg>
