<svg width="48" height="34" viewBox="0 0 48 34" fill="none" xmlns="http://www.w3.org/2000/svg">
<path d="M10.875 0.25C5.17969 0.25 0.75 4.78516 0.75 10.375C0.75 16.0703 5.17969 20.5 10.875 20.5C12.0352 20.5 13.0898 20.2891 14.25 19.9727V20.5C14.25 24.2969 11.1914 27.25 7.5 27.25C5.60156 27.25 4.125 28.832 4.125 30.625C4.125 32.5234 5.60156 34 7.5 34C14.8828 34 21 27.9883 21 20.5V10.375C21 4.78516 16.4648 0.25 10.875 0.25ZM48 10.375C48 4.78516 43.4648 0.25 37.875 0.25C32.1797 0.25 27.75 4.78516 27.75 10.375C27.75 16.0703 32.1797 20.5 37.875 20.5C39.0352 20.5 40.0898 20.2891 41.25 19.9727V20.5C41.25 24.2969 38.1914 27.25 34.5 27.25C32.6016 27.25 31.125 28.832 31.125 30.625C31.125 32.5234 32.6016 34 34.5 34C41.8828 34 48 27.9883 48 20.5V10.375Z" fill="#FFBF00"/>
</svg>
