<svg width="48" height="34" viewBox="0 0 48 34" fill="none" xmlns="http://www.w3.org/2000/svg">
<path d="M10.125 13.5C8.85938 13.5 7.80469 13.8164 6.75 14.1328V13.5C6.75 9.80859 9.70312 6.75 13.5 6.75C15.293 6.75 16.875 5.27344 16.875 3.375C16.875 1.58203 15.293 0 13.5 0C6.01172 0 0 6.11719 0 13.5V23.625C0 29.3203 4.42969 33.75 10.125 33.75C15.7148 33.75 20.25 29.3203 20.25 23.625C20.25 18.0352 15.7148 13.5 10.125 13.5ZM37.125 13.5C35.8594 13.5 34.8047 13.8164 33.75 14.1328V13.5C33.75 9.80859 36.7031 6.75 40.5 6.75C42.293 6.75 43.875 5.27344 43.875 3.375C43.875 1.58203 42.293 0 40.5 0C33.0117 0 27 6.11719 27 13.5V23.625C27 29.3203 31.4297 33.75 37.125 33.75C42.7148 33.75 47.25 29.3203 47.25 23.625C47.25 18.0352 42.7148 13.5 37.125 13.5Z" fill="#FFBF00"/>
</svg>
